<svg width="75" height="75" viewBox="0 0 75 75" fill="none" xmlns="http://www.w3.org/2000/svg">
<circle cx="37.5" cy="37.5" r="37.5" fill="url(#paint0_linear_826_1919)"/>
<path d="M45.9807 20.1275C47.8064 20.2108 49.0685 20.4791 50.2365 20.933C51.405 21.3872 52.29 21.9628 53.1695 22.8423C54.0488 23.7217 54.6244 24.6065 55.0787 25.7752C55.5326 26.9434 55.8008 28.2053 55.8841 30.031C55.9874 32.2952 55.9999 33.0933 55.9999 38.0058C55.9999 42.9183 55.9874 43.7164 55.8841 45.9806C55.8008 47.8063 55.5326 49.0682 55.0786 50.2367C54.6244 51.4051 54.0487 52.29 53.1695 53.1692C52.2901 54.0487 51.4051 54.6244 50.2363 55.0786C49.068 55.5326 47.8062 55.8008 45.9807 55.884C43.717 55.9873 42.919 55.9999 38.0058 55.9999C33.0926 55.9999 32.2947 55.9873 30.031 55.8841C28.2054 55.8008 26.9435 55.5326 25.775 55.0786C24.6065 54.6244 23.7215 54.0487 22.8422 53.1693C21.9628 52.2899 21.3871 51.405 20.9329 50.2364C20.479 49.0682 20.2108 47.8063 20.1275 45.9807C20.0242 43.7179 20.0117 42.9204 20.0117 38.0058C20.0117 33.0912 20.0242 32.2937 20.1275 30.0309C20.2108 28.2053 20.479 26.9434 20.933 25.7751C21.3871 24.6067 21.9628 23.7217 22.8421 22.8424C23.7215 21.9629 24.6065 21.3872 25.775 20.933C26.943 20.4791 28.2052 20.2108 30.0309 20.1275C32.2938 20.0242 33.0912 20.0117 38.0058 20.0117C42.9204 20.0117 43.7178 20.0242 45.9807 20.1275ZM38.0058 24.0104C33.1468 24.0104 32.4037 24.0221 30.2132 24.122C28.823 24.1855 27.9884 24.3629 27.2236 24.6601C26.5705 24.9139 26.1556 25.1839 25.6697 25.6698C25.1838 26.1558 24.9138 26.5707 24.6601 27.2234C24.3628 27.9886 24.1855 28.8231 24.122 30.2132C24.0221 32.4036 24.0104 33.1468 24.0104 38.0058C24.0104 42.8648 24.0221 43.608 24.122 45.7984C24.1855 47.1885 24.3628 48.023 24.66 48.788C24.9138 49.4409 25.1838 49.8559 25.6698 50.3419C26.1556 50.8277 26.5705 51.0977 27.2233 51.3514C27.9887 51.6488 28.8231 51.8261 30.2132 51.8895C32.4046 51.9895 33.1482 52.0012 38.0058 52.0012C42.8634 52.0012 43.6071 51.9895 45.7985 51.8895C47.1885 51.8261 48.0228 51.6488 48.788 51.3515C49.4411 51.0977 49.856 50.8277 50.3419 50.3418C50.8277 49.856 51.0977 49.441 51.3515 48.7882C51.6488 48.023 51.8262 47.1885 51.8896 45.7984C51.9895 43.6066 52.0012 42.8627 52.0012 38.0058C52.0012 33.1489 51.9895 32.405 51.8896 30.2132C51.8262 28.8231 51.6488 27.9886 51.3516 27.2237C51.0977 26.5706 50.8278 26.1556 50.3419 25.6697C49.8561 25.1839 49.4411 24.9139 48.788 24.6601C48.0231 24.3629 47.1885 24.1855 45.7984 24.122C43.608 24.0221 42.8648 24.0104 38.0058 24.0104ZM38.0058 47.3361C32.8528 47.3361 28.6755 43.1588 28.6755 38.0058C28.6755 32.8528 32.8528 28.6755 38.0058 28.6755C43.1588 28.6755 47.3361 32.8528 47.3361 38.0058C47.3361 43.1588 43.1588 47.3361 38.0058 47.3361ZM38.0058 43.3374C40.9504 43.3374 43.3374 40.9504 43.3374 38.0058C43.3374 35.0613 40.9504 32.6742 38.0058 32.6742C35.0613 32.6742 32.6742 35.0613 32.6742 38.0058C32.6742 40.9504 35.0613 43.3374 38.0058 43.3374ZM47.3361 30.6749C46.2319 30.6749 45.3367 29.7797 45.3367 28.6755C45.3367 27.5713 46.2319 26.6762 47.3361 26.6762C48.4403 26.6762 49.3354 27.5713 49.3354 28.6755C49.3354 29.7797 48.4403 30.6749 47.3361 30.6749Z" fill="white"/>
<defs>
<linearGradient id="paint0_linear_826_1919" x1="2.21476e-05" y1="11.5" x2="75" y2="66" gradientUnits="userSpaceOnUse">
<stop stop-color="#586BE7"/>
<stop offset="0.5" stop-color="#BB4B9B"/>
<stop offset="1" stop-color="#F93745"/>
</linearGradient>
</defs>
</svg>
