<svg width="21" height="21" viewBox="0 0 21 21" fill="none" xmlns="http://www.w3.org/2000/svg">
<path d="M6.6712 10.0519C6.6712 8.20934 8.16401 6.71529 10.006 6.71529C11.848 6.71529 13.3416 8.20934 13.3416 10.0519C13.3416 11.8944 11.848 13.3884 10.006 13.3884C8.16401 13.3884 6.6712 11.8944 6.6712 10.0519ZM4.86804 10.0519C4.86804 12.8904 7.1683 15.1913 10.006 15.1913C12.8437 15.1913 15.144 12.8904 15.144 10.0519C15.144 7.21334 12.8437 4.91241 10.006 4.91241C7.1683 4.91241 4.86804 7.21334 4.86804 10.0519ZM14.1466 4.70863C14.1465 4.94618 14.2169 5.17842 14.3487 5.37599C14.4806 5.57356 14.6681 5.72758 14.8874 5.81857C15.1068 5.90956 15.3482 5.93344 15.5811 5.88719C15.8141 5.84094 16.0281 5.72664 16.1961 5.55873C16.364 5.39083 16.4785 5.17687 16.5249 4.9439C16.5713 4.71093 16.5477 4.46943 16.4569 4.24993C16.3661 4.03043 16.2122 3.84278 16.0148 3.71073C15.8174 3.57868 15.5853 3.50814 15.3478 3.50805H15.3474C15.029 3.50819 14.7238 3.63472 14.4987 3.85982C14.2735 4.08493 14.1469 4.39022 14.1466 4.70863ZM5.96358 18.1989C4.98803 18.1544 4.45779 17.9919 4.10542 17.8545C3.63826 17.6726 3.30494 17.456 2.95449 17.1059C2.60404 16.7558 2.38711 16.4227 2.20604 15.9554C2.06868 15.6031 1.90618 15.0726 1.86184 14.0967C1.81333 13.0417 1.80364 12.7248 1.80364 10.0519C1.80364 7.37908 1.81413 7.06304 1.86184 6.00715C1.90626 5.03132 2.06996 4.50181 2.20604 4.14845C2.38791 3.68116 2.60452 3.34774 2.95449 2.99719C3.30446 2.64664 3.63746 2.42965 4.10542 2.24853C4.45763 2.11113 4.98803 1.94858 5.96358 1.90422C7.01829 1.8557 7.33512 1.84601 10.006 1.84601C12.6769 1.84601 12.994 1.8565 14.0496 1.90422C15.0252 1.94866 15.5545 2.11241 15.9078 2.24853C16.3749 2.42965 16.7083 2.64712 17.0587 2.99719C17.4092 3.34726 17.6253 3.68116 17.8072 4.14845C17.9445 4.50077 18.107 5.03132 18.1514 6.00715C18.1999 7.06304 18.2096 7.37908 18.2096 10.0519C18.2096 12.7248 18.1999 13.0408 18.1514 14.0967C18.1069 15.0726 17.9436 15.6029 17.8072 15.9554C17.6253 16.4227 17.4087 16.7561 17.0587 17.1059C16.7087 17.4556 16.3749 17.6726 15.9078 17.8545C15.5556 17.9919 15.0252 18.1545 14.0496 18.1989C12.9949 18.2474 12.6781 18.2571 10.006 18.2571C7.33392 18.2571 7.01797 18.2474 5.96358 18.1989ZM5.88073 0.103583C4.81553 0.152106 4.08765 0.321056 3.45199 0.568475C2.79367 0.823982 2.23638 1.16677 1.67949 1.72294C1.12259 2.27911 0.780788 2.83745 0.525355 3.49596C0.278007 4.1322 0.109105 4.85989 0.0605963 5.92539C0.0112868 6.99258 0 7.33376 0 10.0519C0 12.77 0.0112868 13.1111 0.0605963 14.1783C0.109105 15.2439 0.278007 15.9715 0.525355 16.6078C0.780788 17.2659 1.12267 17.8248 1.67949 18.3808C2.2363 18.9367 2.79367 19.279 3.45199 19.5352C4.08885 19.7827 4.81553 19.9516 5.88073 20.0001C6.94817 20.0487 7.28869 20.0607 10.006 20.0607C12.7233 20.0607 13.0644 20.0495 14.1313 20.0001C15.1966 19.9516 15.9239 19.7827 16.56 19.5352C17.2179 19.279 17.7756 18.9369 18.3325 18.3808C18.8894 17.8246 19.2305 17.2659 19.4866 16.6078C19.734 15.9715 19.9037 15.2438 19.9514 14.1783C19.9999 13.1103 20.0112 12.77 20.0112 10.0519C20.0112 7.33376 19.9999 6.99258 19.9514 5.92539C19.9029 4.85981 19.734 4.1318 19.4866 3.49596C19.2305 2.83785 18.8885 2.28 18.3325 1.72294C17.7765 1.16589 17.2179 0.823982 16.5608 0.568475C15.9239 0.321056 15.1965 0.151305 14.1321 0.103583C13.0652 0.0550595 12.7241 0.0429688 10.0068 0.0429688C7.28949 0.0429688 6.94817 0.0542588 5.88073 0.103583Z" fill="white"/>
</svg>
