<svg width="75" height="75" viewBox="0 0 75 75" fill="none" xmlns="http://www.w3.org/2000/svg">
<circle cx="37.5" cy="37.5" r="37.5" fill="#FFFC00"/>
<path fill-rule="evenodd" clip-rule="evenodd" d="M38.2644 57C38.1454 57 38.0318 56.9957 37.9454 56.9916C37.8769 56.9975 37.8061 57 37.7352 57C35.2345 57 33.5624 55.8307 32.0868 54.7982C31.0292 54.0592 30.0318 53.3616 28.8633 53.1694C28.2894 53.0752 27.7185 53.0275 27.1669 53.0275C26.173 53.0275 25.3876 53.1799 24.8141 53.2908C24.4613 53.3589 24.157 53.4174 23.9218 53.4174C23.6755 53.4174 23.3762 53.3634 23.2515 52.9422C23.1527 52.6099 23.0818 52.288 23.0133 51.978C22.8421 51.2033 22.718 50.7305 22.4247 50.6856C19.2882 50.207 17.435 49.5019 17.0659 48.648C17.0272 48.5582 17.0056 48.4679 17.0008 48.3786C16.9864 48.1241 17.1681 47.9009 17.4218 47.8593C19.9126 47.4536 22.1274 46.1515 24.0049 43.9878C25.4593 42.3127 26.1735 40.7122 26.2502 40.5355C26.2535 40.5275 26.2574 40.5192 26.2614 40.5115C26.6233 39.7853 26.6953 39.1577 26.4761 38.6467C26.0719 37.7041 24.7335 37.284 23.8479 37.0061C23.6277 36.9372 23.4194 36.872 23.2534 36.8068C22.4684 36.5001 21.1774 35.8521 21.3494 34.9577C21.4747 34.3056 22.3468 33.8514 23.0517 33.8514C23.2474 33.8514 23.4208 33.8853 23.5668 33.9531C24.3633 34.3222 25.0799 34.5093 25.6961 34.5093C26.4625 34.5093 26.8326 34.2207 26.9221 34.1387C26.9001 33.7343 26.8731 33.3068 26.847 32.9024C26.847 32.902 26.8465 32.8971 26.8465 32.8971C26.6666 30.0667 26.4422 26.5443 27.3531 24.5244C30.0796 18.478 35.8616 18.0078 37.5683 18.0078C37.6137 18.0078 38.3121 18.001 38.3121 18.001C38.3437 18.0004 38.3779 18 38.4133 18C40.1246 18 45.9187 18.4707 48.6469 24.5207C49.5578 26.542 49.3332 30.0674 49.1528 32.9008L49.1443 33.0364C49.1195 33.4211 49.0967 33.7852 49.0774 34.1382C49.1617 34.2149 49.5004 34.4795 50.1895 34.5063C50.777 34.484 51.4521 34.2978 52.1955 33.9536C52.4254 33.8469 52.6798 33.8247 52.8526 33.8247C53.1137 33.8247 53.3794 33.875 53.6009 33.9664L53.6127 33.9709C54.2435 34.1923 54.6567 34.635 54.6656 35.1C54.6736 35.5334 54.3479 36.1813 52.746 36.807C52.582 36.8713 52.3726 36.937 52.1515 37.0063C51.2652 37.2846 49.9278 37.7044 49.5237 38.6465C49.3041 39.1575 49.3763 39.7848 49.7384 40.5109C49.7424 40.5188 49.7458 40.5269 49.7497 40.5353C49.8612 40.7937 52.559 46.8779 58.5781 47.8587C58.8317 47.9005 59.0137 48.124 58.9992 48.3781C58.9938 48.4694 58.9715 48.5606 58.9325 48.6498C58.566 49.499 56.7129 50.2031 53.5755 50.6824C53.281 50.7274 53.157 51.1982 52.9873 51.9687C52.9171 52.287 52.8457 52.599 52.7481 52.9268C52.6569 53.2352 52.4538 53.3859 52.1277 53.3859H52.0785C51.8662 53.3859 51.5654 53.3477 51.186 53.2743C50.5228 53.1467 49.779 53.0278 48.8332 53.0278C48.2817 53.0278 47.711 53.0757 47.1364 53.1697C45.9691 53.362 44.9718 54.0585 43.9161 54.7966C42.4376 55.8306 40.765 57 38.2644 57Z" fill="black"/>
</svg>
