<svg width="75" height="75" viewBox="0 0 75 75" fill="none" xmlns="http://www.w3.org/2000/svg">
<circle cx="37.5" cy="37.5" r="37.5" fill="#1DA1F2"/>
<path fill-rule="evenodd" clip-rule="evenodd" d="M58.0011 25.138C56.5251 25.7933 54.9387 26.2346 53.2738 26.4335C54.9722 25.4155 56.2777 23.8024 56.8928 21.8801C55.3031 22.8245 53.5413 23.5082 51.6657 23.8793C50.1646 22.2779 48.025 21.2783 45.658 21.2783C41.113 21.2783 37.4271 24.9642 37.4271 29.5093C37.4271 30.1545 37.5006 30.783 37.6411 31.3848C30.8009 31.0421 24.7347 27.7658 20.676 22.7844C19.9673 24.0013 19.5611 25.4138 19.5611 26.9233C19.5611 29.7784 21.0137 32.2991 23.2236 33.7752C21.8746 33.73 20.6042 33.3606 19.4942 32.7455V32.8474C19.4942 36.8359 22.3309 40.1623 26.097 40.9179C25.4067 41.1084 24.6778 41.2071 23.929 41.2071C23.3974 41.2071 22.8826 41.1553 22.3794 41.06C23.4275 44.3296 26.4665 46.71 30.0687 46.7768C27.2504 48.9833 23.7016 50.2989 19.8469 50.2989C19.1816 50.2989 18.5264 50.2604 17.8828 50.1852C21.5252 52.5188 25.8513 53.8828 30.5 53.8828C45.6396 53.8828 53.9174 41.3408 53.9174 30.4637C53.9174 30.1077 53.909 29.7533 53.894 29.4006C55.502 28.2388 56.8978 26.7896 58.0011 25.138Z" fill="white"/>
</svg>
