<svg width="22" height="18" viewBox="0 0 22 18" fill="none" xmlns="http://www.w3.org/2000/svg">
<path d="M20.9283 2.6672C20.2679 2.95169 19.5735 3.14979 18.8625 3.25661C19.1949 3.19957 19.6841 2.60065 19.8788 2.35823C20.1746 1.99256 20.4 1.57512 20.5437 1.12711C20.5437 1.09384 20.5769 1.04631 20.5437 1.02254C20.5269 1.01339 20.5081 1.00859 20.4891 1.00859C20.47 1.00859 20.4512 1.01339 20.4344 1.02254C19.6623 1.44103 18.8406 1.76044 17.9886 1.97321C17.9589 1.98229 17.9273 1.9831 17.8972 1.97556C17.8671 1.96803 17.8396 1.95242 17.8177 1.93043C17.7514 1.85139 17.68 1.77677 17.604 1.70702C17.2565 1.39541 16.8622 1.14038 16.4357 0.951239C15.8599 0.714797 15.2379 0.612399 14.6168 0.651779C14.0141 0.689876 13.4256 0.851675 12.8881 1.12711C12.3587 1.41751 11.8935 1.81201 11.5203 2.28693C11.1278 2.77574 10.8444 3.34301 10.6892 3.9506C10.5613 4.52853 10.5468 5.12585 10.6465 5.70933C10.6465 5.80915 10.6465 5.82341 10.561 5.80915C7.1749 5.31005 4.39667 4.10746 2.12659 1.52639C2.02686 1.41231 1.97462 1.41231 1.89388 1.52639C0.906064 3.02845 1.38572 5.40512 2.6205 6.57919C2.78671 6.73605 2.95768 6.88816 3.13815 7.03076C2.57201 6.99053 2.01971 6.83698 1.51395 6.57919C1.41897 6.5174 1.36673 6.55067 1.36198 6.66475C1.34852 6.82291 1.34852 6.98193 1.36198 7.14009C1.46107 7.89805 1.75952 8.61608 2.22679 9.22074C2.69407 9.8254 3.31341 10.295 4.02149 10.5815C4.1941 10.6555 4.37395 10.7113 4.55814 10.7479C4.03403 10.8511 3.4965 10.8672 2.96718 10.7954C2.8532 10.7716 2.81046 10.8334 2.8532 10.9428C3.55132 12.8441 5.06629 13.424 6.17759 13.7472C6.32956 13.771 6.48153 13.771 6.6525 13.809C6.6525 13.809 6.6525 13.809 6.624 13.8375C6.29631 14.4365 4.97131 14.8405 4.36342 15.0496C3.25387 15.4485 2.07089 15.601 0.896565 15.4965C0.71135 15.4679 0.668608 15.4727 0.621116 15.4965C0.573625 15.5202 0.621116 15.5725 0.673357 15.62C0.910813 15.7769 1.14827 15.9148 1.39522 16.0478C2.13041 16.4492 2.90765 16.768 3.71279 16.9985C7.88252 18.1488 12.5746 17.3027 15.7043 14.1893C18.1644 11.7461 19.0287 8.37596 19.0287 5.00108C19.0287 4.87274 19.1854 4.79669 19.2757 4.73014C19.898 4.24478 20.4467 3.67157 20.9046 3.02845C20.9839 2.93258 21.0245 2.81052 21.0186 2.68621C21.0186 2.61491 21.0186 2.62917 20.9283 2.6672Z" fill="white"/>
</svg>
