<svg width="75" height="75" viewBox="0 0 75 75" fill="none" xmlns="http://www.w3.org/2000/svg">
<circle cx="37.5" cy="37.5" r="37.5" fill="#FF0000"/>
<path fill-rule="evenodd" clip-rule="evenodd" d="M33.976 42.1704L33.9749 31.5647L44.1736 36.8858L33.976 42.1704ZM56.3693 29.7269C56.3693 29.7269 56.0001 27.1259 54.8689 25.9805C53.4333 24.4766 51.8244 24.4695 51.0871 24.3822C45.8049 24 37.8817 24 37.8817 24H37.8651C37.8651 24 29.9419 24 24.6597 24.3822C23.9212 24.4695 22.3135 24.4766 20.8767 25.9805C19.7455 27.1259 19.3775 29.7269 19.3775 29.7269C19.3775 29.7269 19 32.782 19 35.836V38.7C19 41.7551 19.3775 44.8091 19.3775 44.8091C19.3775 44.8091 19.7455 47.4101 20.8767 48.5555C22.3135 50.0594 24.1996 50.0123 25.0395 50.1691C28.0592 50.4593 37.8734 50.549 37.8734 50.549C37.8734 50.549 45.8049 50.5372 51.0871 50.155C51.8244 50.0665 53.4333 50.0594 54.8689 48.5555C56.0001 47.4101 56.3693 44.8091 56.3693 44.8091C56.3693 44.8091 56.7468 41.7551 56.7468 38.7V35.836C56.7468 32.782 56.3693 29.7269 56.3693 29.7269Z" fill="white"/>
</svg>
