<svg width="34" height="34" viewBox="0 0 34 34" fill="none" xmlns="http://www.w3.org/2000/svg">
<path d="M12.75 5.66667C12.75 2.53725 17.5072 0 23.375 0C29.2428 0 34 2.53725 34 5.66667C34 8.79608 29.2428 11.3333 23.375 11.3333C17.5072 11.3333 12.75 8.79608 12.75 5.66667ZM23.375 14.1667C21.9201 14.1667 20.5402 14.0037 19.2794 13.7204C17.3542 12.2768 14.1992 11.3333 10.625 11.3333C4.75717 11.3333 0 13.8706 0 17C0 20.1294 4.75717 22.6667 10.625 22.6667C16.4928 22.6667 21.25 20.1294 21.25 17C21.25 16.9589 21.2401 16.9192 21.2387 16.8782H21.25V19.8333C21.25 22.9627 16.4928 25.5 10.625 25.5C4.75717 25.5 0 22.9627 0 19.8333V22.6667C0 25.7961 4.75717 28.3333 10.625 28.3333C16.4928 28.3333 21.25 25.7961 21.25 22.6667V25.5C21.25 28.6294 16.4928 31.1667 10.625 31.1667C4.75717 31.1667 0 28.6294 0 25.5V28.3333C0 31.4627 4.75717 34 10.625 34C16.4928 34 21.25 31.4627 21.25 28.3333V28.22C21.9371 28.2937 22.6468 28.3333 23.375 28.3333C29.2428 28.3333 34 25.7961 34 22.6667V19.8333C34 22.8352 29.6197 25.2861 24.0833 25.4816V22.6483C29.6197 22.4527 34 20.0033 34 17V14.1667C34 17.1686 29.6197 19.6194 24.0833 19.8149V16.9816C29.6197 16.7861 34 14.3367 34 11.3333V8.5C34 11.6294 29.2428 14.1667 23.375 14.1667Z" fill="white"/>
</svg>
