<svg width="34" height="34" viewBox="0 0 34 34" fill="none" xmlns="http://www.w3.org/2000/svg">
<path d="M3.89571 21.25H-0.00154166V19.8333C-0.0229876 17.847 0.503066 15.8931 1.51891 14.186C2.53476 12.479 4.00114 11.0847 5.75721 10.1561C7.48715 9.30312 9.3607 8.77948 11.2822 8.61192C10.4426 9.65081 9.60063 10.7549 8.75629 11.9241C6.85458 14.8777 5.22758 17.9994 3.89571 21.25ZM22.0744 25.2351C19.121 27.1392 15.9993 28.7686 12.7485 30.1028V34H14.1651C16.1515 34.0214 18.1054 33.4954 19.8124 32.4795C21.5195 31.4637 22.9138 29.9973 23.8424 28.2413C24.6953 26.5113 25.219 24.6378 25.3865 22.7163C24.3524 23.5521 23.2483 24.3917 22.0744 25.2351ZM33.9985 4.23725C33.81 10.404 29.3702 16.5198 20.424 22.9373C17.9894 24.5155 15.4211 25.8769 12.7485 27.0059V26.2083C12.7421 24.8953 12.2177 23.6378 11.2892 22.7093C10.3607 21.7808 9.10321 21.2563 7.79013 21.25H6.99254C8.1229 18.5774 9.48627 16.0095 11.0669 13.5759C17.4688 4.64383 23.5746 0.204 29.7315 0C32.8 0 33.9985 1.25375 33.9985 4.23725ZM25.4985 12.0417C25.4985 11.1024 25.1253 10.2015 24.4611 9.53733C23.7969 8.87314 22.8961 8.5 21.9568 8.5C21.0175 8.5 20.1166 8.87314 19.4525 9.53733C18.7883 10.2015 18.4151 11.1024 18.4151 12.0417C18.4151 12.981 18.7883 13.8818 19.4525 14.546C20.1166 15.2102 21.0175 15.5833 21.9568 15.5833C22.8961 15.5833 23.7969 15.2102 24.4611 14.546C25.1253 13.8818 25.4985 12.981 25.4985 12.0417ZM1.94496 33.6954C3.54013 33.4121 7.38638 32.6216 8.67129 31.3381C9.06598 30.9434 9.37905 30.4748 9.59265 29.9592C9.80626 29.4435 9.91619 28.8908 9.91619 28.3326C9.91619 27.7745 9.80626 27.2218 9.59265 26.7061C9.37905 26.1904 9.06598 25.7219 8.67129 25.3272C8.27661 24.9325 7.80805 24.6194 7.29238 24.4058C6.7767 24.1922 6.224 24.0823 5.66583 24.0823C4.53857 24.0823 3.45747 24.5301 2.66038 25.3272C1.37687 26.6121 0.584958 30.4583 0.303042 32.0535L-0.046875 34.0453L1.94496 33.6954Z" fill="white"/>
</svg>
