<svg width="34" height="34" viewBox="0 0 34 34" fill="none" xmlns="http://www.w3.org/2000/svg">
<path d="M32.5847 15.5839C32.209 15.5839 31.8487 15.4346 31.583 15.1689C31.3173 14.9033 31.1681 14.5429 31.1681 14.1672C31.1651 11.1623 29.9701 8.2814 27.8453 6.15664C25.7205 4.03188 22.8396 2.83687 19.8347 2.83387C19.459 2.83387 19.0987 2.68462 18.833 2.41894C18.5673 2.15326 18.4181 1.79293 18.4181 1.41721C18.4181 1.04148 18.5673 0.681148 18.833 0.415472C19.0987 0.149795 19.459 0.000539734 19.8347 0.000539734C23.5907 0.0046645 27.1916 1.49854 29.8475 4.15442C32.5034 6.81029 33.9973 10.4112 34.0014 14.1672C34.0014 14.5429 33.8521 14.9033 33.5865 15.1689C33.3208 15.4346 32.9605 15.5839 32.5847 15.5839ZM28.3347 14.1672C28.3347 11.9129 27.4392 9.75086 25.8451 8.1568C24.2511 6.56274 22.0891 5.66721 19.8347 5.66721C19.459 5.66721 19.0987 5.81646 18.833 6.08214C18.5673 6.34782 18.4181 6.70815 18.4181 7.08387C18.4181 7.4596 18.5673 7.81993 18.833 8.08561C19.0987 8.35128 19.459 8.50054 19.8347 8.50054C21.3376 8.50054 22.779 9.09756 23.8417 10.1603C24.9044 11.223 25.5014 12.6643 25.5014 14.1672C25.5014 14.5429 25.6507 14.9033 25.9163 15.1689C26.182 15.4346 26.5423 15.5839 26.9181 15.5839C27.2938 15.5839 27.6541 15.4346 27.9198 15.1689C28.1855 14.9033 28.3347 14.5429 28.3347 14.1672ZM31.4273 31.3995L32.7165 29.9135C33.537 29.0903 33.9978 27.9754 33.9978 26.8131C33.9978 25.6508 33.537 24.5359 32.7165 23.7127C32.6726 23.6688 29.2641 21.0465 29.2641 21.0465C28.446 20.2678 27.3594 19.8342 26.23 19.8358C25.1006 19.8374 24.0152 20.274 23.1993 21.055L20.4991 23.3302C18.2951 22.418 16.2929 21.0794 14.6076 19.3912C12.9224 17.703 11.5872 15.6985 10.6788 13.4929L12.9455 10.8012C13.7271 9.98545 14.1642 8.89986 14.1661 7.77011C14.1679 6.64036 13.7343 5.55335 12.9554 4.73504C12.9554 4.73504 10.3303 1.33079 10.2864 1.28687C9.47812 0.47335 8.38223 0.0104876 7.2355 -0.00170599C6.08877 -0.0138996 4.98329 0.425554 4.1579 1.22171L2.52873 2.63837C-7.09611 13.8045 13.6297 34.3703 25.1642 34.0005C26.329 34.0073 27.4833 33.7806 28.559 33.3339C29.6347 32.8871 30.61 32.2294 31.4273 31.3995Z" fill="white"/>
</svg>
