<svg width="789" height="451" viewBox="0 0 789 451" fill="none" xmlns="http://www.w3.org/2000/svg">
<path d="M234.967 129.484H42.6777V259.094H234.967V129.484Z" fill="#FAF4FF"/>
<path d="M235.594 259.709H42.0508V128.857H235.594V259.721V259.709ZM43.305 258.454H234.34V130.112H43.305V258.467V258.454Z" fill="#EEDDFF"/>
<path d="M61.2646 139.294C61.2646 141.74 59.283 143.722 56.8374 143.722C54.3917 143.722 52.4102 141.74 52.4102 139.294C52.4102 136.848 54.3917 134.866 56.8374 134.866C59.283 134.866 61.2646 136.848 61.2646 139.294Z" fill="black"/>
<path d="M79.3505 139.294C79.3505 141.74 77.369 143.722 74.9233 143.722C72.4777 143.722 70.4961 141.74 70.4961 139.294C70.4961 136.848 72.4777 134.866 74.9233 134.866C77.369 134.866 79.3505 136.848 79.3505 139.294Z" fill="#EEDDFF"/>
<path d="M97.4228 139.294C97.4228 141.74 95.4412 143.722 92.9956 143.722C90.5499 143.722 88.5684 141.74 88.5684 139.294C88.5684 136.848 90.5499 134.866 92.9956 134.866C95.4412 134.866 97.4228 136.848 97.4228 139.294Z" fill="#8218EA"/>
<path d="M234.967 148.376H42.6777V149.631H234.967V148.376Z" fill="#EEDDFF"/>
<path d="M814.393 219.905H622.104V349.515H814.393V219.905Z" fill="#FAF4FF"/>
<path d="M815.02 350.142H621.477V219.278H815.02V350.142ZM622.731 348.888H813.766V220.533H622.731V348.888Z" fill="#EEDDFF"/>
<path d="M640.679 229.715C640.679 232.161 638.697 234.143 636.251 234.143C633.806 234.143 631.824 232.161 631.824 229.715C631.824 227.269 633.806 225.287 636.251 225.287C638.697 225.287 640.679 227.269 640.679 229.715Z" fill="black"/>
<path d="M658.765 229.715C658.765 232.161 656.783 234.143 654.337 234.143C651.892 234.143 649.91 232.161 649.91 229.715C649.91 227.269 651.892 225.287 654.337 225.287C656.783 225.287 658.765 227.269 658.765 229.715Z" fill="#EEDDFF"/>
<path d="M676.849 229.715C676.849 232.161 674.867 234.143 672.421 234.143C669.976 234.143 667.994 232.161 667.994 229.715C667.994 227.269 669.976 225.287 672.421 225.287C674.867 225.287 676.849 227.269 676.849 229.715Z" fill="#8218EA"/>
<path d="M814.393 238.797H622.104V240.052H814.393V238.797Z" fill="#EEDDFF"/>
<path d="M177.816 256.673C177.816 267.938 168.698 277.033 157.46 277.033C157.097 277.033 156.758 277.033 156.419 277.008C156.419 277.008 120.776 277.083 120.199 277.083C108.949 277.083 99.8438 267.963 99.8438 256.723C99.8438 245.483 108.962 236.364 120.199 236.364H156.081C156.545 236.339 156.996 236.313 157.46 236.313C168.698 236.313 177.816 245.433 177.816 256.673Z" fill="#A6A6A6"/>
<path d="M120.426 257.35C120.426 256.56 120.727 255.87 121.128 255.23C121.304 254.942 121.504 254.666 121.692 254.39L122.922 253.161C123.398 252.822 123.862 252.458 124.351 252.132C126.32 250.827 128.503 250.075 130.798 249.623C136.141 248.569 141.483 248.594 146.826 249.648C149.096 250.1 151.253 250.84 153.197 252.119C153.699 252.458 154.188 252.822 154.677 253.173L155.869 254.352C156.17 254.829 156.508 255.268 156.747 255.77C156.972 256.234 157.073 256.761 157.248 257.3C157.06 257.313 156.972 257.325 156.885 257.325C153.511 257.325 150.137 257.325 146.763 257.338C146.563 257.338 146.45 257.275 146.362 257.1C145.71 255.933 144.719 255.281 143.365 255.193C140.317 255.005 137.269 254.992 134.209 255.193C132.867 255.281 131.876 255.946 131.224 257.112C131.149 257.25 131.074 257.35 130.886 257.35C127.462 257.35 124.038 257.35 120.614 257.35C120.564 257.35 120.514 257.351 120.438 257.338L120.426 257.35Z" fill="#FAF4FF"/>
<path d="M120.413 263.272C120.413 262.08 120.413 260.888 120.413 259.696C120.413 259.609 120.413 259.508 120.413 259.446C123.874 259.446 127.311 259.446 130.785 259.446C130.785 259.671 130.747 259.935 130.747 260.211C130.747 261.227 130.747 262.243 130.747 263.259C130.747 264.137 130.308 264.576 129.43 264.576C126.859 264.576 124.276 264.576 121.705 264.576C120.839 264.576 120.413 264.137 120.4 263.272H120.413Z" fill="#FAF4FF"/>
<path d="M146.826 263.322C146.839 262.017 146.889 260.725 146.927 259.42C150.25 259.42 153.687 259.42 157.148 259.408C157.148 259.47 157.161 259.546 157.161 259.634C157.161 260.85 157.161 262.055 157.161 263.259C157.161 264.087 156.722 264.526 155.894 264.526C153.285 264.526 150.677 264.526 148.081 264.526C147.29 264.526 146.814 264.087 146.826 263.309V263.322Z" fill="#FAF4FF"/>
<path d="M803.407 223.932C802.278 222.113 802.341 219.843 803.445 218.024C803.746 217.522 804.034 217.02 804.31 216.506C804.586 215.979 804.849 215.465 805.1 214.925C806.003 213.006 807.859 211.701 809.979 211.639L817.253 211.413L816.513 187.716L809.189 187.942C807.069 188.005 805.138 186.813 804.122 184.956C803.57 183.953 802.968 182.962 802.316 182.021C801.099 180.252 800.886 177.982 801.902 176.087L805.326 169.69L784.431 158.488L781.007 164.885C779.992 166.779 777.985 167.871 775.84 167.821C774.686 167.796 773.533 167.833 772.391 167.934C770.272 168.122 768.215 167.168 767.099 165.362L763.236 159.14L743.094 171.634L746.944 177.844C748.048 179.625 748.035 181.858 746.944 183.652C746.631 184.179 746.317 184.706 746.029 185.245C745.74 185.784 745.464 186.336 745.201 186.888C744.31 188.795 742.442 190.037 740.335 190.1L733.061 190.326L733.801 214.022L741.05 213.796C743.144 213.734 745.113 214.825 746.104 216.669C746.706 217.773 747.371 218.839 748.085 219.88C749.277 221.586 749.39 223.832 748.399 225.676L744.975 232.074L765.87 243.276L769.294 236.878C770.309 234.984 772.316 233.893 774.473 233.943C775.627 233.968 776.781 233.93 777.935 233.83C780.054 233.654 782.111 234.595 783.24 236.401L787.078 242.611L807.22 230.117L803.394 223.945L803.407 223.932ZM768.303 219.052C756.35 214.461 751.973 199.972 759.398 189.535C764.452 182.435 773.909 179.587 782.048 182.711C794.001 187.302 798.365 201.754 790.941 212.203C785.886 219.316 776.442 222.176 768.303 219.052Z" fill="#EEDDFF"/>
<path d="M719.641 153.871C718.349 153.118 717.635 151.701 717.71 150.208C717.735 149.807 717.735 149.393 717.735 148.991C717.735 148.59 717.735 148.163 717.71 147.762C717.635 146.269 718.349 144.852 719.641 144.112L724.056 141.565L715.753 127.176L711.339 129.723C710.047 130.476 708.454 130.4 707.2 129.572C706.51 129.121 705.795 128.707 705.055 128.331C703.726 127.653 702.873 126.311 702.873 124.818V119.738H686.268V124.818C686.268 126.311 685.415 127.653 684.086 128.331C683.346 128.707 682.631 129.121 681.941 129.572C680.687 130.388 679.094 130.463 677.802 129.723L673.387 127.176L665.085 141.565L669.512 144.124C670.804 144.864 671.506 146.282 671.431 147.775C671.406 148.176 671.406 148.59 671.406 148.991C671.406 149.393 671.406 149.807 671.431 150.208C671.506 151.701 670.791 153.131 669.5 153.871L665.072 156.418L673.375 170.806L677.777 168.26C679.069 167.507 680.662 167.582 681.916 168.398C682.606 168.849 683.32 169.263 684.06 169.64C685.39 170.317 686.243 171.659 686.243 173.152V178.233H702.848V173.152C702.848 171.659 703.701 170.317 705.03 169.64C705.77 169.263 706.485 168.849 707.175 168.398C708.429 167.582 710.022 167.507 711.314 168.26L715.716 170.806L724.018 156.418L719.604 153.871H719.641ZM694.583 162.59C687.07 162.59 680.975 156.493 680.975 148.979C680.975 141.465 687.07 135.381 694.583 135.381C702.095 135.381 708.178 141.465 708.178 148.979C708.178 156.493 702.095 162.59 694.583 162.59Z" fill="#EEDDFF"/>
<path d="M117.338 115.334L125.641 129.723L130.043 127.176C131.335 126.424 132.928 126.499 134.182 127.314C134.872 127.766 135.587 128.18 136.327 128.556C137.656 129.234 138.509 130.576 138.509 132.069V137.149H155.114V132.069C155.114 130.576 155.967 129.234 157.296 128.556C158.036 128.18 158.751 127.766 159.441 127.314C160.695 126.499 162.288 126.424 163.58 127.176L167.982 129.723L176.284 115.334L171.857 112.788C170.565 112.035 169.851 110.618 169.926 109.125C169.951 108.723 169.951 108.309 169.951 107.908C169.951 107.507 169.951 107.093 169.926 106.691C169.851 105.198 170.553 103.793 171.845 103.041L176.272 100.482L167.969 86.0932L163.555 88.6397C162.263 89.3924 160.67 89.3171 159.416 88.4892C158.726 88.0376 158.011 87.6236 157.271 87.2473C155.942 86.5699 155.089 85.2276 155.089 83.7348V78.6543H138.484V83.7348C138.484 85.2276 137.631 86.5699 136.301 87.2473C135.562 87.6236 134.847 88.0376 134.157 88.4892C132.903 89.3046 131.31 89.3799 130.018 88.6397L125.603 86.0932L117.301 100.482L121.715 103.028C123.007 103.768 123.722 105.186 123.647 106.679C123.622 107.08 123.622 107.494 123.622 107.908C123.622 108.322 123.622 108.723 123.647 109.125C123.722 110.618 123.007 112.048 121.715 112.788L117.301 115.334H117.338ZM133.216 107.908C133.216 100.394 139.299 94.3098 146.811 94.3098C154.324 94.3098 160.419 100.394 160.419 107.908C160.419 115.422 154.324 121.519 146.811 121.519C139.299 121.519 133.216 115.422 133.216 107.908Z" fill="#EEDDFF"/>
<path d="M448.627 128.483C458.468 88.9459 434.401 48.9149 394.872 39.0718C355.344 29.2286 315.322 53.3007 305.481 92.8382C295.64 132.376 319.706 172.407 359.235 182.25C398.764 192.093 438.786 168.021 448.627 128.483Z" fill="#EEDDFF"/>
<path d="M431.614 124.318C439.168 94.1488 420.841 63.5673 390.679 56.0119C360.517 48.4564 329.942 66.7881 322.388 96.9568C314.834 127.125 333.162 157.707 363.324 165.262C393.486 172.818 424.061 154.486 431.614 124.318Z" fill="#FAF4FF"/>
<path d="M416.057 120.499C421.489 98.9482 408.426 77.073 386.88 71.6397C365.333 66.2065 343.463 79.2726 338.031 100.824C332.599 122.375 345.662 144.25 367.208 149.683C388.755 155.117 410.625 142.05 416.057 120.499Z" fill="#EEDDFF"/>
<path d="M398.576 116.108C401.597 104.202 394.396 92.1002 382.493 89.0786C370.589 86.0571 358.491 93.2595 355.47 105.166C352.449 117.072 359.65 129.173 371.553 132.195C383.457 135.216 395.555 128.014 398.576 116.108Z" fill="#FAF4FF"/>
<path d="M386.807 113.155C388.18 107.771 384.93 102.293 379.547 100.919C374.164 99.5459 368.687 102.797 367.314 108.181C365.941 113.565 369.192 119.043 374.574 120.416C379.957 121.79 385.434 118.538 386.807 113.155Z" fill="#EEDDFF"/>
<path d="M466.311 19.3036L381.822 103.811L383.853 105.842L468.342 21.3349L466.311 19.3036Z" fill="#C7C7C7"/>
<path d="M388.063 107.695L377.014 110.655L379.974 99.6035L388.063 107.695Z" fill="#A6A6A6"/>
<path d="M481.46 14.8277L465.62 30.6714L453.191 34.4599L456.979 22.0283L472.819 6.18457L469.032 18.6162L481.46 14.8277Z" fill="#A6A6A6"/>
<path d="M0 412.727L103.369 412.426L206.75 412.313L413.5 412.1L620.25 412.313L723.619 412.413L827 412.727L723.619 413.028L620.25 413.141L413.5 413.354L206.75 413.141L103.369 413.028L0 412.727Z" fill="#263238"/>
<path d="M261.594 420.128H88.757L75.375 302.711H248.212L261.594 420.128Z" fill="black"/>
<path d="M252.175 412.25H96.3815L84.793 310.576H240.586L252.175 412.25Z" fill="#FAF4FF"/>
<path d="M359.295 412.25H181.893V420.127H359.295V412.25Z" fill="black"/>
<path d="M359.282 412.25H269.998V420.127H359.282V412.25Z" fill="#263238"/>
<path d="M197.141 310.589L96.2932 411.459L93.2832 385.078L167.743 310.589H197.141Z" fill="#EEDDFF"/>
<path d="M249.54 389.092L226.388 412.25H196.99L246.53 362.699L249.54 389.092Z" fill="#EEDDFF"/>
<path d="M104.095 310.589L86.7745 327.913L85.7461 318.918L94.0738 310.589H104.095Z" fill="#EEDDFF"/>
<path d="M244.6 345.739L178.104 412.25H168.07L243.571 336.732L244.6 345.739Z" fill="#EEDDFF"/>
<path d="M117.163 310.589L88.1043 339.654L87.8535 337.396L114.655 310.589H117.163Z" fill="#EEDDFF"/>
<path d="M211.553 310.589L109.915 412.25H107.406L209.044 310.589H211.553Z" fill="#EEDDFF"/>
<path d="M242.905 330.873L161.547 412.249H159.039L242.655 328.615L242.905 330.873Z" fill="#EEDDFF"/>
<path d="M564.377 420.128H737.214L750.596 302.711H577.759L564.377 420.128Z" fill="black"/>
<path d="M573.795 412.25H729.601L741.176 310.576H585.383L573.795 412.25Z" fill="#FAF4FF"/>
<path d="M644.092 412.25H466.689V420.127H644.092V412.25Z" fill="black"/>
<path d="M555.974 412.25H466.689V420.127H555.974V412.25Z" fill="#263238"/>
<path d="M736.699 349.966L732.912 383.159L703.827 412.25H674.43L736.699 349.966Z" fill="#EEDDFF"/>
<path d="M681.453 310.589L579.827 412.25H573.795L576.805 385.868L652.068 310.589H681.453Z" fill="#EEDDFF"/>
<path d="M615.244 310.589L581.545 344.296L582.837 332.968L605.211 310.589H615.244Z" fill="#EEDDFF"/>
<path d="M726.101 310.589L624.463 412.25H614.43L716.068 310.589H726.101Z" fill="#EEDDFF"/>
<path d="M738.141 337.296L737.827 340.131L665.725 412.25H663.217L738.141 337.296Z" fill="#EEDDFF"/>
<path d="M736.624 310.589L634.999 412.25H632.49L734.128 310.589H736.624Z" fill="#EEDDFF"/>
<path d="M641.96 310.589L578.098 374.465L578.424 371.63L639.452 310.589H641.96Z" fill="#EEDDFF"/>
<path d="M249.341 243.3C270.788 286.591 302.518 329.795 311.034 337.961C333.885 359.901 394.888 375.67 412.86 376.159C420.623 376.372 431.359 324.789 425.64 318.768C419.921 312.747 344.596 296.376 340.557 293.278C337.748 291.132 301.828 256.974 278.012 236.689C248.413 211.487 243.723 231.922 249.354 243.288L249.341 243.3Z" fill="#F7A9A0"/>
<path d="M409.01 311.618L389.571 373.023C389.571 373.023 325.821 356.176 308.764 339.83C291.708 323.485 256.378 264.689 249.48 245.332C242.582 225.976 247.072 210.659 278.263 235.799C309.454 260.925 336.017 286.629 341.548 290.769C347.092 294.908 408.998 311.618 408.998 311.618H409.01Z" fill="#455A64"/>
<path d="M389.259 314.076C389.522 315.795 391.115 316.961 392.833 316.71C394.551 316.447 395.718 314.854 395.467 313.135C395.203 311.417 393.611 310.25 391.892 310.501C390.174 310.764 389.008 312.358 389.259 314.076Z" fill="#263238"/>
<path d="M373.643 309.573C373.907 311.291 375.499 312.458 377.218 312.207C378.936 311.956 380.102 310.351 379.851 308.632C379.588 306.913 377.995 305.747 376.277 305.998C374.559 306.261 373.392 307.854 373.643 309.573Z" fill="#263238"/>
<path d="M342.539 357.807C328.58 352.387 315.273 346.077 308.764 339.843C291.707 323.485 256.377 264.701 249.48 245.332C245.065 232.951 245.303 222.238 254.208 222.677L342.539 357.807Z" fill="#263238"/>
<path d="M147.691 412.224L308.601 412.262C309.241 406.379 276.131 242.384 260.378 221.824C257.005 217.433 245.88 216.204 236.424 217.383C233.803 217.697 231.319 218.199 229.15 218.876C229.099 218.901 229.012 218.926 228.911 218.939C226.716 219.654 224.848 220.532 223.556 221.561C197.256 242.56 146.424 410.794 147.691 412.237V412.224Z" fill="#455A64"/>
<path d="M247.285 258.893L254.133 245.571L262.95 255.205L260.793 264.789L252.076 265.918L247.285 258.893Z" fill="#263238"/>
<path d="M252.076 265.918L247.912 363.928L266.273 396.331L275.805 359.864L260.792 264.789L252.076 265.918Z" fill="#263238"/>
<path d="M251.826 243.789C249.293 243.689 232.487 230.542 227.32 220.294C226.969 219.591 228.273 212.353 229.427 203.497C230.117 198.115 230.744 192.106 230.932 186.587C230.97 185.458 234.757 187.665 234.757 187.665L241.843 189.635L265.296 196.171C265.296 196.171 261.509 207.636 261.245 217.27C261.233 218.073 261.283 218.826 261.408 219.541C261.408 219.641 261.446 219.767 261.446 219.917C261.998 224.245 255.978 243.965 251.826 243.802V243.789Z" fill="#F7A9A0"/>
<path d="M261.409 219.529C261.409 219.629 261.446 219.754 261.446 219.905C260.355 220.018 259.176 220.043 257.884 219.98C234.569 218.675 232.65 188.92 232.65 188.92L241.856 189.622L265.309 196.158C265.309 196.158 261.521 207.624 261.258 217.258C261.245 218.061 261.296 218.813 261.421 219.529H261.409Z" fill="#263238"/>
<path d="M225.489 145.992C221.978 158.361 229.139 193.737 238.031 201.489C250.924 212.729 271.693 213.432 281.149 198.002C290.317 183.049 280.159 137.111 270.263 130.099C255.677 119.774 230.682 127.728 225.489 145.992Z" fill="#F7A9A0"/>
<path d="M260.529 166.578C260.491 166.49 260.366 166.729 260.391 166.829C260.943 169.2 261.168 172.01 259.162 173.227C259.099 173.264 259.124 173.377 259.212 173.352C261.77 172.462 261.432 168.736 260.541 166.578H260.529Z" fill="#263238"/>
<path d="M257.908 164.508C254.02 164.972 255.237 172.725 258.836 172.298C262.386 171.872 261.169 164.119 257.908 164.508Z" fill="#263238"/>
<path d="M274.488 164.784C274.488 164.684 274.689 164.872 274.702 164.972C275.003 167.381 275.755 170.103 278.05 170.555C278.125 170.567 278.138 170.693 278.05 170.693C275.341 170.73 274.375 167.117 274.476 164.784H274.488Z" fill="#263238"/>
<path d="M276.245 161.937C280.057 161.033 281.587 168.736 278.051 169.576C274.576 170.404 273.046 162.702 276.245 161.937Z" fill="#263238"/>
<path d="M254.296 161.447C255.312 161.021 256.178 160.444 257.131 159.917C258.209 159.315 259.138 158.951 259.727 157.809C260.041 157.195 259.727 156.229 259.15 155.865C257.821 155.012 256.316 155.426 254.986 156.091C253.544 156.818 252.616 157.747 251.951 159.214C251.312 160.644 252.954 162.024 254.296 161.447Z" fill="#263238"/>
<path d="M278.626 157.571C277.523 157.571 276.507 157.37 275.416 157.257C274.187 157.119 273.196 157.145 272.205 156.317C271.678 155.865 271.603 154.861 271.979 154.297C272.87 153.005 274.425 152.792 275.905 152.892C277.523 153.005 278.727 153.494 279.906 154.598C281.047 155.664 280.056 157.571 278.614 157.571H278.626Z" fill="#263238"/>
<path d="M261.808 189.233C262.473 189.71 263.163 190.387 264.053 190.325C264.906 190.262 265.822 189.735 266.537 189.309C266.612 189.271 266.7 189.334 266.662 189.422C266.185 190.438 264.956 191.228 263.815 191.203C262.699 191.178 262.009 190.325 261.595 189.371C261.533 189.233 261.708 189.158 261.808 189.221V189.233Z" fill="#263238"/>
<path d="M270.965 183.325C270.965 183.325 269.673 185.796 267.553 186.95C266.776 187.377 265.898 187.64 264.932 187.527C262.938 187.327 262.612 185.571 262.725 184.015C262.813 182.735 263.226 181.569 263.226 181.569C263.226 181.569 266.437 183.752 270.977 183.325H270.965Z" fill="#FAF4FF"/>
<path d="M263.214 181.644C264.882 183.513 267.039 184.341 269.246 184.429C270.225 184.466 271.24 184.341 272.206 184.103C272.394 184.065 272.595 184.015 272.758 183.952C272.934 183.902 273.084 183.852 273.272 183.789C273.548 183.701 273.661 183.45 273.673 183.174C273.661 183.074 273.648 182.999 273.611 182.911L273.573 182.685C273.335 180.829 272.708 178.044 272.708 178.044C273.435 178.282 277.122 179.286 276.922 178.332C275.191 170.404 273.26 161.598 269.861 154.071C269.76 153.82 269.372 153.946 269.434 154.197C270.801 161.874 273.51 169.262 275.003 176.965C273.837 176.726 271.918 176.225 270.964 176.4C270.714 176.513 272.256 181.757 272.306 182.61C272.306 182.61 272.306 182.647 272.306 182.698C269.259 183.588 266.776 183.011 263.427 181.406C263.226 181.293 263.063 181.493 263.239 181.656L263.214 181.644Z" fill="#263238"/>
<path d="M229.653 173.578C238.094 172.311 237.504 156.731 237.504 156.731C237.504 156.731 251.664 152.24 252.178 141C252.178 141 267.228 147.786 277.487 142.279C287.746 136.772 283.683 124.855 282.102 122.409C280.522 119.963 275.23 125.708 275.23 125.708C275.23 125.708 273.536 118.871 271.58 118.445C269.623 118.006 268.231 122.497 268.231 122.497C268.231 122.497 253.595 119.85 240.991 122.058C228.386 124.265 223.984 137.939 223.984 137.939C223.984 137.939 217.425 140.36 215.92 145.428C214.415 150.496 224.285 174.381 229.666 173.578H229.653Z" fill="#263238"/>
<path d="M234.106 157.345C245.544 157.195 251.903 148.652 251.965 137.663C251.965 137.525 252.166 137.512 252.178 137.65C253.32 147.711 245.594 160.243 234.081 157.86C233.805 157.797 233.817 157.358 234.118 157.345H234.106Z" fill="#263238"/>
<path d="M224.247 137.701C224.373 137.65 224.46 137.839 224.348 137.914C221.425 139.833 217.976 141.451 216.195 144.625C214.038 148.476 215.267 152.93 216.835 156.705C219.268 162.576 223.557 170.028 229.527 172.813C229.866 172.976 229.615 173.477 229.264 173.339C222.178 170.442 216.873 160.732 214.929 153.695C212.746 145.817 217.073 140.51 224.235 137.701H224.247Z" fill="#263238"/>
<path d="M264.933 142.342C270.314 144.6 277.663 143.659 282.015 139.557C287.308 134.564 285.063 127.953 281.677 122.647C281.514 122.384 281.865 122.032 282.103 122.271C286.33 126.749 287.722 134.288 283.508 139.281C279.168 144.437 270.477 145.566 264.557 143.082C264.056 142.869 264.432 142.129 264.933 142.329V142.342Z" fill="#263238"/>
<path d="M258.537 180.666C253.896 180.841 249.532 177.868 248.165 173.214C246.547 167.707 249.695 161.911 255.201 160.281C260.706 158.65 266.501 161.811 268.131 167.318C269.749 172.825 266.601 178.621 261.095 180.252C260.242 180.502 259.39 180.64 258.537 180.666ZM257.797 161.259C257.069 161.284 256.317 161.41 255.589 161.623C250.824 163.028 248.09 168.058 249.494 172.825C250.899 177.592 255.928 180.327 260.694 178.922C265.46 177.517 268.194 172.487 266.789 167.72C265.598 163.693 261.823 161.109 257.797 161.259Z" fill="#455A64"/>
<path d="M282.101 176.852C278.126 177.002 274.363 173.063 273.523 167.694C273.096 164.985 273.473 162.313 274.576 160.168C275.718 157.947 277.486 156.542 279.581 156.216C281.675 155.89 283.782 156.68 285.55 158.449C287.256 160.155 288.422 162.589 288.836 165.298C289.714 170.969 287.005 176.112 282.791 176.777C282.565 176.814 282.34 176.839 282.114 176.839L282.101 176.852ZM280.308 157.546C280.132 157.546 279.957 157.571 279.781 157.596C278.151 157.847 276.734 158.989 275.806 160.807C274.84 162.702 274.514 165.073 274.89 167.481C275.655 172.399 279.091 175.949 282.565 175.409C286.027 174.87 288.222 170.429 287.457 165.524C287.08 163.103 286.052 160.945 284.547 159.44C283.268 158.148 281.775 157.483 280.308 157.546Z" fill="#455A64"/>
<path d="M267.956 168.56L266.902 167.644C268.257 166.089 271.593 163.768 274.515 166.064L273.662 167.155C271.041 165.098 268.081 168.422 267.956 168.56Z" fill="#455A64"/>
<path d="M222.567 178.345L221.25 177.906C221.451 177.291 223.344 171.859 226.342 170.893C229.139 169.99 247.838 168.836 248.629 168.798L248.716 170.191C243.361 170.517 228.938 171.52 226.781 172.223C224.799 172.863 223.081 176.864 222.579 178.357L222.567 178.345Z" fill="#455A64"/>
<path d="M235.033 175.158C235.033 175.158 226.567 163.994 221.463 167.067C216.371 170.128 223.055 186.536 229.251 188.569C235.447 190.601 237.453 184.906 237.453 184.906L235.033 175.171V175.158Z" fill="#F7A9A0"/>
<path d="M223.494 171.709C223.394 171.709 223.381 171.847 223.469 171.872C227.821 173.44 230.229 177.329 231.972 181.381C230.63 179.85 228.862 179.047 226.805 180.641C226.692 180.728 226.805 180.891 226.93 180.866C228.674 180.427 229.953 180.678 231.195 182.033C232.072 182.999 232.7 184.228 233.339 185.357C233.552 185.734 234.242 185.495 234.079 185.069C234.079 185.031 234.054 185.006 234.042 184.968C233.941 179.499 229.389 172.022 223.507 171.696L223.494 171.709Z" fill="#263238"/>
<path d="M261.533 220.369L253.155 240.929L227.771 214.962L220.547 223.267C220.547 223.267 245.342 264.488 245.505 262.631L253.983 244.994L266.136 257.3L265.208 226.465L261.533 220.369Z" fill="#455A64"/>
<path d="M266.537 242.033C266.21 236.953 266.035 231.822 265.47 226.754C265.445 226.578 265.169 226.49 265.119 226.704C264.091 231.609 265.433 251.053 265.395 255.719C265.383 255.707 265.358 255.682 265.345 255.669C264.843 255.142 254.083 244.843 253.97 245.006C252.139 247.804 245.918 260.649 245.492 261.816C241.566 255.268 226.541 231.458 221.888 225.274C221.75 225.098 221.474 225.236 221.587 225.449C225.049 232.361 244.94 264.413 245.253 264.325C245.466 264.488 253.192 248.669 254.12 245.684C255.939 247.929 266.8 259.545 266.838 258.793C267.101 253.687 266.863 247.151 266.549 242.058L266.537 242.033Z" fill="#263238"/>
<path d="M314.133 434.855L188.829 447.261L188.428 350.092L313.732 337.685L314.133 434.855Z" fill="#8218EA"/>
<path d="M229.326 335.302L188.314 339.353L188.427 350.091L232.311 345.751L229.326 335.302Z" fill="#8218EA"/>
<g opacity="0.1">
<path d="M314.133 434.855L188.829 447.261L188.428 350.092L313.732 337.685L314.133 434.855Z" fill="black"/>
<path d="M229.326 335.302L188.314 339.353L188.427 350.091L232.311 345.751L229.326 335.302Z" fill="black"/>
</g>
<path d="M314.044 434.867L193.193 446.835L175.91 349.402L304.726 338.576L314.044 434.867Z" fill="#EEDDFF"/>
<path d="M314.044 434.867L190.12 447.136L171.596 353.491L301.854 340.595L314.044 434.867Z" fill="#FAF4FF"/>
<path d="M313.82 434.88L188.239 447.324L169.916 355.699L295.496 343.255L313.82 434.88Z" fill="#8218EA"/>
<path d="M206.7 236.2C163.87 275.063 132.967 342.076 133.908 360.127C135.162 383.974 178.355 424.756 206.486 436.561C213.61 439.546 241.127 381.29 230.717 378.266C219.731 375.068 194.321 352.023 193.092 350.982C190.446 348.749 210.926 297.781 219.492 266.846C229.162 231.91 224.735 219.854 206.712 236.213L206.7 236.2Z" fill="#F7A9A0"/>
<path d="M190.598 427.642C217.838 447.311 254.874 451.577 261.27 450.937C266.713 450.397 269.523 450.071 269.523 450.071C279.318 449.306 282.829 444.652 282.829 444.652C282.829 444.652 294.418 447.098 297.052 440.337C300.037 432.772 283.181 430.815 274.577 424.079C254.849 408.637 231.12 381.177 225.877 376.146L190.61 427.629L190.598 427.642Z" fill="#F7A9A0"/>
<path d="M242.519 422.436C248.414 426.864 254.095 431.367 260.554 434.98C267.653 438.932 275.14 441.553 282.69 444.414C282.929 444.501 282.828 444.84 282.578 444.79C268.079 441.792 252.603 433.349 242.105 422.937C241.855 422.686 242.218 422.222 242.507 422.448L242.519 422.436Z" fill="#263238"/>
<path d="M231.471 432.998C237.453 436.987 248.001 443.937 269.585 449.846C269.66 449.871 269.648 449.996 269.56 449.984C255.036 448.014 242.457 442.67 231.094 433.613C230.743 433.337 231.082 432.735 231.471 432.998Z" fill="#263238"/>
<path d="M251.963 403.97C250.195 400.947 251.763 399.994 257.57 402.277C263.452 404.572 284.409 418.522 288.66 410.769C292.937 402.992 262.95 383.736 252.992 380.675C243.034 377.589 225.852 376.146 225.852 376.146C230.931 381.064 242.118 394.185 251.963 403.958V403.97Z" fill="#F7A9A0"/>
<path d="M191.575 432.032L225.701 374.741C225.701 374.741 193.77 352.35 193.62 350.104C193.469 347.859 216.057 286.127 222.892 255.757C229.727 225.387 226.341 210.885 196.441 244.755C166.542 278.625 128.202 335.615 130.234 360.039C132.265 384.463 191.588 432.057 191.588 432.057L191.575 432.032Z" fill="#455A64"/>
<path d="M217.21 284.785C215.968 286.955 214.638 289.087 213.522 291.32C213.159 292.048 212.795 292.776 212.431 293.503C212.707 292.625 212.996 291.747 213.271 290.869C215.027 285.362 216.72 279.83 218.2 274.247C218.238 274.109 218.025 274.022 217.962 274.16C214.011 283.643 210.763 293.415 207.527 303.162C204.267 312.972 201.206 322.857 198.284 332.78C196.654 338.325 194.973 343.882 193.694 349.514C193.669 349.64 193.844 349.677 193.882 349.565C195.763 344.735 197.356 339.78 198.986 334.875C200.617 329.958 202.26 325.053 203.865 320.135C206.411 312.282 208.932 304.429 211.44 296.564C212.582 295.146 213.347 293.466 214.174 291.835C215.328 289.552 216.269 287.181 217.297 284.835C217.322 284.772 217.235 284.722 217.197 284.785H217.21Z" fill="#263238"/>
<path d="M185.517 417.644C184.978 419.287 185.881 421.056 187.524 421.595C189.167 422.134 190.936 421.231 191.475 419.588C192.014 417.945 191.111 416.176 189.468 415.636C187.825 415.097 186.057 416 185.517 417.644Z" fill="#263238"/>
<path d="M173.59 406.604C173.05 408.248 173.953 410.017 175.596 410.556C177.239 411.095 179.008 410.192 179.547 408.549C180.086 406.906 179.183 405.137 177.54 404.597C175.897 404.058 174.129 404.961 173.59 406.604Z" fill="#263238"/>
<path d="M152.145 395.302C156.095 398.676 159.808 402.277 163.482 405.915C165.301 407.746 167.132 409.578 168.925 411.447C170.731 413.303 172.487 415.198 174.256 417.104C170.067 414.006 166.292 410.443 162.604 406.805C158.942 403.142 155.393 399.366 152.145 395.302Z" fill="#263238"/>
<path d="M589.023 136.684C591.707 128.054 603.446 109.061 622.397 114.794C649.437 122.973 648.408 176.501 660.561 194.352C682.585 226.716 680.59 256.497 659.759 259.32C636.419 262.481 616.515 235.861 622.372 182.898C626.034 149.781 618.07 134.201 611.36 134.564C604.65 134.928 600.248 142.944 600.248 142.944L589.023 136.684Z" fill="#263238"/>
<path d="M590.252 133.473C591.983 129.522 594.215 125.771 596.874 122.321C599.558 118.896 602.831 115.81 606.794 113.703C610.707 111.545 615.386 110.63 619.888 111.219C624.328 111.784 628.655 113.389 632.354 115.986C636.042 118.595 638.976 122.12 641.184 125.934C643.379 129.772 645.022 133.875 646.276 138.039C648.684 146.419 649.8 155.05 650.289 163.655C648.859 155.15 647.116 146.708 644.47 138.616C643.027 134.615 641.41 130.688 639.215 127.113C637.058 123.538 634.323 120.301 630.95 117.968C627.614 115.572 623.651 114.092 619.574 113.502C615.536 112.85 611.372 113.603 607.647 115.396C603.922 117.203 600.599 119.938 597.777 123.099C596.322 124.654 595.018 126.348 593.751 128.066C592.522 129.823 591.356 131.629 590.252 133.486V133.473Z" fill="#263238"/>
<path d="M623.926 164.621C623.713 169.915 622.91 175.158 622.321 180.402C621.643 185.633 620.991 190.864 620.502 196.108C620.038 201.339 619.662 206.582 619.699 211.814C619.712 217.032 620.05 222.263 621.066 227.331C622.045 232.399 623.725 237.342 626.484 241.632C629.269 245.859 632.981 249.685 637.082 252.734C641.233 255.769 646.049 257.927 651.179 258.768C653.737 259.207 656.346 259.332 658.955 259.081C660.259 258.968 661.551 258.755 662.83 258.454C664.097 258.153 665.389 257.802 666.53 257.137C664.31 258.605 661.651 259.269 659.043 259.721C656.409 260.147 653.7 260.21 651.028 259.947C648.357 259.658 645.711 258.993 643.177 258.053C640.644 257.087 638.248 255.795 636.003 254.289C633.759 252.784 631.677 251.028 629.77 249.121L628.366 247.666L627.036 246.148C626.146 245.132 625.305 244.028 624.553 242.886C621.53 238.308 619.749 233.064 618.683 227.795C616.677 217.17 617.291 206.394 618.621 195.895C619.285 190.626 620.201 185.42 621.154 180.214C622.157 175.02 623.186 169.852 623.938 164.621H623.926Z" fill="#263238"/>
<path d="M587.43 136.685C587.355 134.201 589.148 131.014 590.754 130.575C592.359 130.136 604.248 135.242 605.277 138.29C606.293 141.339 601.013 144.036 601.013 144.036L587.443 136.685H587.43Z" fill="#455A64"/>
<path d="M596.61 246.223C589.549 261.603 536.961 333.909 510.862 335.879C483.546 337.949 418.016 293.29 411.745 289.577C394.525 279.378 442.535 232.374 450.837 240.716C464.709 254.666 497.881 280.971 505.996 279.19C523.04 275.452 558.558 245.621 583.742 230.103C598.942 220.733 604.436 229.213 596.61 246.223Z" fill="#AD6359"/>
<path d="M415.859 291.973C412.886 290.003 388.994 276.719 380.027 263.911C375.274 257.124 364.325 237.015 368.087 233.603C371.524 230.492 375.876 235.272 375.876 235.272C375.876 235.272 371.122 226.227 375.951 221.962C380.779 217.697 387.715 226.127 387.715 226.127C387.715 226.127 383.514 216.493 388.631 212.579C393.748 208.665 399.304 218.324 399.304 218.324C399.304 218.324 395.052 209.694 400.62 208.238C407.318 206.495 413.363 223.304 419.859 229.765C421.339 231.232 451.891 257.375 451.891 257.375L415.859 291.948V291.973Z" fill="#AD6359"/>
<path d="M399.68 218.324C404.158 230.668 408.246 235.297 418.455 243.225C418.656 243.376 418.468 243.714 418.242 243.564C407.532 236.715 401.562 231.647 399.066 218.5C398.941 217.86 399.467 217.722 399.68 218.312V218.324Z" fill="#263238"/>
<path d="M388.093 226.089C393.862 238.508 398.252 243.564 408.335 252.659C408.473 252.784 408.272 253.047 408.122 252.922C397.486 244.831 391.642 239.65 387.516 226.478C387.328 225.889 387.829 225.525 388.093 226.089Z" fill="#263238"/>
<path d="M376.39 235.698C382.837 247.315 387.415 253.072 398.338 260.637C398.602 260.812 398.364 261.214 398.088 261.051C386.198 254.415 380.429 247.277 376.064 235.924C375.763 235.146 375.989 234.958 376.39 235.686V235.698Z" fill="#263238"/>
<path d="M462.238 253.624C462.238 253.624 455.453 238.634 451.026 232.7C446.599 226.767 421.954 210.76 418.192 215.878C413.338 222.501 425.742 234.544 432.59 239.65C432.59 239.65 421.34 254.954 428.376 265.529C435.412 276.104 462.238 253.612 462.238 253.612V253.624Z" fill="#AD6359"/>
<path d="M417.452 218.136C417.376 227.369 426.795 233.49 433.066 238.947C433.543 239.361 433.38 239.888 432.991 240.189C428.702 246.913 424.613 257.664 427.861 265.429C427.962 265.654 427.648 265.818 427.523 265.604C422.907 257.739 426.068 246.863 431.235 239.788C424.713 234.293 415.533 227.745 417.364 218.123C417.364 218.073 417.452 218.073 417.452 218.123V218.136Z" fill="#263238"/>
<path d="M595.882 250.601C587.693 266.922 539.971 336.544 514.186 337.648C488.4 338.752 434.383 316.736 434.383 316.736L474.403 255.782C474.403 255.782 502.108 275.778 506.447 275.941C510.787 276.104 568.968 237.655 582.563 229.213C596.158 220.77 609.202 224.057 595.882 250.601Z" fill="#8218EA"/>
<path d="M470.916 317.188C470.677 315.293 470.828 313.449 471.054 311.618C471.33 309.799 471.693 307.98 472.433 306.224C472.672 308.118 472.521 309.962 472.295 311.793C472.019 313.612 471.656 315.431 470.916 317.188Z" fill="#FAF4FF"/>
<path d="M550.582 304.982C550.343 303.087 550.494 301.243 550.72 299.412C550.996 297.593 551.359 295.774 552.099 294.018C552.338 295.912 552.187 297.756 551.961 299.588C551.685 301.407 551.322 303.225 550.582 304.982Z" fill="#FAF4FF"/>
<path d="M554.997 258.617C553.103 258.856 551.259 258.705 549.428 258.479C547.61 258.203 545.791 257.839 544.035 257.099C545.929 256.861 547.773 257.012 549.604 257.237C551.422 257.513 553.241 257.877 554.997 258.617Z" fill="#FAF4FF"/>
<path d="M490.795 279.642C488.902 279.88 487.058 279.73 485.227 279.504C483.408 279.228 481.59 278.864 479.834 278.124C481.728 277.886 483.571 278.036 485.403 278.262C487.221 278.538 489.04 278.902 490.795 279.642Z" fill="#FAF4FF"/>
<path d="M500.164 336.28C500.089 336.381 500.013 336.481 499.926 336.569C499.825 336.556 499.712 336.544 499.6 336.519C499.788 336.443 499.976 336.356 500.164 336.28Z" fill="#FAF4FF"/>
<path d="M454.9 295.31C456.079 293.805 457.471 292.6 458.939 291.471C460.419 290.38 461.961 289.351 463.73 288.636C462.563 290.142 461.159 291.346 459.691 292.475C458.211 293.566 456.669 294.595 454.9 295.31Z" fill="#FAF4FF"/>
<path d="M521.646 281.461C522.825 279.955 524.23 278.751 525.685 277.622C527.165 276.531 528.707 275.502 530.476 274.787C529.309 276.292 527.905 277.497 526.437 278.626C524.958 279.717 523.415 280.746 521.646 281.461Z" fill="#FAF4FF"/>
<path d="M499.498 300.566C501.003 301.745 502.207 303.15 503.336 304.605C504.427 306.086 505.455 307.629 506.17 309.397C504.665 308.231 503.461 306.826 502.332 305.358C501.241 303.878 500.213 302.335 499.498 300.566Z" fill="#FAF4FF"/>
<path d="M562.871 271.977C564.376 273.156 565.58 274.561 566.709 276.016C567.8 277.497 568.828 279.04 569.543 280.808C568.038 279.642 566.834 278.237 565.706 276.769C564.614 275.289 563.586 273.746 562.871 271.977Z" fill="#FAF4FF"/>
<path d="M483.069 265.692C478.028 274.8 473.174 284.007 467.731 292.901C462.363 301.67 456.845 310.464 450.574 318.618C450.461 318.768 450.185 318.618 450.285 318.429C455.101 309.335 460.607 300.553 465.962 291.772C471.355 282.916 477.112 274.285 482.505 265.429C482.706 265.09 483.27 265.341 483.069 265.692Z" fill="#263238"/>
<path d="M595.894 250.601C587.705 266.922 539.971 336.544 514.185 337.648C507.927 337.911 500.001 336.82 491.598 335.001C511.639 313.562 567.688 253.098 593.637 225.111C601.513 224.634 605.338 231.76 595.894 250.601Z" fill="#263238"/>
<path d="M548.325 412.225H699.678C699.678 412.225 640.832 263.208 609.491 233.227C600.975 225.073 579.93 225.675 569.62 239.424C561.167 250.689 537.702 295.561 536.636 311.693C535.607 327.863 548.224 343.757 548.224 343.757L548.337 412.225H548.325Z" fill="#8218EA"/>
<path d="M567.664 356.389C567.425 354.495 567.576 352.651 567.802 350.819C568.078 349 568.441 347.182 569.181 345.425C569.42 347.32 569.269 349.164 569.043 350.995C568.767 352.814 568.404 354.633 567.664 356.389Z" fill="#FAF4FF"/>
<path d="M671.66 384.439C671.422 382.545 671.572 380.7 671.798 378.869C672.074 377.05 672.437 375.231 673.177 373.475C673.416 375.369 673.265 377.213 673.04 379.045C672.764 380.864 672.4 382.683 671.66 384.439Z" fill="#FAF4FF"/>
<path d="M606.369 408.951C606.131 407.056 606.281 405.212 606.507 403.381C606.783 401.562 607.146 399.743 607.886 397.987C608.125 399.881 607.974 401.725 607.748 403.557C607.473 405.376 607.109 407.194 606.369 408.951Z" fill="#FAF4FF"/>
<path d="M591.318 296.464C591.08 294.57 591.23 292.726 591.456 290.894C591.732 289.075 592.096 287.256 592.836 285.5C593.074 287.394 592.923 289.239 592.698 291.07C592.422 292.889 592.058 294.708 591.318 296.464Z" fill="#FAF4FF"/>
<path d="M631.539 341.75C631.3 339.856 631.451 338.012 631.677 336.18C631.953 334.361 632.316 332.542 633.056 330.786C633.295 332.68 633.144 334.524 632.918 336.356C632.642 338.175 632.279 339.994 631.539 341.75Z" fill="#FAF4FF"/>
<path d="M550.582 304.982C550.343 303.087 550.494 301.243 550.72 299.412C550.996 297.593 551.359 295.774 552.099 294.018C552.338 295.912 552.187 297.756 551.961 299.588C551.685 301.407 551.322 303.225 550.582 304.982Z" fill="#FAF4FF"/>
<path d="M603.809 349.527C601.915 349.766 600.072 349.615 598.241 349.389C596.422 349.113 594.603 348.75 592.848 348.01C594.741 347.771 596.585 347.909 598.416 348.147C600.235 348.423 602.053 348.787 603.809 349.527Z" fill="#FAF4FF"/>
<path d="M649.461 306.236C647.568 306.474 645.724 306.324 643.893 306.098C642.074 305.822 640.256 305.458 638.5 304.718C640.394 304.48 642.237 304.63 644.068 304.856C645.887 305.132 647.706 305.496 649.461 306.236Z" fill="#FAF4FF"/>
<path d="M568.002 400.433C566.109 400.671 564.265 400.521 562.434 400.295C560.615 400.019 558.797 399.655 557.041 398.915C558.935 398.677 560.778 398.827 562.61 399.053C564.428 399.329 566.247 399.693 568.002 400.433Z" fill="#FAF4FF"/>
<path d="M652.922 362.937C651.029 363.176 649.185 363.025 647.354 362.799C645.535 362.523 643.717 362.16 641.961 361.419C643.855 361.181 645.698 361.332 647.529 361.557C649.348 361.833 651.167 362.197 652.922 362.937Z" fill="#FAF4FF"/>
<path d="M581.271 383.51C582.45 382.005 583.843 380.801 585.31 379.672C586.79 378.58 588.332 377.552 590.101 376.837C588.934 378.342 587.53 379.546 586.062 380.675C584.583 381.767 583.04 382.795 581.271 383.51Z" fill="#FAF4FF"/>
<path d="M638.5 394.449C639.679 392.944 641.071 391.739 642.538 390.61C644.018 389.519 645.561 388.49 647.329 387.775C646.163 389.281 644.758 390.485 643.291 391.614C641.811 392.705 640.268 393.734 638.5 394.449Z" fill="#FAF4FF"/>
<path d="M653.65 340.897C654.829 339.391 656.221 338.187 657.689 337.058C659.169 335.967 660.711 334.938 662.48 334.223C661.313 335.728 659.909 336.933 658.441 338.062C656.961 339.153 655.419 340.182 653.65 340.897Z" fill="#FAF4FF"/>
<path d="M563.287 321.653C564.466 320.148 565.858 318.944 567.326 317.815C568.805 316.723 570.348 315.695 572.116 314.98C570.95 316.485 569.545 317.689 568.078 318.818C566.598 319.91 565.055 320.938 563.287 321.653Z" fill="#FAF4FF"/>
<path d="M621.807 284.798C622.986 283.292 624.378 282.088 625.845 280.959C627.325 279.868 628.868 278.839 630.636 278.124C629.47 279.629 628.065 280.834 626.598 281.963C625.118 283.054 623.575 284.083 621.807 284.798Z" fill="#FAF4FF"/>
<path d="M552.226 365.735C551.072 367.215 549.692 368.407 548.25 369.523V367.993C549.479 367.115 550.783 366.324 552.226 365.735Z" fill="#FAF4FF"/>
<path d="M591.996 261.189C593.175 259.683 594.58 258.479 596.035 257.35C597.514 256.259 599.057 255.23 600.825 254.515C599.659 256.02 598.254 257.225 596.787 258.354C595.307 259.445 593.764 260.474 591.996 261.189Z" fill="#FAF4FF"/>
<path d="M542.092 329.293C543.597 330.472 544.801 331.877 545.93 333.332C547.021 334.813 548.049 336.356 548.764 338.124C547.259 336.958 546.055 335.553 544.926 334.085C543.835 332.605 542.807 331.062 542.092 329.293Z" fill="#FAF4FF"/>
<path d="M562.873 271.977C564.378 273.156 565.582 274.561 566.711 276.017C567.802 277.497 568.83 279.04 569.545 280.809C568.04 279.642 566.836 278.237 565.707 276.769C564.616 275.289 563.588 273.746 562.873 271.977Z" fill="#FAF4FF"/>
<path d="M615.361 364.656C616.866 365.835 618.07 367.24 619.199 368.695C620.29 370.176 621.319 371.719 622.034 373.487C620.529 372.321 619.325 370.916 618.196 369.448C617.105 367.968 616.076 366.425 615.361 364.656Z" fill="#FAF4FF"/>
<path d="M669.854 401.048C671.359 402.227 672.563 403.632 673.691 405.087C674.782 406.567 675.811 408.11 676.526 409.879C675.021 408.712 673.817 407.307 672.688 405.84C671.597 404.359 670.568 402.816 669.854 401.048Z" fill="#FAF4FF"/>
<path d="M614.357 244.919C615.862 246.098 617.066 247.503 618.195 248.958C619.286 250.438 620.315 251.981 621.03 253.75C619.525 252.583 618.321 251.178 617.192 249.711C616.101 248.23 615.072 246.687 614.357 244.919Z" fill="#FAF4FF"/>
<path d="M604.588 315.557C606.093 316.736 607.297 318.141 608.426 319.596C609.517 321.076 610.545 322.619 611.26 324.388C609.755 323.222 608.551 321.817 607.422 320.349C606.331 318.869 605.303 317.326 604.588 315.557Z" fill="#FAF4FF"/>
<path d="M599.419 234.67C598.579 236.903 585.636 250.438 575.176 248.582C571.765 247.967 574.273 229.213 574.273 229.213L574.135 227.783L572.316 207.799L597.011 196.133L600.56 194.628C600.56 194.628 600.698 200.122 600.799 206.971C600.799 207.285 600.811 207.611 600.811 207.95C600.824 208.339 600.849 208.703 600.849 209.066C600.874 210.095 600.899 211.136 600.899 212.177C600.899 212.968 600.912 213.746 600.899 214.573C600.899 215.414 600.874 216.217 600.874 217.057C600.661 225.286 599.758 233.729 599.419 234.682V234.67Z" fill="#AD6359"/>
<path d="M600.81 206.971C593.248 221.699 580.091 226.403 574.147 227.783L572.328 207.799L597.023 196.133L600.572 194.628C600.572 194.628 600.71 200.122 600.81 206.971Z" fill="#263238"/>
<path d="M546.92 178.383C544.123 213.482 564.83 219.115 572.392 219.704C579.265 220.244 602.718 221.21 609.127 186.587C615.523 151.964 600.097 139.57 584.457 137.513C568.818 135.443 549.717 143.283 546.933 178.383H546.92Z" fill="#AD6359"/>
<path d="M552.84 170.919C553.668 170.831 554.42 170.605 555.223 170.442C556.138 170.254 556.878 170.191 557.556 169.489C557.919 169.112 557.894 168.347 557.568 167.958C556.803 167.055 555.624 167.017 554.508 167.205C553.304 167.406 552.426 167.87 551.636 168.786C550.858 169.677 551.749 171.031 552.84 170.919Z" fill="#263238"/>
<path d="M576.191 171.42C575.364 171.32 574.624 171.082 573.821 170.894C572.918 170.68 572.165 170.605 571.501 169.903C571.149 169.526 571.175 168.761 571.513 168.372C572.303 167.481 573.482 167.469 574.586 167.67C575.79 167.895 576.655 168.385 577.433 169.313C578.198 170.216 577.282 171.558 576.191 171.42Z" fill="#263238"/>
<path d="M570.698 180.264C570.723 180.176 570.886 180.39 570.874 180.477C570.723 182.873 570.949 185.633 573.081 186.499C573.144 186.524 573.131 186.649 573.056 186.637C570.422 186.173 570.159 182.497 570.686 180.264H570.698Z" fill="#263238"/>
<path d="M572.918 177.831C576.781 177.668 576.831 185.408 573.244 185.558C569.72 185.709 569.669 177.969 572.918 177.831Z" fill="#263238"/>
<path d="M574.435 178.232C575.113 178.671 575.777 179.436 576.593 179.512C577.533 179.6 578.248 178.784 578.85 178.006C578.913 177.931 578.976 177.994 578.988 178.094C579.026 179.574 578.461 181.105 576.869 181.331C575.426 181.544 574.373 180.239 573.996 178.746C573.921 178.471 574.159 178.057 574.435 178.232Z" fill="#263238"/>
<path d="M557.392 179.738C557.367 179.65 557.204 179.85 557.216 179.951C557.329 182.347 557.053 185.107 554.896 185.934C554.833 185.96 554.833 186.085 554.921 186.072C557.567 185.659 557.893 181.996 557.404 179.738H557.392Z" fill="#263238"/>
<path d="M555.222 177.266C551.359 177.028 551.171 184.768 554.746 184.981C558.257 185.194 558.458 177.467 555.222 177.266Z" fill="#263238"/>
<path d="M553.592 177.73C552.965 178.119 552.35 178.859 551.61 178.884C550.757 178.922 550.155 178.069 549.641 177.253C549.591 177.166 549.528 177.228 549.516 177.329C549.44 178.809 549.892 180.365 551.297 180.678C552.588 180.967 553.567 179.725 553.955 178.257C554.031 177.981 553.83 177.567 553.579 177.718L553.592 177.73Z" fill="#263238"/>
<path d="M570.874 199.232C570.335 199.821 569.796 200.624 568.93 200.737C568.103 200.85 567.099 200.524 566.322 200.273C566.246 200.248 566.171 200.335 566.221 200.398C566.886 201.289 568.228 201.791 569.332 201.54C570.41 201.289 570.899 200.335 571.1 199.319C571.125 199.181 570.95 199.131 570.862 199.219L570.874 199.232Z" fill="#263238"/>
<path d="M560.904 190.513C560.904 190.513 560.39 194.088 560.377 195.782C560.377 195.945 560.791 196.02 561.356 196.058C561.381 196.058 561.393 196.083 561.418 196.058C564.403 196.535 567.401 195.531 569.232 193.097C569.345 192.934 569.131 192.759 568.981 192.859C566.749 194.477 564.29 194.891 561.644 194.916C561.531 194.452 562.735 188.82 562.459 188.795C561.531 188.707 559.713 189.334 558.621 189.648C559.474 182.159 561.519 174.883 562.271 167.419C562.296 167.155 561.907 167.067 561.832 167.306C559.148 174.795 557.969 183.375 556.891 191.09C556.753 192.044 560.227 190.802 560.904 190.513Z" fill="#263238"/>
<path d="M561.719 195.706C561.719 195.706 563.349 197.964 565.619 198.805C566.447 199.119 567.35 199.244 568.303 199.006C570.247 198.516 570.322 196.735 569.984 195.205C569.708 193.95 569.143 192.859 569.143 192.859C569.143 192.859 566.271 195.481 561.731 195.706H561.719Z" fill="#263238"/>
<path d="M565.607 198.805C566.435 199.118 567.338 199.244 568.291 199.006C570.235 198.516 570.311 196.735 569.972 195.205C567.89 195.393 565.808 196.785 565.607 198.805Z" fill="#EB9481"/>
<path d="M607.572 190.087C599.846 186.398 599.545 178.295 599.545 178.295C589.951 174.142 584.783 166.628 584.257 165.863C584.495 166.591 586.163 171.809 587.091 174.444C564.892 170.191 558.095 153.155 558.095 153.155C550.858 160.318 549.403 164.91 548.35 167.193C548.35 167.193 548.249 153.557 555.298 144.462C563.926 133.323 592.898 130.437 606.23 145.077C620.59 160.87 607.559 190.074 607.559 190.074L607.572 190.087Z" fill="#263238"/>
<path d="M570.223 170.68C573.747 172.687 577.685 174.055 581.598 174.92C581.636 174.92 581.636 174.883 581.598 174.87C575.353 173.064 569.747 169.764 565.332 164.935C563.463 162.89 561.87 160.645 560.566 158.211C559.211 155.664 557.882 152.629 557.656 149.731C557.644 149.505 557.293 149.543 557.318 149.756C557.556 152.829 557.819 155.652 559.036 158.525C560.202 161.247 561.87 163.781 563.94 165.901C565.783 167.795 567.915 169.376 570.211 170.693" fill="#263238"/>
<path d="M603.333 188.832C603.333 188.832 610.934 177.793 615.938 180.49C620.942 183.2 615.286 199.169 609.441 201.389C603.609 203.61 601.439 198.241 601.439 198.241L603.321 188.832H603.333Z" fill="#AD6359"/>
<path d="M614.208 185.031C614.308 185.031 614.321 185.157 614.245 185.182C610.157 186.875 608.025 190.701 606.532 194.653C607.736 193.122 609.392 192.282 611.449 193.725C611.561 193.8 611.449 193.963 611.336 193.95C609.655 193.599 608.439 193.9 607.31 195.255C606.507 196.208 605.968 197.425 605.403 198.529C605.215 198.893 604.551 198.705 604.689 198.278C604.689 198.253 604.714 198.216 604.726 198.178C604.588 192.947 608.602 185.596 614.208 185.031Z" fill="#263238"/>
<path d="M604.562 200.599C604.562 202.016 605.716 203.171 607.134 203.171C608.551 203.171 609.705 202.016 609.705 200.599C609.705 199.181 608.551 198.027 607.134 198.027C605.716 198.027 604.562 199.181 604.562 200.599Z" fill="#FAF4FF"/>
<path d="M562.859 241.832C562.859 241.832 555.673 262.23 568.653 263.672C581.634 265.115 615.534 240.039 615.534 240.039C615.534 240.039 606.115 224.797 591.09 226.428C578.624 227.783 562.847 241.832 562.847 241.832H562.859Z" fill="#AD6359"/>
<path d="M624.163 265.717C624.138 290.907 609.69 366.437 595.794 376.611C567.989 396.971 502.785 395.566 484.8 395.879C477.036 396.017 466.84 344.321 472.622 338.363C478.404 332.404 557.843 330.221 561.919 327.16C564.741 325.04 587.165 288.272 600.146 264.639C617.692 232.688 624.176 253.022 624.163 265.717Z" fill="#AD6359"/>
<path d="M486.456 335.603C486.456 335.603 462.991 333.006 447.552 332.028C438.948 331.488 424.099 331.864 417.59 334.361C407.857 338.087 369.53 359.901 374.622 369.31C379.225 377.828 390.938 368.407 390.938 368.407C390.938 368.407 377.18 377.501 384.342 384.539C391.566 391.652 405.625 377.89 405.625 377.89C405.625 377.89 390.349 386.533 398.702 393.32C405.963 399.216 423.873 385.128 423.873 385.128C423.873 385.128 406.841 392.442 413.677 399.203C421.239 406.68 450.75 388.942 450.75 388.942C469.951 395.34 482.342 396.582 497.029 395.653C499.725 395.478 486.444 335.59 486.444 335.59L486.456 335.603Z" fill="#AD6359"/>
<path d="M401.36 381.001C402.514 379.973 403.693 378.969 404.834 377.928C407.092 375.908 409.324 373.951 411.808 372.208C414.216 370.527 416.686 368.959 419.207 367.453C421.866 365.873 424.713 364.543 427.334 362.9C427.547 362.762 427.723 363.075 427.51 363.201C424.863 364.693 422.43 366.663 419.972 368.444C417.539 370.213 415.144 372.007 412.736 373.801C410.39 375.557 407.932 377.15 405.537 378.831C404.345 379.672 403.179 380.575 402.025 381.465C400.946 382.306 399.88 383.31 398.676 383.949C398.551 384.012 398.451 383.849 398.526 383.749C399.291 382.695 400.395 381.854 401.36 380.989V381.001Z" fill="#263238"/>
<path d="M388.116 370.364C389.709 368.294 398.476 361.143 400.821 359.45C405.361 356.176 410.215 353.291 415.307 350.982C415.482 350.907 415.645 351.158 415.482 351.283C410.955 354.583 406.364 357.832 401.799 361.068C399.567 362.649 389.621 370.163 388.48 370.815C388.204 370.978 387.953 370.577 388.116 370.351V370.364Z" fill="#263238"/>
<path d="M413.539 391.326C415.157 389.419 423.422 382.795 425.667 381.277C427.774 379.86 437.168 375.055 440.102 374.115C440.29 374.052 440.441 374.315 440.278 374.416C435.675 377.163 431.022 379.81 426.545 382.77C424.362 384.213 416.01 390.46 413.802 391.664C413.602 391.777 413.389 391.489 413.539 391.326Z" fill="#263238"/>
<path d="M502.282 399.68L480.836 331.513C480.836 331.513 558.883 326.521 561.416 325.216C563.95 323.911 591.767 274.749 602.766 255.644C613.765 236.526 630.81 244.404 624.451 287.532C618.055 330.924 611.044 364.656 601.312 374.679C589.51 386.847 546.366 399.392 502.282 399.68Z" fill="#8218EA"/>
<path d="M567.662 356.389C567.424 354.495 567.574 352.651 567.8 350.819C568.076 349 568.439 347.181 569.179 345.425C569.418 347.319 569.267 349.163 569.041 350.995C568.766 352.814 568.402 354.633 567.662 356.389Z" fill="#FAF4FF"/>
<path d="M524.545 395.402C524.306 393.508 524.457 391.664 524.683 389.833C524.959 388.014 525.322 386.195 526.062 384.438C526.301 386.333 526.15 388.177 525.924 390.008C525.648 391.827 525.285 393.646 524.545 395.402Z" fill="#FAF4FF"/>
<path d="M591.316 296.464C591.078 294.57 591.228 292.726 591.454 290.894C591.73 289.075 592.094 287.256 592.834 285.5C593.072 287.394 592.921 289.238 592.696 291.07C592.42 292.889 592.056 294.708 591.316 296.464Z" fill="#FAF4FF"/>
<path d="M603.807 349.527C601.913 349.765 600.07 349.615 598.239 349.389C596.42 349.113 594.602 348.749 592.846 348.009C594.74 347.771 596.583 347.909 598.414 348.147C600.233 348.423 602.051 348.787 603.807 349.527Z" fill="#FAF4FF"/>
<path d="M528.883 351.672C526.99 351.911 525.146 351.76 523.315 351.534C521.496 351.258 519.678 350.894 517.922 350.154C519.816 349.916 521.659 350.066 523.49 350.292C525.309 350.568 527.128 350.932 528.883 351.672Z" fill="#FAF4FF"/>
<path d="M581.271 383.51C582.45 382.005 583.843 380.801 585.31 379.672C586.79 378.58 588.332 377.552 590.101 376.837C588.934 378.342 587.53 379.546 586.062 380.675C584.583 381.767 583.04 382.795 581.271 383.51Z" fill="#FAF4FF"/>
<path d="M491.334 342.941C492.513 341.436 493.905 340.232 495.372 339.103C496.852 338.011 498.395 336.983 500.163 336.268C498.997 337.773 497.592 338.977 496.125 340.106C494.645 341.198 493.102 342.226 491.334 342.941Z" fill="#FAF4FF"/>
<path d="M572.115 314.979C570.949 316.485 569.544 317.689 568.077 318.818C566.936 319.659 565.757 320.461 564.465 321.114C564.854 320.512 565.28 319.847 565.719 319.132C565.719 319.119 565.719 319.119 565.719 319.119C566.233 318.668 566.773 318.229 567.312 317.815C568.792 316.723 570.334 315.695 572.103 314.979H572.115Z" fill="#FAF4FF"/>
<path d="M625.191 281.473C625.153 282 625.091 282.527 625.028 283.066C624.025 283.731 622.959 284.333 621.805 284.797C622.808 283.518 623.974 282.464 625.191 281.473Z" fill="#FAF4FF"/>
<path d="M543.395 372.396C544.573 370.89 545.978 369.686 547.433 368.557C548.913 367.466 550.456 366.437 552.224 365.722C551.058 367.228 549.653 368.432 548.185 369.561C546.706 370.652 545.163 371.681 543.395 372.396Z" fill="#FAF4FF"/>
<path d="M542.09 329.293C543.595 330.472 544.799 331.877 545.928 333.332C547.019 334.813 548.047 336.356 548.762 338.124C547.257 336.958 546.053 335.553 544.924 334.085C543.833 332.605 542.805 331.062 542.09 329.293Z" fill="#FAF4FF"/>
<path d="M621.016 253.75C619.511 252.583 618.32 251.178 617.191 249.723C616.275 248.494 615.423 247.227 614.758 245.822C614.996 245.822 615.222 245.834 615.448 245.859C616.463 246.813 617.341 247.867 618.182 248.958C619.285 250.451 620.301 251.981 621.016 253.75Z" fill="#FAF4FF"/>
<path d="M604.586 315.557C606.091 316.736 607.295 318.141 608.424 319.596C609.515 321.076 610.543 322.619 611.258 324.388C609.753 323.221 608.549 321.816 607.42 320.349C606.329 318.868 605.301 317.325 604.586 315.557Z" fill="#FAF4FF"/>
<path d="M585.836 284.471C583.29 288.285 580.945 292.211 578.587 296.138C578.524 296.251 578.462 296.351 578.387 296.464C578.499 296.163 578.625 295.874 578.738 295.573C579.503 293.629 580.18 291.634 581.008 289.702C581.058 289.59 580.882 289.489 580.832 289.602C579.992 291.496 579.051 293.34 578.236 295.247C577.697 296.539 577.208 297.844 576.744 299.161C575 302.071 573.257 304.982 571.539 307.917C569.231 311.869 566.936 315.82 564.603 319.759C564.039 320.725 563.474 321.691 562.898 322.644C562.396 323.472 561.831 324.212 560.878 324.513C559.887 324.84 558.709 324.827 557.68 324.94C556.539 325.065 555.398 325.203 554.256 325.341C549.064 325.969 543.909 326.834 538.717 327.512C538.592 327.524 538.592 327.712 538.717 327.712C543.483 327.361 548.274 327.173 553.04 326.784C555.385 326.596 557.755 326.433 560.088 326.132C560.979 326.019 561.831 325.831 562.546 325.254C563.224 324.702 563.675 323.936 564.114 323.184C568.842 315.005 573.57 306.826 578.286 298.634C580.958 293.993 583.667 289.376 586.125 284.622C586.225 284.421 585.949 284.271 585.824 284.459L585.836 284.471Z" fill="#263238"/>
<path d="M624.577 302.661C624.439 304.191 623.874 305.784 623.46 307.265C623.084 308.607 622.721 309.949 622.319 311.279C621.855 312.784 621.341 314.277 620.814 315.77C621.868 309.134 622.708 302.46 623.323 295.749C623.335 295.548 622.996 295.51 622.971 295.711C621.717 305.082 619.986 314.402 618.03 323.648C616.061 332.906 613.678 342.101 610.982 351.17C609.652 355.636 608.26 360.09 606.692 364.48C605.35 368.243 603.745 372.044 601.224 375.181C598.477 378.593 594.74 380.738 590.827 382.544C586.676 384.451 582.399 386.132 578.06 387.549C568.189 390.786 557.968 392.843 547.884 395.264C547.784 395.289 547.809 395.478 547.909 395.452C557.178 394.085 566.383 392.392 575.426 389.883C579.978 388.616 584.556 387.198 588.921 385.379C592.947 383.698 597.098 381.867 600.346 378.881C603.419 376.059 605.488 372.32 607.068 368.507C608.762 364.405 610.091 360.14 611.408 355.9C614.28 346.642 616.701 337.309 618.67 327.813C619.234 325.065 619.761 322.306 620.237 319.546C621.404 316.962 622.244 314.189 622.971 311.442C623.36 309.999 623.724 308.557 624 307.089C624.276 305.634 624.389 304.091 624.79 302.673C624.828 302.548 624.614 302.51 624.602 302.648L624.577 302.661Z" fill="#263238"/>
<path d="M515.852 394.173C512.316 384.376 508.578 374.666 505.468 364.719C502.408 354.909 499.41 344.961 497.404 334.875C497.366 334.687 497.667 334.599 497.73 334.775C501.404 344.384 504.389 354.307 507.475 364.129C510.585 374.027 513.294 384.037 516.417 393.922C516.53 394.299 515.99 394.562 515.852 394.173Z" fill="#263238"/>
<path d="M502.697 329.908C500.853 329.77 498.947 329.882 497.091 329.92C495.222 329.97 493.353 330.046 491.485 330.121C487.747 330.284 484.022 330.56 480.297 330.873C480.021 330.899 479.733 331.175 479.858 331.476C480.36 332.755 480.912 334.286 481.765 335.377C481.815 335.452 481.953 335.427 481.94 335.327C481.852 334.148 481.401 332.906 480.962 331.777C484.524 331.538 488.086 331.325 491.648 331.049C493.516 330.911 495.385 330.786 497.241 330.635C499.06 330.497 500.916 330.434 502.709 330.146C502.86 330.121 502.797 329.908 502.672 329.895L502.697 329.908Z" fill="#263238"/>
<path d="M418.467 315.306C423.12 317.614 444.378 318.492 450.586 326.119C454.712 331.187 454.298 336.318 456.706 351.459C458.788 364.606 447.902 361.469 444.767 354.746C439.85 344.171 435.624 332.579 435.624 332.579C430.645 332.241 424.738 332.743 424.738 332.743L418.467 315.306Z" fill="#F7A9A0"/>
<path d="M433.792 365.02C441.154 360.353 464.695 390.071 452.931 397.949C441.166 405.827 425.452 370.301 433.792 365.02Z" fill="#F7A9A0"/>
<path d="M421.866 371.342C429.228 366.676 452.769 396.393 441.005 404.271C429.241 412.149 413.526 376.623 421.866 371.342Z" fill="#F7A9A0"/>
<path d="M413.412 372.509C420.749 369.297 438.019 399.592 426.217 405.099C414.428 410.619 405.097 376.147 413.412 372.509Z" fill="#F7A9A0"/>
<path d="M404.771 371.681C412.484 370.765 419.984 403.757 407.48 405.551C394.976 407.357 396.03 372.722 404.771 371.681Z" fill="#F7A9A0"/>
<path d="M432.113 375.306C433.518 376.749 434.634 378.442 435.775 380.086C436.992 381.854 438.196 383.648 439.249 385.517C440.253 387.311 441.231 389.155 442.008 391.062C442.836 393.094 443.426 395.239 444.303 397.234C444.404 397.46 444.078 397.598 443.99 397.359C443.237 395.415 442.021 393.546 440.992 391.739C439.964 389.92 439.011 388.051 437.995 386.22C437.004 384.438 436.064 382.632 435.048 380.863C434.007 379.057 432.815 377.326 431.875 375.469C431.799 375.319 431.988 375.168 432.113 375.294V375.306Z" fill="#263238"/>
<path d="M419.847 375.131C420.612 377.364 423.133 385.894 423.985 388.102C424.851 390.322 425.779 392.53 426.745 394.7C427.723 396.908 428.588 399.254 429.767 401.374C429.88 401.574 429.579 401.737 429.466 401.549C428.275 399.417 426.908 397.422 425.829 395.227C424.763 393.057 423.81 390.849 422.944 388.591C422.079 386.32 419.797 377.527 419.496 375.168C419.47 374.955 419.796 374.942 419.859 375.118L419.847 375.131Z" fill="#263238"/>
<path d="M410.616 377.263C411.205 380.449 411.594 383.673 412.196 386.86C412.497 388.428 412.798 389.996 413.087 391.576C413.225 392.341 413.35 393.107 413.488 393.859C413.638 394.675 413.663 395.703 413.977 396.469C414.065 396.682 413.676 396.782 413.638 396.519C413.526 395.603 413.011 394.612 412.748 393.721C412.522 392.981 412.309 392.241 412.121 391.488C411.732 389.933 411.431 388.377 411.168 386.797C410.679 383.698 410.202 380.462 410.189 377.326C410.189 377.087 410.566 377.025 410.616 377.276V377.263Z" fill="#263238"/>
<path d="M525.373 166.302C528.458 161.598 530.201 156.304 530.201 150.697C530.201 130.927 508.504 114.907 481.752 114.907C455.001 114.907 433.316 130.939 433.316 150.697C433.316 170.454 455.001 186.486 481.752 186.486C494.721 186.486 506.485 182.723 515.176 176.589L531.869 180.829L525.385 166.302H525.373Z" fill="#8218EA"/>
<path d="M464.332 150.697C464.332 153.469 462.087 155.727 459.303 155.727C456.518 155.727 454.273 153.481 454.273 150.697C454.273 147.912 456.518 145.666 459.303 145.666C462.087 145.666 464.332 147.912 464.332 150.697Z" fill="#263238"/>
<path d="M481.766 155.727C484.543 155.727 486.795 153.475 486.795 150.697C486.795 147.918 484.543 145.666 481.766 145.666C478.988 145.666 476.736 147.918 476.736 150.697C476.736 153.475 478.988 155.727 481.766 155.727Z" fill="#263238"/>
<path d="M509.23 150.697C509.23 153.469 506.985 155.727 504.201 155.727C501.417 155.727 499.172 153.481 499.172 150.697C499.172 147.912 501.417 145.666 504.201 145.666C506.985 145.666 509.23 147.912 509.23 150.697Z" fill="#263238"/>
<path d="M350.504 58.9467C347.707 82.3422 332.67 86.6199 330.136 92.8545C328.782 96.2289 326.976 104.822 326.976 104.822L302.519 104.759C302.519 104.759 300.776 96.1662 299.422 92.7792C296.938 86.532 281.888 82.1916 279.23 58.7836C277.461 43.404 289.087 19.143 314.961 19.2057C340.834 19.2684 352.323 43.5797 350.504 58.9592V58.9467Z" fill="#8218EA"/>
<path d="M302.192 67.3488L300.959 67.5759L308.122 106.5L309.356 106.273L302.192 67.3488Z" fill="#FAF4FF"/>
<path d="M327.475 67.388L320.135 106.279L321.367 106.512L328.707 67.6207L327.475 67.388Z" fill="#FAF4FF"/>
<path d="M314.823 80.4229C312.904 80.4229 310.973 78.8925 309.38 76.1202C309.305 75.9947 309.242 75.8693 309.167 75.7313C308.489 76.4839 307.775 76.8728 307.072 76.8728C303.41 76.8728 301.955 69.3085 301.893 68.9823L302.507 68.8694C302.52 68.9447 303.912 76.2331 307.072 76.2456C307.637 76.2456 308.264 75.8442 308.866 75.1291C307.311 71.9428 306.458 67.7781 307.561 65.8838C307.938 65.2315 308.527 64.8928 309.255 64.8928C310.145 64.8928 310.835 65.2942 311.274 66.0469C312.377 67.9662 311.562 71.9177 310.107 74.4266C309.944 74.7026 309.781 74.9661 309.606 75.2044C309.706 75.4051 309.819 75.6058 309.932 75.8065C310.785 77.2993 312.553 79.7831 314.823 79.7957C316.341 79.7957 317.858 78.604 319.125 76.4338C319.225 76.2581 319.326 76.07 319.426 75.8818C319.112 75.5306 318.824 75.1291 318.56 74.6775C317.055 72.0432 316.742 68.1419 317.896 66.1598C318.372 65.3444 319.05 64.9179 319.877 64.9179C320.53 64.9179 321.056 65.2441 321.42 65.8713C322.499 67.753 321.897 72.2314 320.178 75.7564C320.805 76.3334 321.608 76.7725 322.624 76.785C324.856 76.785 326.851 71.4411 327.427 69.3838L328.029 69.5468C327.942 69.873 325.797 77.3997 322.624 77.3997C321.608 77.3997 320.68 77.0359 319.877 76.3334C319.802 76.4714 319.727 76.5968 319.652 76.7348C318.686 78.4033 317.055 80.3978 314.811 80.3978L314.823 80.4229ZM319.877 65.5577C319.288 65.5577 318.799 65.8713 318.448 66.486C317.407 68.2673 317.72 71.9554 319.112 74.3765C319.288 74.6775 319.489 74.9786 319.727 75.2797C321.257 71.993 321.834 67.8533 320.881 66.1975C320.63 65.7709 320.304 65.5577 319.877 65.5577ZM309.242 65.5326C308.728 65.5326 308.352 65.7584 308.088 66.21C307.223 67.7028 307.787 71.3783 309.267 74.5646C309.355 74.4266 309.455 74.2761 309.543 74.1256C310.872 71.8299 311.688 68.0791 310.709 66.3731C310.383 65.8086 309.907 65.5326 309.242 65.5326Z" fill="#FAF4FF"/>
<path d="M329.819 103.809L299.656 103.735L299.642 109.631L329.805 109.705L329.819 103.809Z" fill="#455A64"/>
<path d="M329.801 110.658L299.639 110.584L299.624 116.48L329.787 116.554L329.801 110.658Z" fill="#455A64"/>
<path d="M329.819 117.45L299.656 117.381L299.643 123.277L329.806 123.346L329.819 117.45Z" fill="#455A64"/>
<path d="M316.075 0C316.539 1.63079 316.627 3.26157 316.627 4.87981C316.59 6.5106 316.452 8.12884 315.925 9.74708C315.448 8.11629 315.373 6.48551 315.373 4.86727C315.423 3.23648 315.561 1.61824 316.075 0Z" fill="#263238"/>
<path d="M288.723 6.68628C289.939 7.86546 290.83 9.23281 291.645 10.6378C292.422 12.0679 293.112 13.5356 293.463 15.204C292.234 14.0248 291.356 12.6575 290.541 11.2525C289.764 9.82241 289.074 8.3547 288.723 6.68628Z" fill="#263238"/>
<path d="M268.381 26.1428C270.024 26.5568 271.479 27.2969 272.883 28.1123C274.263 28.9653 275.605 29.8936 276.746 31.1481C275.091 30.7467 273.648 30.0065 272.244 29.1786C270.864 28.3256 269.522 27.3973 268.381 26.1428Z" fill="#263238"/>
<path d="M260.504 53.1762C262.134 52.7121 263.765 52.6243 265.383 52.6243C267.001 52.6619 268.631 52.7999 270.249 53.3268C268.618 53.8034 266.988 53.8787 265.37 53.8787C263.752 53.8285 262.122 53.6905 260.504 53.1762Z" fill="#263238"/>
<path d="M267.189 80.5231C268.368 79.3063 269.735 78.4156 271.14 77.6002C272.57 76.8224 274.037 76.1325 275.705 75.7812C274.526 77.0106 273.159 77.8887 271.755 78.7041C270.325 79.4819 268.857 80.1718 267.189 80.5231Z" fill="#263238"/>
<path d="M361.352 82.6056C359.709 82.1916 358.254 81.4515 356.849 80.6361C355.47 79.7831 354.128 78.8548 352.986 77.6003C354.642 78.0018 356.084 78.7419 357.489 79.5698C358.868 80.4229 360.21 81.3511 361.352 82.6056Z" fill="#263238"/>
<path d="M369.241 55.5847C367.611 56.0489 365.98 56.1367 364.362 56.1367C362.732 56.099 361.114 55.961 359.496 55.4342C361.127 54.9575 362.757 54.8697 364.375 54.8822C365.993 54.9324 367.623 55.0704 369.241 55.5847Z" fill="#263238"/>
<path d="M362.555 28.2251C361.376 29.4419 360.009 30.3326 358.604 31.148C357.174 31.9257 355.707 32.6157 354.039 32.9669C355.218 31.7376 356.585 30.8594 357.99 30.0441C359.419 29.2663 360.887 28.5763 362.555 28.2251Z" fill="#263238"/>
<path d="M343.09 7.89038C342.676 9.53371 341.936 10.9889 341.121 12.3939C340.268 13.7738 339.34 15.116 338.086 16.2576C338.487 14.6017 339.227 13.1591 340.055 11.7541C340.908 10.3742 341.836 9.03193 343.09 7.89038Z" fill="#263238"/>
</svg>
