<svg width="21" height="20" viewBox="0 0 21 20" fill="none" xmlns="http://www.w3.org/2000/svg">
<path d="M18.9844 15.9099L4.13512 1.06066C3.54934 0.474874 2.59959 0.474874 2.0138 1.06066C1.42802 1.64645 1.42802 2.59619 2.0138 3.18198L16.863 18.0312C17.4488 18.617 18.3986 18.617 18.9844 18.0312C19.5702 17.4454 19.5702 16.4957 18.9844 15.9099Z" fill="white"/>
<path d="M4.13697 18.031L18.9862 3.18175C19.572 2.59597 19.572 1.64622 18.9862 1.06043C18.4004 0.474647 17.4507 0.474647 16.8649 1.06043L2.01565 15.9097C1.42987 16.4955 1.42987 17.4452 2.01565 18.031C2.60144 18.6168 3.55119 18.6168 4.13697 18.031Z" fill="white"/>
</svg>
