<svg width="387" height="232" viewBox="0 0 387 232" fill="none" xmlns="http://www.w3.org/2000/svg">
<path d="M36.5625 54.0135L84.2744 39.1758L47.5688 64.6041L36.5625 54.0135Z" fill="#6628A5"/>
<path d="M84.271 39.1763L32.8813 47.6524L21.875 37.0527L84.271 39.1763Z" fill="#6628A5"/>
<path d="M32.8828 47.6519V60.366L36.5606 54.0135L84.2725 39.1758L32.8828 47.6519Z" fill="#5F2A93"/>
<path d="M32.8828 60.3662L40.2294 57.5469L36.5606 54.0137L32.8828 60.3662Z" fill="#6628A5"/>
<path d="M36.5625 54.0137L40.2313 57.5469L39.0565 57.9897L36.5625 54.0137Z" fill="#5F2A93"/>
<path d="M24.9755 58.4517C24.8236 58.4545 24.6751 58.4062 24.5539 58.3145C24.4328 58.2228 24.3459 58.093 24.3074 57.9461C24.2688 57.7991 24.2807 57.6434 24.3413 57.504C24.4018 57.3646 24.5075 57.2497 24.6412 57.1775C25.4545 56.7257 26.2768 56.2739 27.0901 55.9215C27.1707 55.8778 27.2594 55.851 27.3507 55.8427C27.442 55.8343 27.534 55.8445 27.6213 55.8728C27.7085 55.901 27.7891 55.9467 27.8582 56.007C27.9272 56.0673 27.9834 56.141 28.0232 56.2236C28.0629 56.3062 28.0855 56.396 28.0896 56.4876C28.0936 56.5792 28.0791 56.6707 28.0467 56.7565C28.0144 56.8423 27.965 56.9206 27.9015 56.9868C27.8381 57.053 27.7618 57.1055 27.6774 57.1414C26.8913 57.5209 26.087 57.9275 25.3009 58.3703C25.2003 58.4226 25.0889 58.4504 24.9755 58.4517Z" fill="#E0E0E0"/>
<path d="M16.6362 131.429C16.4977 131.43 16.3621 131.389 16.2476 131.311C14.778 130.275 13.3857 129.133 12.0818 127.895C11.9992 127.842 11.9293 127.771 11.8769 127.687C11.8245 127.604 11.7909 127.51 11.7785 127.412C11.7661 127.315 11.7751 127.215 11.805 127.121C11.8349 127.028 11.8848 126.941 11.9514 126.869C12.018 126.796 12.0997 126.739 12.1906 126.701C12.2816 126.663 12.3797 126.646 12.4781 126.65C12.5766 126.654 12.6729 126.679 12.7606 126.724C12.8482 126.769 12.9249 126.833 12.9855 126.91C14.2431 128.104 15.5872 129.204 17.0067 130.2C17.1236 130.283 17.211 130.402 17.256 130.539C17.3011 130.675 17.3015 130.823 17.2572 130.959C17.2129 131.096 17.1262 131.215 17.0097 131.3C16.8932 131.384 16.7529 131.429 16.6091 131.429H16.6362ZM9.55167 124.85C9.45162 124.851 9.35259 124.83 9.26189 124.788C9.17118 124.745 9.0911 124.683 9.02756 124.606C7.88892 123.216 6.85302 121.746 5.92809 120.205C5.83462 120.051 5.80639 119.865 5.8496 119.69C5.89282 119.515 6.00394 119.364 6.15852 119.27C6.3131 119.177 6.49848 119.148 6.67387 119.192C6.84927 119.235 7.00031 119.346 7.09378 119.501C7.98474 120.986 8.9813 122.405 10.0758 123.748C10.1887 123.886 10.2425 124.063 10.2256 124.241C10.2086 124.418 10.1224 124.582 9.98541 124.696C9.86437 124.799 9.71013 124.853 9.55167 124.85ZM4.4642 116.627C4.33293 116.628 4.20413 116.591 4.09344 116.521C3.98275 116.45 3.89495 116.349 3.84069 116.229C3.10227 114.593 2.46846 112.912 1.94306 111.196C1.90451 111.029 1.93063 110.854 2.01617 110.705C2.10171 110.557 2.24032 110.446 2.4041 110.396C2.56788 110.346 2.74467 110.359 2.89888 110.434C3.0531 110.508 3.17329 110.639 3.23526 110.799C3.7348 112.458 4.33842 114.085 5.04253 115.669C5.0804 115.75 5.10178 115.838 5.10545 115.928C5.10912 116.017 5.095 116.107 5.06391 116.191C5.03282 116.275 4.98536 116.352 4.9243 116.417C4.86325 116.483 4.78979 116.536 4.70819 116.573C4.63127 116.607 4.54833 116.625 4.4642 116.627ZM1.52739 107.401C1.37066 107.399 1.21926 107.344 1.09898 107.243C0.978709 107.143 0.896988 107.004 0.867737 106.85C0.522789 105.094 0.278409 103.32 0.135791 101.536C0.121411 101.357 0.179023 101.178 0.295953 101.041C0.412884 100.904 0.579554 100.819 0.759298 100.804C0.939042 100.79 1.11714 100.848 1.2544 100.965C1.39167 101.081 1.47686 101.248 1.49124 101.428C1.62417 103.16 1.85953 104.883 2.19608 106.588C2.21444 106.675 2.21514 106.765 2.19814 106.853C2.18114 106.94 2.14679 107.023 2.09711 107.098C2.04743 107.172 1.98342 107.235 1.90885 107.284C1.83429 107.333 1.75067 107.367 1.66293 107.383L1.52739 107.401ZM0.668936 97.75C0.57958 97.7501 0.491124 97.7322 0.408794 97.6975C0.326464 97.6628 0.251929 97.6119 0.189593 97.5479C0.127257 97.4838 0.078385 97.408 0.0458631 97.3247C0.0133412 97.2415 -0.00217073 97.1526 0.000244283 97.0633C0.0213794 95.2748 0.142052 93.4889 0.3617 91.7138C0.362734 91.6185 0.383851 91.5245 0.423668 91.4379C0.463486 91.3514 0.521107 91.2742 0.592779 91.2114C0.664451 91.1486 0.748558 91.1016 0.839612 91.0735C0.930665 91.0454 1.02662 91.0369 1.12121 91.0484C1.2158 91.0599 1.3069 91.0912 1.38857 91.1403C1.47023 91.1894 1.54063 91.2551 1.59516 91.3333C1.64969 91.4114 1.68713 91.5002 1.70504 91.5938C1.72295 91.6874 1.72091 91.7837 1.69908 91.8764C1.49015 93.6039 1.37552 95.3414 1.3557 97.0814C1.35452 97.1704 1.33582 97.2583 1.30067 97.34C1.26551 97.4218 1.2146 97.4959 1.15083 97.558C1.08705 97.6201 1.01167 97.669 0.928988 97.7019C0.846305 97.7349 0.757938 97.7512 0.668936 97.75ZM1.77137 88.1263C1.72054 88.1351 1.66858 88.1351 1.61775 88.1263C1.44313 88.0874 1.29098 87.981 1.19449 87.8304C1.098 87.6797 1.065 87.497 1.10268 87.3221C1.49863 85.5717 2.00569 83.8483 2.62079 82.1623C2.65073 82.0744 2.69845 81.9935 2.76098 81.9247C2.8235 81.856 2.8995 81.8008 2.98425 81.7627C3.069 81.7246 3.16069 81.7043 3.25361 81.7031C3.34654 81.7019 3.43872 81.7198 3.52442 81.7557C3.61161 81.7868 3.69163 81.8351 3.75967 81.8979C3.8277 81.9606 3.88235 82.0365 3.92033 82.1209C3.95831 82.2053 3.97884 82.2965 3.98069 82.389C3.98253 82.4815 3.96565 82.5735 3.93106 82.6593C3.33814 84.2894 2.84919 85.9555 2.46717 87.6474C2.42254 87.7942 2.3294 87.9215 2.20301 88.0085C2.07662 88.0955 1.92444 88.1371 1.77137 88.1263ZM4.98831 78.9996C4.88412 79.0037 4.78085 78.9787 4.69011 78.9273C4.60925 78.8896 4.53675 78.8361 4.47689 78.77C4.41702 78.7038 4.37099 78.6264 4.34152 78.5422C4.31205 78.458 4.29972 78.3687 4.30527 78.2797C4.31082 78.1906 4.33414 78.1036 4.37384 78.0237C5.16255 76.4133 6.0498 74.8531 7.03053 73.3519C7.12928 73.2119 7.27738 73.1145 7.44503 73.0793C7.61268 73.0441 7.78744 73.0737 7.93416 73.1621C8.0774 73.2581 8.17804 73.4057 8.21508 73.574C8.25212 73.7424 8.2227 73.9186 8.13296 74.0658C7.17971 75.5158 6.31953 77.0249 5.5576 78.584C5.51083 78.6994 5.43276 78.7994 5.33218 78.8729C5.23159 78.9463 5.1125 78.9902 4.98831 78.9996ZM10.1842 70.8669C10.0331 70.8685 9.8861 70.8173 9.76854 70.7223C9.69809 70.6669 9.63934 70.598 9.59571 70.5197C9.55207 70.4413 9.52441 70.3551 9.51432 70.266C9.50424 70.177 9.51193 70.0867 9.53695 70.0006C9.56198 69.9146 9.60384 69.8343 9.6601 69.7645C10.7893 68.3695 11.9961 67.039 13.2746 65.7794C13.4017 65.6525 13.574 65.5812 13.7536 65.5812C13.9332 65.5812 14.1054 65.6525 14.2325 65.7794C14.3594 65.9065 14.4307 66.0788 14.4307 66.2584C14.4307 66.438 14.3594 66.6102 14.2325 66.7373C13.001 67.9659 11.8366 69.26 10.7445 70.6139C10.6745 70.6912 10.5873 70.7511 10.4901 70.7888C10.3928 70.8265 10.288 70.8408 10.1842 70.8308V70.8669ZM16.9795 63.927C16.881 63.9268 16.7838 63.9048 16.6947 63.8626C16.6057 63.8205 16.5271 63.7591 16.4645 63.683C16.35 63.5445 16.2944 63.3666 16.3096 63.1875C16.3248 63.0084 16.4096 62.8424 16.5458 62.7252C17.9214 61.5812 19.354 60.5075 20.8381 59.5082C20.9837 59.4189 21.1578 59.3879 21.3253 59.4214C21.4929 59.4549 21.6416 59.5504 21.7417 59.6889C21.8426 59.839 21.8802 60.0229 21.8463 60.2005C21.8125 60.3781 21.71 60.5353 21.561 60.6378C20.1131 61.61 18.7166 62.6566 17.3771 63.7734C17.2636 63.8644 17.1248 63.9181 16.9795 63.927Z" fill="#E0E0E0"/>
<path d="M22.8544 134.961C22.7574 134.962 22.6615 134.94 22.5742 134.898C21.7339 134.518 20.9025 134.112 20.1073 133.678C20.0296 133.637 19.9606 133.581 19.9045 133.513C19.8483 133.446 19.806 133.368 19.78 133.284C19.754 133.2 19.7447 133.112 19.7528 133.024C19.7609 132.937 19.7862 132.852 19.8272 132.774C19.9115 132.619 20.0532 132.503 20.222 132.45C20.3908 132.398 20.5734 132.414 20.7308 132.494C21.5079 132.91 22.3122 133.307 23.1254 133.678C23.2649 133.743 23.3782 133.853 23.4466 133.991C23.515 134.129 23.5345 134.286 23.5019 134.436C23.4694 134.586 23.3866 134.721 23.2673 134.818C23.1479 134.915 22.9991 134.969 22.8453 134.97L22.8544 134.961Z" fill="#E0E0E0"/>
<path d="M331.941 102.168L370.165 77.6973L387 83.101L331.941 102.168Z" fill="#6628A5"/>
<path d="M331.941 102.167L364.978 74.6245L357.632 66.1484L331.941 102.167Z" fill="#6628A5"/>
<path d="M364.978 74.625V81.0137L331.941 102.168L364.978 74.625Z" fill="#5F2A93"/>
<path d="M372.432 71.9603C372.268 71.9609 372.11 71.8996 371.989 71.7886C371.856 71.6689 371.774 71.5016 371.762 71.3226C371.751 71.1436 371.809 70.9671 371.926 70.8308C373.103 69.5182 374.147 68.0925 375.043 66.5747C375.135 66.4189 375.284 66.3057 375.458 66.2599C375.633 66.2142 375.818 66.2396 375.974 66.3307C376.13 66.4218 376.243 66.571 376.289 66.7455C376.335 66.9201 376.309 67.1057 376.218 67.2614C375.272 68.8526 374.176 70.3503 372.947 71.7344C372.882 71.8068 372.803 71.8644 372.714 71.9033C372.625 71.9423 372.529 71.9618 372.432 71.9603ZM377.601 63.5385C377.52 63.5513 377.438 63.5513 377.357 63.5385C377.271 63.5058 377.193 63.4561 377.127 63.3924C377.061 63.3286 377.009 63.2523 376.974 63.1678C376.938 63.0833 376.92 62.9926 376.921 62.901C376.922 62.8094 376.941 62.7188 376.977 62.6348C377.616 60.9889 378.094 59.2852 378.405 57.5474C378.437 57.37 378.539 57.2128 378.687 57.1103C378.835 57.0077 379.018 56.9683 379.196 57.0007C379.373 57.033 379.53 57.1345 379.633 57.2828C379.735 57.4311 379.775 57.614 379.742 57.7914C379.409 59.6123 378.904 61.3975 378.233 63.1228C378.182 63.2479 378.094 63.3545 377.981 63.4287C377.869 63.5029 377.736 63.5412 377.601 63.5385ZM379.534 53.8425C379.446 53.8413 379.358 53.8225 379.277 53.7873C379.196 53.752 379.122 53.7009 379.061 53.6371C379 53.5732 378.952 53.4977 378.92 53.4151C378.888 53.3324 378.872 53.2443 378.875 53.1557C378.875 52.9208 378.875 52.6858 378.875 52.4509C378.871 50.9168 378.75 49.3852 378.513 47.8694C378.487 47.6911 378.532 47.5097 378.639 47.3643C378.745 47.2189 378.905 47.1212 379.083 47.0923C379.261 47.0686 379.441 47.1146 379.586 47.2207C379.731 47.3268 379.829 47.4848 379.86 47.6616C380.104 49.2464 380.228 50.8474 380.23 52.4509C380.23 52.6948 380.23 52.9388 380.23 53.1828C380.223 53.3618 380.147 53.5309 380.017 53.6541C379.887 53.7774 379.714 53.845 379.534 53.8425ZM378.17 44.0471C378.025 44.0466 377.883 43.9987 377.767 43.9106C377.652 43.8225 377.568 43.6991 377.528 43.5591C377.01 41.8636 376.36 40.211 375.586 38.6162C375.546 38.5363 375.523 38.4493 375.517 38.3602C375.512 38.2712 375.524 38.1819 375.553 38.0977C375.583 38.0135 375.629 37.9361 375.689 37.8699C375.749 37.8038 375.821 37.7503 375.902 37.7126C376.064 37.6349 376.25 37.6246 376.419 37.6839C376.589 37.7432 376.727 37.8672 376.806 38.0288C377.614 39.686 378.288 41.4055 378.821 43.1705C378.847 43.2554 378.856 43.3446 378.848 43.433C378.839 43.5214 378.813 43.6072 378.771 43.6855C378.729 43.7637 378.672 43.8328 378.603 43.8887C378.534 43.9445 378.454 43.9861 378.369 44.0109C378.306 44.036 378.238 44.0483 378.17 44.0471ZM373.977 35.074C373.863 35.075 373.751 35.0464 373.651 34.991C373.551 34.9355 373.467 34.8552 373.408 34.7577C372.439 33.2706 371.373 31.8488 370.218 30.5016C370.16 30.434 370.115 30.3556 370.087 30.2708C370.059 30.1861 370.048 30.0966 370.055 30.0076C370.062 29.9186 370.086 29.8318 370.126 29.7522C370.167 29.6726 370.223 29.6017 370.29 29.5437C370.357 29.4856 370.435 29.4414 370.519 29.4136C370.603 29.3858 370.692 29.3749 370.78 29.3816C370.868 29.3883 370.954 29.4125 371.033 29.4528C371.112 29.493 371.182 29.5485 371.239 29.616C372.439 31.0105 373.544 32.4837 374.546 34.0257C374.63 34.1746 374.656 34.3488 374.619 34.5154C374.582 34.682 374.486 34.8293 374.348 34.9294C374.24 35.0089 374.111 35.0559 373.977 35.0649V35.074ZM367.652 27.4744C367.479 27.4738 367.314 27.4057 367.191 27.2846C365.89 26.0668 364.523 24.9205 363.097 23.8508C363.026 23.7974 362.966 23.7305 362.921 23.6539C362.875 23.5773 362.846 23.4926 362.833 23.4045C362.821 23.3164 362.825 23.2266 362.847 23.1404C362.87 23.0542 362.908 22.9732 362.962 22.902C363.015 22.8308 363.082 22.7708 363.159 22.7255C363.235 22.6801 363.32 22.6503 363.408 22.6377C363.496 22.6251 363.586 22.63 363.672 22.6521C363.758 22.6742 363.839 22.713 363.911 22.7664C365.379 23.8643 366.785 25.0439 368.122 26.2997C368.222 26.3928 368.292 26.5142 368.322 26.6479C368.352 26.7816 368.341 26.9212 368.29 27.0484C368.239 27.1756 368.151 27.2845 368.037 27.3605C367.923 27.4365 367.789 27.4763 367.652 27.4744ZM359.727 21.4562C359.599 21.455 359.473 21.4174 359.365 21.3477C358.751 20.9682 358.109 20.5887 357.459 20.2182C356.555 19.7122 355.651 19.2061 354.694 18.7272C354.606 18.6921 354.527 18.6392 354.461 18.5719C354.395 18.5045 354.344 18.4241 354.311 18.3359C354.278 18.2477 354.264 18.1535 354.269 18.0595C354.275 17.9654 354.299 17.8735 354.342 17.7896C354.385 17.7058 354.445 17.6317 354.518 17.5723C354.591 17.5129 354.676 17.4693 354.767 17.4445C354.858 17.4196 354.953 17.4139 355.046 17.4279C355.139 17.4418 355.228 17.475 355.308 17.5254C356.257 18.0133 357.206 18.5194 358.127 19.0435C358.796 19.414 359.447 19.8025 360.079 20.2001C360.225 20.2933 360.33 20.4389 360.372 20.607C360.414 20.775 360.39 20.9528 360.305 21.1038C360.247 21.2069 360.163 21.2934 360.062 21.3551C359.961 21.4168 359.845 21.4516 359.727 21.4562ZM278.716 20.9953C278.597 20.994 278.48 20.9617 278.377 20.9015C278.274 20.8413 278.188 20.7553 278.129 20.6519C278.043 20.4994 278.02 20.3193 278.066 20.1503C278.112 19.9814 278.222 19.8371 278.373 19.7483C279.945 18.8447 281.562 17.941 283.198 17.182C283.359 17.1037 283.544 17.092 283.713 17.1496C283.882 17.2071 284.022 17.3292 284.102 17.4892C284.177 17.6514 284.186 17.8365 284.127 18.0052C284.068 18.174 283.945 18.313 283.785 18.3929C282.177 19.179 280.586 20.0194 279.041 20.914C278.94 20.9632 278.828 20.985 278.716 20.9773V20.9953ZM350.916 16.8657C350.822 16.8663 350.729 16.8446 350.645 16.8025C349.019 16.0886 347.338 15.4199 345.657 14.8235C345.487 14.7624 345.348 14.6362 345.271 14.4727C345.194 14.3091 345.185 14.1216 345.246 13.9515C345.307 13.7813 345.433 13.6424 345.597 13.5653C345.76 13.4882 345.948 13.4792 346.118 13.5403C347.826 14.1548 349.534 14.8325 351.197 15.5645C351.341 15.6261 351.46 15.7363 351.533 15.8762C351.605 16.016 351.627 16.1768 351.594 16.3308C351.561 16.4848 351.475 16.6224 351.351 16.72C351.228 16.8177 351.074 16.8692 350.916 16.8657ZM287.617 16.5856C287.483 16.5865 287.352 16.5474 287.241 16.4733C287.13 16.3992 287.044 16.2935 286.993 16.1699C286.956 16.087 286.936 15.9976 286.934 15.9068C286.933 15.8161 286.949 15.7259 286.983 15.6416C287.016 15.5573 287.067 15.4807 287.131 15.4162C287.194 15.3517 287.271 15.3007 287.355 15.2663C289.026 14.5614 290.743 13.9108 292.46 13.3235C292.546 13.2877 292.639 13.2702 292.733 13.272C292.826 13.2738 292.918 13.2948 293.003 13.3339C293.088 13.3729 293.164 13.4291 293.226 13.4988C293.288 13.5685 293.335 13.6504 293.364 13.7391C293.397 13.8262 293.412 13.9191 293.408 14.0121C293.404 14.1051 293.382 14.1965 293.343 14.2808C293.303 14.365 293.247 14.4405 293.178 14.5027C293.108 14.5649 293.027 14.6125 292.939 14.6428C291.249 15.2211 289.551 15.8627 287.915 16.5494C287.818 16.5764 287.716 16.5826 287.617 16.5675V16.5856ZM341.591 13.459C341.528 13.4678 341.464 13.4678 341.401 13.459C339.693 12.962 337.94 12.5554 336.196 12.1307C336.109 12.1117 336.026 12.0757 335.953 12.0248C335.88 11.9739 335.817 11.909 335.769 11.8339C335.721 11.7588 335.688 11.6749 335.672 11.5871C335.656 11.4992 335.658 11.4091 335.677 11.3219C335.696 11.2347 335.732 11.1521 335.782 11.0788C335.833 11.0054 335.898 10.9429 335.973 10.8946C336.048 10.8464 336.132 10.8134 336.22 10.7976C336.308 10.7817 336.398 10.7833 336.485 10.8023C338.293 11.1909 340.046 11.6517 341.781 12.1578C341.937 12.2035 342.072 12.3041 342.161 12.4412C342.249 12.5783 342.285 12.7427 342.262 12.9042C342.239 13.0657 342.158 13.2135 342.035 13.3204C341.912 13.4273 341.754 13.4861 341.591 13.4861V13.459ZM296.996 13.3235C296.849 13.3229 296.705 13.274 296.588 13.1843C296.47 13.0946 296.385 12.9689 296.346 12.8265C296.321 12.7416 296.313 12.6527 296.323 12.5649C296.333 12.477 296.36 12.392 296.403 12.3147C296.446 12.2373 296.503 12.1693 296.573 12.1145C296.642 12.0596 296.722 12.019 296.807 11.9951C298.551 11.5072 300.34 11.0915 302.12 10.6939C302.21 10.6651 302.306 10.6555 302.4 10.6658C302.494 10.6761 302.585 10.706 302.667 10.7535C302.748 10.8011 302.819 10.8653 302.875 10.942C302.931 11.0187 302.969 11.1061 302.989 11.1988C303.009 11.2914 303.009 11.3871 302.989 11.4798C302.97 11.5724 302.931 11.6599 302.875 11.7366C302.82 11.8134 302.749 11.8776 302.667 11.9253C302.585 11.9729 302.494 12.0028 302.4 12.0132C300.647 12.3837 298.894 12.8174 297.177 13.2964L296.996 13.3235ZM331.904 11.2812H331.768C330.006 11.0011 328.208 10.7752 326.437 10.6126C326.344 10.6115 326.251 10.5912 326.166 10.553C326.081 10.5147 326.005 10.4592 325.942 10.3901C325.88 10.3209 325.832 10.2395 325.802 10.1511C325.772 10.0626 325.761 9.96895 325.769 9.87597C325.777 9.78298 325.805 9.69267 325.849 9.6107C325.894 9.52873 325.955 9.45686 326.029 9.39961C326.102 9.34236 326.187 9.30095 326.278 9.27798C326.368 9.25502 326.462 9.25099 326.554 9.26615C328.362 9.4288 330.169 9.65471 331.976 9.94387C332.152 9.9749 332.31 10.0735 332.414 10.2186C332.519 10.3638 332.563 10.544 332.536 10.721C332.505 10.8672 332.425 10.9988 332.311 11.0953C332.197 11.1917 332.053 11.2476 331.904 11.2541V11.2812ZM306.702 11.218C306.541 11.2179 306.385 11.1606 306.262 11.0563C306.14 10.952 306.059 10.8075 306.033 10.6487C306.007 10.4704 306.052 10.289 306.158 10.1436C306.265 9.9982 306.424 9.90051 306.602 9.87158C308.409 9.60049 310.217 9.37458 312.024 9.22096C312.113 9.21325 312.203 9.22314 312.288 9.25008C312.373 9.27701 312.452 9.32045 312.52 9.37793C312.589 9.43541 312.645 9.5058 312.686 9.58507C312.727 9.66435 312.753 9.75095 312.76 9.83995C312.768 9.92895 312.758 10.0186 312.731 10.1038C312.704 10.189 312.661 10.268 312.603 10.3364C312.546 10.4048 312.476 10.4612 312.396 10.5024C312.317 10.5435 312.23 10.5687 312.141 10.5764C310.334 10.73 308.572 10.9379 306.81 11.218H306.702ZM322.018 10.3144C320.211 10.2511 318.404 10.2421 316.641 10.3144C316.553 10.3192 316.464 10.3061 316.38 10.2757C316.296 10.2453 316.22 10.1983 316.155 10.1375C316.09 10.0767 316.038 10.0034 316.002 9.92201C315.966 9.84059 315.947 9.75273 315.946 9.66374C315.942 9.57443 315.956 9.4853 315.988 9.40161C316.019 9.31792 316.067 9.24138 316.129 9.17652C316.19 9.11165 316.264 9.05977 316.346 9.02395C316.428 8.98812 316.516 8.96908 316.605 8.96795C318.413 8.90469 320.22 8.91373 322.027 8.96795C322.116 8.97029 322.204 8.99015 322.285 9.02639C322.366 9.06263 322.44 9.11454 322.501 9.17916C322.562 9.24377 322.61 9.31983 322.642 9.40298C322.674 9.48612 322.689 9.57473 322.687 9.66374C322.673 9.83325 322.598 9.99177 322.474 10.1086C322.351 10.2255 322.188 10.2923 322.018 10.2963V10.3144Z" fill="#E0E0E0"/>
<path d="M318.615 115.38V113.934H318.263C317.726 112.955 316.912 112.156 315.922 111.639C313.904 110.614 311.671 110.08 309.407 110.08C307.143 110.08 304.911 110.614 302.892 111.639C301.902 112.156 301.088 112.955 300.552 113.934H300.199V115.335C300.199 116.717 301.103 118.109 302.91 119.166C304.931 120.186 307.162 120.717 309.425 120.717C311.689 120.717 313.92 120.186 315.941 119.166C317.73 118.145 318.624 116.753 318.615 115.38Z" fill="#845EA8"/>
<path d="M309.407 119.256C314.493 119.256 318.615 116.873 318.615 113.934C318.615 110.994 314.493 108.611 309.407 108.611C304.322 108.611 300.199 110.994 300.199 113.934C300.199 116.873 304.322 119.256 309.407 119.256Z" fill="#5F2A93"/>
<path d="M307.043 69.6191V113.31C307.062 113.517 307.136 113.716 307.257 113.886C307.377 114.055 307.54 114.19 307.73 114.277C308.249 114.54 308.824 114.677 309.406 114.677C309.988 114.677 310.563 114.54 311.082 114.277C311.274 114.192 311.439 114.058 311.562 113.888C311.684 113.718 311.759 113.518 311.778 113.31V69.6191H307.043Z" fill="#845EA8"/>
<path d="M320.027 36.9171C317.723 35.5887 315.626 35.4803 314.054 36.3568L284.785 53.2729L299.469 82.7223L328.838 65.734V52.8482C328.838 46.8571 324.889 39.7274 320.027 36.9171Z" fill="#5F2A93"/>
<path d="M299.471 69.8275V82.7223L281.859 72.5474V59.6616C281.859 53.6705 285.799 51.0951 290.661 53.9054C293.778 55.7127 296.516 59.273 298.08 63.1767C298.954 65.2874 299.426 67.5432 299.471 69.8275Z" fill="#845EA8"/>
<path d="M299.471 69.8265V82.7214L281.859 72.5465L298.08 63.1758C298.954 65.2865 299.426 67.5422 299.471 69.8265Z" fill="#341256"/>
<path d="M296.532 74.2449C294.915 69.5641 289.656 63.4917 284.785 60.6904C279.914 57.8892 277.294 59.3982 278.911 64.0791L281.848 72.5552L299.469 82.7301C299.469 82.7301 298.159 78.9258 296.532 74.2449Z" fill="#5F2A93"/>
<path d="M308.651 70.3148L307.666 69.7455C307.454 69.6483 307.221 69.6088 306.989 69.631C306.757 69.6532 306.536 69.7364 306.347 69.872C305.802 70.2281 305.349 70.7074 305.024 71.2709C304.699 71.8344 304.512 72.4665 304.476 73.116C304.451 73.3487 304.49 73.5837 304.586 73.7966C304.683 74.0096 304.836 74.1927 305.027 74.3269L305.931 74.851L306.103 74.5709C306.29 74.5303 306.47 74.4602 306.636 74.363C307.18 74.0088 307.633 73.5313 307.958 72.9692C308.283 72.4071 308.471 71.7763 308.506 71.128C308.505 70.9664 308.484 70.8055 308.443 70.6491L308.651 70.3148Z" fill="#341256"/>
<path d="M307.285 70.4244C306.74 70.7786 306.287 71.2561 305.962 71.8182C305.637 72.3803 305.45 73.0111 305.414 73.6594C305.414 74.8522 306.254 75.3311 307.285 74.7347C307.829 74.381 308.283 73.9036 308.608 73.3414C308.933 72.7792 309.12 72.1482 309.155 71.4997C309.182 70.3069 308.279 69.828 307.285 70.4244Z" fill="#845EA8"/>
<path d="M307.288 73.0896C307.217 73.0896 307.147 73.0756 307.081 73.0484C307.015 73.0211 306.955 72.9812 306.905 72.9308C306.855 72.8805 306.815 72.8207 306.787 72.7549C306.76 72.6892 306.746 72.6186 306.746 72.5474V53.9055C306.746 53.7617 306.803 53.6238 306.905 53.5221C307.007 53.4204 307.144 53.3633 307.288 53.3633C307.432 53.3633 307.57 53.4204 307.672 53.5221C307.773 53.6238 307.83 53.7617 307.83 53.9055V72.5474C307.83 72.6912 307.773 72.8292 307.672 72.9308C307.57 73.0325 307.432 73.0896 307.288 73.0896Z" fill="#341256"/>
<path d="M307.773 54.3942V59.2558L312.987 53.9062L307.773 54.3942Z" fill="#845EA8"/>
<path d="M33.6428 215.656C33.191 215.9 24.8957 218.249 21.8233 214.192C18.7509 210.135 23.8565 203.809 20.9739 201.478C18.0913 199.146 10.0128 201.478 8.06997 196.58C6.12716 191.682 11.8833 189.568 8.6483 184.625C6.60608 181.508 0.895111 179.791 1.15716 176.89C1.53669 172.652 9.3441 171.468 16.1575 176.05C22.9709 180.631 26.1517 176.872 28.3114 176.565C30.4711 176.257 35.1338 176.935 34.9893 184.526C34.8447 192.116 33.6428 215.656 33.6428 215.656Z" fill="#6628A5"/>
<path d="M34.1934 204.894C34.0856 204.894 33.9813 204.855 33.8988 204.786C33.8162 204.717 33.7606 204.621 33.7416 204.514C31.365 190.056 14.6207 178.372 5.90963 175.86C5.852 175.845 5.7981 175.818 5.75118 175.781C5.70426 175.744 5.66528 175.698 5.63658 175.646C5.60788 175.593 5.59006 175.536 5.58418 175.476C5.57831 175.417 5.5845 175.357 5.60239 175.3C5.63594 175.185 5.71382 175.088 5.81889 175.03C5.92396 174.973 6.04761 174.959 6.16264 174.993C15.0634 177.568 32.1964 189.577 34.6362 204.37C34.6545 204.487 34.6259 204.607 34.5566 204.703C34.4872 204.8 34.3827 204.865 34.2657 204.885L34.1934 204.894Z" fill="white"/>
<path d="M14.4406 192.794C14.3412 192.795 14.2443 192.763 14.1648 192.703C14.0854 192.643 14.0278 192.559 14.0011 192.464C13.9743 192.368 13.9798 192.266 14.0168 192.174C14.0538 192.081 14.1202 192.004 14.2057 191.953C14.4768 191.791 20.9287 188.022 27.2722 189.785C27.3921 189.816 27.4946 189.893 27.5573 190C27.62 190.107 27.6377 190.234 27.6066 190.354C27.5754 190.474 27.4979 190.576 27.3912 190.639C27.2844 190.702 27.1571 190.719 27.0373 190.688C21.0552 189.025 14.7298 192.721 14.6665 192.758C14.5962 192.791 14.5178 192.803 14.4406 192.794Z" fill="white"/>
<path d="M269.872 139.308C273.433 139.796 279.496 137.735 279.93 131.807C280.364 125.88 282.812 124.271 287.304 123.304C291.795 122.337 293.114 120.774 293.629 117.955C294.144 115.135 290.728 111.765 291.686 107.518C292.644 103.271 295.843 103.28 298.988 98.4813C301.003 95.3909 296.873 90.6739 289.996 92.698C283.12 94.7222 283.671 99.159 276.794 99.7283C269.918 100.298 265.607 104.472 265.472 109.668C265.336 114.864 269.872 139.308 269.872 139.308Z" fill="#6628A5"/>
<path opacity="0.2" d="M269.872 139.308C273.433 139.796 279.496 137.735 279.93 131.807C280.364 125.88 282.812 124.271 287.304 123.304C291.795 122.337 293.114 120.774 293.629 117.955C294.144 115.135 290.728 111.765 291.686 107.518C292.644 103.271 295.843 103.28 298.988 98.4813C301.003 95.3909 296.873 90.6739 289.996 92.698C283.12 94.7222 283.671 99.159 276.794 99.7283C269.918 100.298 265.607 104.472 265.472 109.668C265.336 114.864 269.872 139.308 269.872 139.308Z" fill="black"/>
<path d="M268.572 127.939H268.518C268.46 127.927 268.404 127.904 268.355 127.871C268.306 127.838 268.264 127.795 268.231 127.746C268.198 127.696 268.176 127.641 268.165 127.582C268.153 127.524 268.154 127.464 268.165 127.406C271.491 110.969 289.627 95.9234 294.046 94.3872C294.165 94.3477 294.296 94.3574 294.409 94.4141C294.521 94.4709 294.607 94.5701 294.646 94.69C294.686 94.8098 294.676 94.9404 294.62 95.0531C294.563 95.1658 294.464 95.2513 294.344 95.2909C290.024 96.7909 272.304 111.556 269.042 127.632C269.008 127.728 268.944 127.81 268.859 127.865C268.774 127.921 268.673 127.947 268.572 127.939Z" fill="white"/>
<path d="M29.8477 122.112C29.8918 121.297 30.1276 120.504 30.5358 119.798C30.944 119.091 31.5132 118.491 32.1971 118.045L152.299 48.7005C153.027 48.3349 153.83 48.1445 154.644 48.1445C155.458 48.1445 156.262 48.3349 156.989 48.7005L159.637 50.2367C160.322 50.6803 160.893 51.2802 161.301 51.9871C161.709 52.694 161.944 53.4877 161.986 54.3031V146.365C161.94 147.18 161.703 147.972 161.295 148.678C160.887 149.384 160.319 149.985 159.637 150.432L39.5346 219.768C38.8067 220.137 38.0017 220.33 37.1852 220.33C36.3687 220.33 35.5637 220.137 34.8357 219.768L32.1971 218.241C31.5142 217.794 30.9458 217.194 30.5377 216.487C30.1296 215.781 29.8932 214.989 29.8477 214.174V122.112Z" fill="#6628A5"/>
<path opacity="0.3" d="M29.8477 122.112C29.8918 121.297 30.1276 120.504 30.5358 119.798C30.944 119.091 31.5132 118.491 32.1971 118.045L152.299 48.7005C153.027 48.3349 153.83 48.1445 154.644 48.1445C155.458 48.1445 156.262 48.3349 156.989 48.7005L159.637 50.2367C160.322 50.6803 160.893 51.2802 161.301 51.9871C161.709 52.694 161.944 53.4877 161.986 54.3031V146.365C161.94 147.18 161.703 147.972 161.295 148.678C160.887 149.384 160.319 149.985 159.637 150.432L39.5346 219.768C38.8067 220.137 38.0017 220.33 37.1852 220.33C36.3687 220.33 35.5637 220.137 34.8357 219.768L32.1971 218.241C31.5142 217.794 30.9458 217.194 30.5377 216.487C30.1296 215.781 29.8932 214.989 29.8477 214.174V122.112Z" fill="black"/>
<path d="M40.8539 125.763L30.5344 119.799C30.1125 120.499 29.8762 121.295 29.8477 122.112V214.174C29.8932 214.989 30.1296 215.781 30.5377 216.488C30.9458 217.194 31.5142 217.795 32.1971 218.241L34.8357 219.768C35.5637 220.138 36.3687 220.331 37.1852 220.331C38.0017 220.331 38.8067 220.138 39.5346 219.768L40.8539 219.009V125.763Z" fill="#6628A5"/>
<path opacity="0.5" d="M40.8539 125.763L30.5344 119.799C30.1125 120.499 29.8762 121.295 29.8477 122.112V214.174C29.8932 214.989 30.1296 215.781 30.5377 216.488C30.9458 217.194 31.5142 217.795 32.1971 218.241L34.8357 219.768C35.5637 220.138 36.3687 220.331 37.1852 220.331C38.0017 220.331 38.8067 220.138 39.5346 219.768L40.8539 219.009V125.763Z" fill="black"/>
<path d="M161.99 54.3048V146.367C161.96 147.21 161.707 148.03 161.258 148.744C160.911 149.345 160.443 149.868 159.885 150.28L159.794 150.334L159.641 150.433L39.5384 219.769C39.3085 219.932 39.0415 220.033 38.7619 220.065C38.4823 220.097 38.1992 220.057 37.939 219.95C37.6888 219.793 37.4866 219.569 37.3544 219.305C37.2221 219.04 37.1649 218.745 37.1889 218.45V126.352C37.1685 126.022 37.2283 125.692 37.3632 125.391C37.4981 125.089 37.7042 124.825 37.9636 124.621C38.223 124.417 38.5281 124.278 38.8528 124.218C39.1774 124.157 39.5119 124.176 39.8276 124.273L90.3317 136.283L96.9463 137.855C97.7271 138.001 98.5329 137.931 99.2767 137.652C100.021 137.374 100.674 136.897 101.166 136.274L108.829 125.602L160.409 53.7897C161.276 52.5788 161.99 52.8048 161.99 54.3048Z" fill="#6628A5"/>
<path opacity="0.2" d="M161.99 54.3048V146.367C161.96 147.21 161.707 148.03 161.258 148.744C160.911 149.345 160.443 149.868 159.885 150.28L159.794 150.334L159.641 150.433L39.5384 219.769C39.3085 219.932 39.0415 220.033 38.7619 220.065C38.4823 220.097 38.1992 220.057 37.939 219.95C37.6888 219.793 37.4866 219.569 37.3544 219.305C37.2221 219.04 37.1649 218.745 37.1889 218.45V126.352C37.1685 126.022 37.2283 125.692 37.3632 125.391C37.4981 125.089 37.7042 124.825 37.9636 124.621C38.223 124.417 38.5281 124.278 38.8528 124.218C39.1774 124.157 39.5119 124.176 39.8276 124.273L90.3317 136.283L96.9463 137.855C97.7271 138.001 98.5329 137.931 99.2767 137.652C100.021 137.374 100.674 136.897 101.166 136.274L108.829 125.602L160.409 53.7897C161.276 52.5788 161.99 52.8048 161.99 54.3048Z" fill="black"/>
<path d="M159.636 150.431L159.789 150.332L159.88 150.277C160.438 149.866 160.906 149.342 161.253 148.741C161.697 148.038 161.95 147.231 161.985 146.401L108.824 125.617L144.427 159.232L159.636 150.431Z" fill="#6628A5"/>
<path opacity="0.6" d="M159.636 150.431L159.789 150.332L159.88 150.277C160.438 149.866 160.906 149.342 161.253 148.741C161.697 148.038 161.95 147.231 161.985 146.401L108.824 125.617L144.427 159.232L159.636 150.431Z" fill="black"/>
<path d="M37.1864 218.45C37.1518 218.75 37.2021 219.054 37.3315 219.327C37.4609 219.6 37.6641 219.831 37.9183 219.995C38.1786 220.102 38.4616 220.141 38.7412 220.11C39.0208 220.078 39.2879 219.976 39.5178 219.814L80.8862 195.859L90.3292 136.219L37.1864 216.886V218.45Z" fill="#6628A5"/>
<path opacity="0.6" d="M37.1864 218.45C37.1518 218.75 37.2021 219.054 37.3315 219.327C37.4609 219.6 37.6641 219.831 37.9183 219.995C38.1786 220.102 38.4616 220.141 38.7412 220.11C39.0208 220.078 39.2879 219.976 39.5178 219.814L80.8862 195.859L90.3292 136.219L37.1864 216.886V218.45Z" fill="black"/>
<path d="M161.253 148.742C160.906 149.343 160.438 149.866 159.879 150.278L159.789 150.332L39.533 219.768C39.3032 219.93 39.0361 220.031 38.7565 220.063C38.4769 220.095 38.1939 220.055 37.9336 219.948L95.45 128.13C96.6059 126.291 98.3858 124.93 100.463 124.296C102.541 123.662 104.778 123.798 106.763 124.678L161.253 148.742Z" fill="#6628A5"/>
<path opacity="0.2" d="M161.253 148.742C160.906 149.343 160.438 149.866 159.879 150.278L159.789 150.332L39.533 219.768C39.3032 219.93 39.0361 220.031 38.7565 220.063C38.4769 220.095 38.1939 220.055 37.9336 219.948L95.45 128.13C96.6059 126.291 98.3858 124.93 100.463 124.296C102.541 123.662 104.778 123.798 106.763 124.678L161.253 148.742Z" fill="black"/>
<path d="M37.1875 123.64L92.4267 148.038C94.4156 148.916 96.6543 149.048 98.7324 148.409C100.81 147.77 102.588 146.403 103.74 144.559L161.745 51.7285L37.1875 123.64Z" fill="#6628A5"/>
<path opacity="0.6" d="M37.1875 123.64L92.4267 148.038C94.4156 148.916 96.6543 149.048 98.7324 148.409C100.81 147.77 102.588 146.403 103.74 144.559L161.745 51.7285L37.1875 123.64Z" fill="black"/>
<path d="M37.1875 123.64L92.8153 144.423C94.7376 145.141 96.847 145.183 98.7965 144.543C100.746 143.902 102.419 142.617 103.541 140.899L161.745 51.7285L37.1875 123.64Z" fill="#6628A5"/>
<path opacity="0.2" d="M37.1875 123.64L92.8153 144.423C94.7376 145.141 96.847 145.183 98.7965 144.543C100.746 143.902 102.419 142.617 103.541 140.899L161.745 51.7285L37.1875 123.64Z" fill="black"/>
<path d="M50.3594 133.452C50.4014 132.637 50.6362 131.843 51.0447 131.136C51.4531 130.43 52.0234 129.83 52.7088 129.386L172.811 60.0411C173.539 59.6713 174.344 59.4785 175.16 59.4785C175.977 59.4785 176.782 59.6713 177.51 60.0411L180.158 61.5683C180.84 62.0145 181.407 62.6152 181.814 63.3217C182.22 64.0282 182.455 64.8206 182.498 65.6346V157.697C182.453 158.511 182.218 159.303 181.812 160.009C181.405 160.715 180.839 161.316 180.158 161.763L60.0463 231.099C59.3187 231.465 58.5157 231.655 57.7014 231.655C56.8871 231.655 56.0841 231.465 55.3565 231.099L52.7088 229.572C52.0264 229.125 51.4584 228.525 51.0504 227.818C50.6423 227.112 50.4056 226.32 50.3594 225.506V133.452Z" fill="#5F2A93"/>
<path d="M50.3594 133.452C50.4014 132.637 50.6362 131.843 51.0447 131.136C51.4531 130.43 52.0234 129.83 52.7088 129.386L172.811 60.0411C173.539 59.6713 174.344 59.4785 175.16 59.4785C175.977 59.4785 176.782 59.6713 177.51 60.0411L180.158 61.5683C180.84 62.0145 181.407 62.6152 181.814 63.3217C182.22 64.0282 182.455 64.8206 182.498 65.6346V157.697C182.453 158.511 182.218 159.303 181.812 160.009C181.405 160.715 180.839 161.316 180.158 161.763L60.0463 231.099C59.3187 231.465 58.5157 231.655 57.7014 231.655C56.8871 231.655 56.0841 231.465 55.3565 231.099L52.7088 229.572C52.0264 229.125 51.4584 228.525 51.0504 227.818C50.6423 227.112 50.4056 226.32 50.3594 225.506V133.452Z" fill="#5F2A93"/>
<path d="M61.3747 137.121L51.0461 131.166C50.6231 131.866 50.3867 132.662 50.3594 133.479V225.515C50.4056 226.329 50.6423 227.121 51.0504 227.827C51.4584 228.533 52.0264 229.134 52.7088 229.581L55.3565 231.108C56.0841 231.474 56.8871 231.664 57.7014 231.664C58.5157 231.664 59.3187 231.474 60.0463 231.108L61.3747 230.34V137.121Z" fill="#341256"/>
<path d="M182.505 65.6351V157.697C182.474 158.54 182.222 159.36 181.773 160.074C181.426 160.675 180.958 161.198 180.399 161.61L180.309 161.664L180.155 161.764L60.0529 231.1C59.8231 231.262 59.556 231.364 59.2764 231.395C58.9968 231.427 58.7137 231.387 58.4535 231.28C58.1993 231.117 57.996 230.886 57.8666 230.612C57.7373 230.339 57.687 230.035 57.7215 229.735V137.682C57.7011 137.352 57.7609 137.023 57.8958 136.721C58.0307 136.42 58.2367 136.156 58.4962 135.951C58.7556 135.747 59.0607 135.609 59.3854 135.548C59.71 135.487 60.0445 135.507 60.3601 135.604L110.864 147.613L117.479 149.185C118.26 149.331 119.066 149.261 119.809 148.983C120.553 148.704 121.207 148.227 121.699 147.604L129.353 136.932L180.932 65.12C181.764 63.9273 182.505 64.1351 182.505 65.6351Z" fill="#845EA8"/>
<path d="M180.159 161.766L180.313 161.666L180.403 161.612C180.962 161.2 181.43 160.677 181.777 160.076C182.215 159.374 182.464 158.571 182.499 157.745L129.348 136.961L164.942 170.558L180.159 161.766Z" fill="#341256"/>
<path d="M57.7056 229.745C57.671 230.045 57.7213 230.349 57.8507 230.622C57.9801 230.896 58.1833 231.127 58.4375 231.29C58.6978 231.397 58.9808 231.437 59.2604 231.405C59.54 231.374 59.8071 231.272 60.0369 231.11L101.387 207.236L110.83 147.596L57.6875 228.2L57.7056 229.745Z" fill="#341256"/>
<path d="M181.767 160.075C181.42 160.676 180.952 161.199 180.394 161.611L180.303 161.665L60.0565 231.101C59.8266 231.263 59.5595 231.365 59.2799 231.396C59.0003 231.428 58.7173 231.388 58.457 231.282L115.964 139.472C117.118 137.63 118.896 136.265 120.974 135.628C123.052 134.99 125.29 135.123 127.278 136.002L181.767 160.075Z" fill="#845EA8"/>
<path d="M57.707 134.98L112.946 159.378C114.934 160.254 117.171 160.384 119.247 159.745C121.323 159.106 123.099 157.741 124.251 155.899L182.255 63.0234L57.707 134.98Z" fill="#341256"/>
<path d="M57.707 134.98L113.326 155.763C115.249 156.484 117.361 156.527 119.312 155.886C121.263 155.246 122.938 153.959 124.061 152.239L182.255 63.0234L57.707 134.98Z" fill="#845EA8"/>
<path d="M138.457 206.53V114.467C138.541 112.721 139.087 111.028 140.038 109.561L197.32 29.7968C198.365 28.3396 199.82 27.2263 201.5 26.5987C203.18 25.9711 205.009 25.8576 206.754 26.2727L260.619 39.0772C262.355 39.5392 264.03 40.2065 265.608 41.0652L268.255 42.5923C268.936 43.0401 269.502 43.6412 269.909 44.3474C270.315 45.0535 270.55 45.8451 270.596 46.6587V138.721C270.549 139.534 270.313 140.325 269.907 141.031C269.5 141.737 268.935 142.339 268.255 142.787L148.144 212.123C147.417 212.491 146.614 212.682 145.799 212.682C144.984 212.682 144.181 212.491 143.454 212.123L140.806 210.596C140.124 210.15 139.555 209.549 139.147 208.843C138.739 208.137 138.503 207.344 138.457 206.53Z" fill="#6628A5"/>
<path opacity="0.3" d="M138.457 206.53V114.467C138.541 112.721 139.087 111.028 140.038 109.561L197.32 29.7968C198.365 28.3396 199.82 27.2263 201.5 26.5987C203.18 25.9711 205.009 25.8576 206.754 26.2727L260.619 39.0772C262.355 39.5392 264.03 40.2065 265.608 41.0652L268.255 42.5923C268.936 43.0401 269.502 43.6412 269.909 44.3474C270.315 45.0535 270.55 45.8451 270.596 46.6587V138.721C270.549 139.534 270.313 140.325 269.907 141.031C269.5 141.737 268.935 142.339 268.255 142.787L148.144 212.123C147.417 212.491 146.614 212.682 145.799 212.682C144.984 212.682 144.181 212.491 143.454 212.123L140.806 210.596C140.124 210.15 139.555 209.549 139.147 208.843C138.739 208.137 138.503 207.344 138.457 206.53Z" fill="white"/>
<path d="M149.461 69.9733V187.446C149.461 188.937 150.518 189.551 151.81 188.801L264.575 123.74C265.259 123.295 265.829 122.695 266.237 121.988C266.646 121.281 266.881 120.488 266.924 119.673V2.20067C266.924 0.700634 265.876 0.0951985 264.575 0.845216L151.81 65.907C151.127 66.3521 150.557 66.9524 150.149 67.659C149.741 68.3656 149.505 69.1585 149.461 69.9733Z" fill="#FAFAFA"/>
<path d="M150.764 189.587C150.473 189.589 150.186 189.514 149.933 189.37C149.623 189.164 149.376 188.878 149.217 188.542C149.058 188.206 148.993 187.833 149.029 187.463V69.9908C149.072 69.0955 149.328 68.2233 149.776 67.4469C150.224 66.6704 150.851 66.0122 151.604 65.5269L264.369 0.465151C264.663 0.225397 265.024 0.0808825 265.402 0.0508037C265.781 0.0207249 266.159 0.106505 266.488 0.296754C266.816 0.487002 267.079 0.772709 267.241 1.11591C267.404 1.45912 267.458 1.84358 267.396 2.21821V119.691C267.354 120.585 267.098 121.456 266.65 122.231C266.202 123.006 265.575 123.663 264.821 124.146L152.056 189.207C151.667 189.446 151.221 189.577 150.764 189.587ZM265.625 0.926007C265.333 0.9427 265.05 1.03284 264.803 1.18806L152.038 66.295C151.424 66.7024 150.913 67.2465 150.545 67.8846C150.176 68.5227 149.961 69.2374 149.915 69.9728V187.445C149.86 187.657 149.877 187.881 149.962 188.083C150.047 188.284 150.195 188.453 150.384 188.562C150.574 188.672 150.793 188.716 151.01 188.689C151.227 188.662 151.43 188.565 151.586 188.412L264.351 123.35C264.965 122.944 265.477 122.4 265.845 121.761C266.214 121.123 266.429 120.408 266.475 119.673V2.20014C266.5 1.98821 266.471 1.77329 266.39 1.57565C266.31 1.37802 266.18 1.2042 266.014 1.07059C265.9 0.988101 265.765 0.938125 265.625 0.926007Z" fill="#E0E0E0"/>
<path d="M147.031 116.709L138.899 112.01C138.635 112.804 138.489 113.632 138.465 114.468V206.53C138.51 207.344 138.747 208.137 139.155 208.843C139.563 209.55 140.131 210.15 140.814 210.596L143.453 212.123C144.179 212.493 144.983 212.686 145.798 212.686C146.613 212.686 147.416 212.493 148.143 212.123L149.272 211.482L147.031 116.709Z" fill="#6628A5"/>
<g opacity="0.1">
<path d="M147.031 116.711L138.899 112.012C138.635 112.806 138.489 113.634 138.465 114.47V206.532C138.51 207.346 138.747 208.139 139.155 208.845C139.563 209.551 140.131 210.152 140.814 210.598L143.453 212.125C144.179 212.495 144.983 212.688 145.798 212.688C146.613 212.688 147.416 212.495 148.143 212.125L149.272 211.484L147.031 116.711Z" fill="black"/>
</g>
<path d="M270.602 46.6586V138.721C270.572 139.564 270.319 140.384 269.87 141.097C269.523 141.699 269.056 142.222 268.497 142.634L268.406 142.688L268.253 142.787L148.151 212.123C147.921 212.285 147.654 212.387 147.374 212.419C147.094 212.45 146.811 212.411 146.551 212.304C146.297 212.14 146.094 211.909 145.964 211.636C145.835 211.363 145.785 211.059 145.819 210.759V118.705C145.799 118.376 145.859 118.046 145.993 117.745C146.128 117.443 146.334 117.179 146.594 116.975C146.853 116.77 147.158 116.632 147.483 116.571C147.808 116.511 148.142 116.53 148.458 116.627L198.935 128.636L205.549 130.209C206.332 130.357 207.139 130.288 207.885 130.009C208.63 129.73 209.285 129.252 209.778 128.627L217.441 117.955L269.021 46.1435C269.888 44.9507 270.602 45.1585 270.602 46.6586Z" fill="#6628A5"/>
<path opacity="0.3" d="M270.602 46.6586V138.721C270.572 139.564 270.319 140.384 269.87 141.097C269.523 141.699 269.056 142.222 268.497 142.634L268.406 142.688L268.253 142.787L148.151 212.123C147.921 212.285 147.654 212.387 147.374 212.419C147.094 212.45 146.811 212.411 146.551 212.304C146.297 212.14 146.094 211.909 145.964 211.636C145.835 211.363 145.785 211.059 145.819 210.759V118.705C145.799 118.376 145.859 118.046 145.993 117.745C146.128 117.443 146.334 117.179 146.594 116.975C146.853 116.77 147.158 116.632 147.483 116.571C147.808 116.511 148.142 116.53 148.458 116.627L198.935 128.636L205.549 130.209C206.332 130.357 207.139 130.288 207.885 130.009C208.63 129.73 209.285 129.252 209.778 128.627L217.441 117.955L269.021 46.1435C269.888 44.9507 270.602 45.1585 270.602 46.6586Z" fill="white"/>
<path d="M268.253 142.786L268.406 142.687L268.497 142.633C269.056 142.221 269.523 141.698 269.87 141.097C270.309 140.392 270.558 139.586 270.593 138.756L217.441 117.973L253.036 151.579L268.253 142.786Z" fill="#6628A5"/>
<path d="M145.803 210.769C145.769 211.069 145.819 211.373 145.948 211.646C146.078 211.919 146.281 212.15 146.535 212.314C146.795 212.421 147.078 212.46 147.358 212.429C147.638 212.397 147.905 212.295 148.135 212.133L189.485 188.259L198.928 128.619L145.785 209.223L145.803 210.769Z" fill="#6628A5"/>
<path d="M269.874 141.097C269.527 141.699 269.059 142.222 268.5 142.634L268.41 142.688L148.154 212.123C147.924 212.285 147.657 212.387 147.378 212.419C147.098 212.45 146.815 212.411 146.555 212.304L204.062 120.494C205.215 118.654 206.992 117.291 209.068 116.654C211.144 116.016 213.38 116.148 215.366 117.024L269.874 141.097Z" fill="#6628A5"/>
<path opacity="0.3" d="M269.874 141.097C269.527 141.699 269.059 142.222 268.5 142.634L268.41 142.688L148.154 212.123C147.924 212.285 147.657 212.387 147.378 212.419C147.098 212.45 146.815 212.411 146.555 212.304L204.062 120.494C205.215 118.654 206.992 117.291 209.068 116.654C211.144 116.016 213.38 116.148 215.366 117.024L269.874 141.097Z" fill="white"/>
<path d="M199.114 97.0268C198.06 97.19 196.982 97.0942 195.973 96.7479C194.964 96.4016 194.054 95.815 193.322 95.0388C191.948 93.5117 191.262 91.1532 191.262 87.9814C191.264 84.4027 192.031 80.8658 193.512 77.6077C195.032 74.2551 197.13 71.1962 199.711 68.5713C202.486 65.6939 205.649 63.2181 209.109 61.2157C212.5 59.2639 215.395 58.1825 217.792 57.9717C220.205 57.7548 222.021 58.3783 223.268 59.8242C224.515 61.27 225.13 63.4839 225.13 66.4478C225.182 69.3873 224.486 72.2918 223.106 74.8878C221.89 77.2387 220.036 79.1993 217.756 80.5445C216.969 81.1036 216.005 81.3544 215.045 81.2493C214.704 81.1818 214.389 81.0171 214.139 80.775C213.889 80.533 213.714 80.2239 213.636 79.8849C212.883 81.3081 211.927 82.614 210.798 83.7614C209.656 84.9401 208.354 85.9529 206.931 86.7706C204.473 88.1621 202.512 88.5778 201.066 88.0989C199.62 87.62 198.934 86.1561 198.934 83.7163C198.954 80.6502 199.899 77.6616 201.644 75.1408C203.545 72.3461 206.069 70.032 209.018 68.3816C210.25 67.6481 211.588 67.1115 212.985 66.7912C214.024 66.5098 215.118 66.5098 216.157 66.7912V76.3065C216.157 77.0745 216.292 77.5444 216.554 77.7252C216.817 77.9059 217.25 77.8155 217.865 77.4631C219.009 76.7185 219.857 75.5961 220.259 74.2914C220.87 72.5288 221.161 70.6712 221.118 68.8063C221.118 66.4327 220.6 64.7068 219.564 63.6285C219.01 63.0871 218.334 62.6864 217.594 62.46C216.853 62.2336 216.069 62.1881 215.307 62.3272C213.101 62.6643 210.988 63.4517 209.099 64.6405C205.104 66.8567 201.66 69.9455 199.024 73.6769C196.588 77.1786 195.294 81.348 195.319 85.6139C195.319 88.2103 195.852 90.105 196.918 91.2978C197.471 91.8948 198.163 92.3459 198.933 92.6107C199.702 92.8756 200.525 92.9461 201.328 92.8159C203.577 92.4973 205.733 91.7058 207.654 90.4935C208.979 89.7268 210.234 88.8437 211.404 87.8549C212.492 86.956 213.483 85.9443 214.359 84.8368C214.449 84.7202 214.556 84.6168 214.675 84.5295C214.756 84.4844 214.838 84.5295 214.91 84.638L215.904 86.4452C215.94 86.5169 215.967 86.5928 215.985 86.6712C215.954 86.8724 215.855 87.0571 215.705 87.1953C214.613 88.508 213.403 89.7179 212.091 90.8098C210.708 91.9694 209.23 93.0093 207.672 93.9183C205.076 95.5576 202.157 96.6179 199.114 97.0268ZM210.862 80.0385C211.722 79.0233 212.224 77.7529 212.289 76.4239V70.9118C211 71.0207 209.757 71.4492 208.675 72.1588C206.951 73.1284 205.483 74.4944 204.392 76.1438C203.368 77.657 202.817 79.4405 202.81 81.2674C202.81 82.7946 203.19 83.7072 203.958 83.9783C204.726 84.2494 205.91 83.9783 207.527 83.0114C208.837 82.2538 209.983 81.2432 210.898 80.0385H210.862Z" fill="#E0E0E0"/>
<path d="M84.0272 106.083L75.2167 100.977H75.1535C72.1444 99.2784 67.9967 99.5315 63.4062 102.179C54.1801 107.502 46.707 120.451 46.707 131.095C46.707 136.418 48.5685 140.132 51.5776 141.939L59.7736 146.629L61.2556 144.162C62.9363 143.785 64.5508 143.158 66.0448 142.301C75.2619 136.969 82.744 124.02 82.744 113.384C82.739 111.947 82.5631 110.515 82.2199 109.119L84.0272 106.083Z" fill="#F28F8F"/>
<path d="M84.0272 106.083L75.2167 100.977H75.1535C72.1444 99.2784 67.9967 99.5315 63.4062 102.179C54.1801 107.502 46.707 120.451 46.707 131.095C46.707 136.418 48.5685 140.132 51.5776 141.939L59.7736 146.629L61.2556 144.162C62.9363 143.785 64.5508 143.158 66.0448 142.301C75.2619 136.969 82.744 124.02 82.744 113.384C82.739 111.947 82.5631 110.515 82.2199 109.119L84.0272 106.083Z" fill="#6628A5"/>
<path opacity="0.4" d="M84.0272 106.083L75.2167 100.977H75.1535C72.1444 99.2784 67.9967 99.5315 63.4062 102.179C54.1801 107.502 46.707 120.451 46.707 131.095C46.707 136.418 48.5685 140.132 51.5776 141.939L59.7736 146.629L61.2556 144.162C62.9363 143.785 64.5508 143.158 66.0448 142.301C75.2619 136.969 82.744 124.02 82.744 113.384C82.739 111.947 82.5631 110.515 82.2199 109.119L84.0272 106.083Z" fill="black"/>
<path d="M71.875 107.033C62.6488 112.364 55.1758 125.313 55.1758 135.949C55.1758 146.585 62.6488 150.913 71.875 145.591C81.1011 140.268 88.5741 127.319 88.5741 116.674C88.5741 106.03 81.1011 101.71 71.875 107.033Z" fill="#6628A5"/>
<path d="M65.348 138.496C65.1763 138.496 65.0859 138.396 65.0859 138.242C65.1037 138.072 65.1527 137.907 65.2305 137.755L66.0709 135.866C66.1265 135.681 66.2368 135.517 66.3872 135.396C66.5123 135.339 66.6475 135.309 66.7848 135.306C67.5367 135.261 68.2787 135.112 68.9896 134.863C69.9349 134.544 70.8436 134.126 71.7005 133.616C73.0338 132.894 74.203 131.903 75.1344 130.706C75.8329 129.801 76.2225 128.696 76.2458 127.552C76.2458 125.555 75.0259 125.266 72.5861 126.649L70.2096 128.086C69.821 128.303 69.5499 128.384 69.3872 128.312C69.2246 128.239 69.1433 128.022 69.1433 127.661V126.911C69.1304 126.592 69.2155 126.276 69.3872 126.007C69.6049 125.713 69.8859 125.473 70.2096 125.302L72.568 123.938C73.5131 123.424 74.3145 122.681 74.8994 121.778C75.3895 121.021 75.6586 120.141 75.6765 119.239C75.6765 117.305 74.3151 117.125 71.5921 118.697C69.9176 119.651 68.4098 120.872 67.1282 122.311C67.0077 122.447 66.8746 122.571 66.7306 122.682C66.6774 122.707 66.6173 122.714 66.5599 122.701C66.5025 122.687 66.4512 122.655 66.4143 122.61L65.61 121.706C65.5652 121.664 65.5292 121.614 65.5044 121.558C65.4795 121.502 65.4663 121.442 65.4655 121.381C65.4838 121.173 65.5732 120.979 65.7185 120.829C66.519 119.828 67.4282 118.919 68.4294 118.119C69.5952 117.168 70.8374 116.316 72.1433 115.57C73.3223 114.837 74.6229 114.319 75.9838 114.043C76.412 113.939 76.8579 113.929 77.2902 114.015C77.7226 114.101 78.131 114.28 78.4869 114.54C78.8077 114.85 79.0554 115.227 79.2118 115.644C79.3681 116.062 79.4292 116.509 79.3905 116.953C79.3701 117.948 79.1488 118.928 78.7399 119.835C78.3031 120.883 77.692 121.848 76.9326 122.691C77.3226 122.56 77.7394 122.531 78.144 122.605C78.5486 122.679 78.9277 122.855 79.2459 123.116C79.5243 123.44 79.7356 123.816 79.8675 124.222C79.9993 124.629 80.0491 125.057 80.014 125.483C79.9449 127.486 79.2426 129.416 78.0079 130.995C76.4923 133.028 74.5569 134.711 72.3331 135.929C69.1523 137.791 66.8239 138.646 65.348 138.496Z" fill="white"/>
</svg>
