<svg width="32" height="34" viewBox="0 0 32 34" fill="none" xmlns="http://www.w3.org/2000/svg">
<path d="M18.8351 34C18.5285 34 18.2303 33.9006 17.9851 33.7167L12.3184 29.4667C12.1424 29.3347 11.9996 29.1636 11.9013 28.9669C11.8029 28.7702 11.7517 28.5533 11.7517 28.3333V20.3717L1.81239 9.18992C1.10649 8.39358 0.645593 7.41032 0.485085 6.35833C0.324578 5.30634 0.471293 4.23038 0.907597 3.25977C1.3439 2.28916 2.05123 1.4652 2.94456 0.886926C3.8379 0.308653 4.87922 0.000672093 5.94339 0L26.0601 0C27.1241 0.00124816 28.1652 0.309739 29.0582 0.888401C29.9511 1.46706 30.658 2.29128 31.0939 3.262C31.5297 4.23272 31.6759 5.30864 31.515 6.36047C31.3541 7.41231 30.8929 8.3953 30.1868 9.19133L20.2517 20.3717V32.5833C20.2517 32.9591 20.1025 33.3194 19.8368 33.5851C19.5711 33.8507 19.2108 34 18.8351 34Z" fill="white"/>
</svg>
