<svg width="30" height="30" viewBox="0 0 30 30" fill="none" xmlns="http://www.w3.org/2000/svg">
<path d="M15 8.75V0.575C16.1413 1.0075 17.1912 1.67375 18.0812 2.5625L22.4362 6.92C23.3263 7.80875 23.9925 8.85875 24.425 10H16.25C15.56 10 15 9.43875 15 8.75ZM16.5875 24.35C15.5713 25.3662 15 26.7437 15 28.1812V30H16.8188C18.2563 30 19.6338 29.4287 20.65 28.4125L29.1587 19.9038C30.28 18.7825 30.28 16.9625 29.1587 15.8413C28.0375 14.72 26.2175 14.72 25.0962 15.8413L16.5875 24.35ZM12.5 28.1812C12.5 26.0662 13.3237 24.0775 14.8187 22.5825L23.3275 14.0737C23.8138 13.5875 24.38 13.2137 24.9912 12.9475C24.9862 12.7975 24.98 12.6487 24.97 12.4987H16.25C14.1825 12.4987 12.5 10.8162 12.5 8.74875V0.03C12.2987 0.01625 12.0975 0 11.8938 0H6.25C2.80375 0 0 2.80375 0 6.25V23.75C0 27.1963 2.80375 30 6.25 30H12.5V28.1812Z" fill="white"/>
</svg>
