<svg width="403" height="426" viewBox="0 0 403 426" fill="none" xmlns="http://www.w3.org/2000/svg">
<g opacity="0.2" clip-path="url(#clip0_135_594)">
<path d="M135.262 138.911H0.823396C0.374271 138.911 0 138.552 0 138.087C0 137.623 0.3593 137.264 0.823396 137.264H135.262C135.711 137.264 136.085 137.623 136.085 138.087C136.085 138.552 135.726 138.911 135.262 138.911Z" fill="#6D25B3"/>
<path d="M135.261 182.704H27.1867C26.7376 182.704 26.3633 182.345 26.3633 181.881C26.3633 181.416 26.7226 181.057 27.1867 181.057H135.261C135.71 181.057 136.085 181.416 136.085 181.881C136.085 182.345 135.725 182.704 135.261 182.704Z" fill="#6D25B3"/>
<path d="M102.504 138.102C102.504 126.948 105.214 126.259 108.567 126.259C111.921 126.259 114.63 127.128 114.63 138.102C114.63 150.23 111.921 149.945 108.567 149.945C105.214 149.945 102.504 148.478 102.504 138.102Z" fill="#8218EA"/>
<path d="M109.001 150.754H108.567C104.435 150.754 101.695 148.598 101.695 138.087C101.695 127.577 104.106 125.421 108.567 125.421C113.028 125.421 115.439 127.487 115.439 138.087C115.439 144.376 114.72 147.894 113.103 149.511C111.905 150.694 110.438 150.754 109.001 150.754ZM108.567 127.068C105.992 127.068 103.327 127.068 103.327 138.087C103.327 149.107 106.486 149.107 108.567 149.107H108.791C110.124 149.107 111.187 149.107 111.95 148.343C113.208 147.1 113.807 143.747 113.807 138.087C113.807 127.068 111.022 127.068 108.567 127.068Z" fill="#6D25B3"/>
<path d="M50.1836 181.895C50.1836 170.741 52.8933 170.052 56.2468 170.052C59.6003 170.052 62.31 170.921 62.31 181.895C62.31 194.023 59.6003 193.738 56.2468 193.738C52.8933 193.738 50.1836 192.271 50.1836 181.895Z" fill="#6D25B3"/>
<path d="M56.6808 194.547H56.2466C52.1147 194.547 49.375 192.391 49.375 181.88C49.375 171.37 51.7853 169.214 56.2466 169.214C60.7079 169.214 63.1182 171.28 63.1182 181.88C63.1182 188.169 62.3996 191.687 60.7828 193.304C59.5851 194.487 58.118 194.547 56.6808 194.547ZM56.2466 170.861C53.6716 170.861 51.0068 170.861 51.0068 181.88C51.0068 192.9 54.1657 192.9 56.2466 192.9H56.4712C57.8036 192.9 58.8665 192.9 59.63 192.136C60.8876 190.894 61.4864 187.525 61.4864 181.88C61.4864 170.861 58.7018 170.861 56.2466 170.861Z" fill="#6D25B3"/>
<path d="M27.5156 134.868C27.3659 134.868 27.2461 134.748 27.2461 134.599V126.259C27.2461 126.11 27.3659 125.99 27.5156 125.99C27.6653 125.99 27.785 126.11 27.785 126.259V134.599C27.785 134.748 27.6653 134.868 27.5156 134.868Z" fill="#6D25B3"/>
<path d="M54.5351 134.868C54.3854 134.868 54.2656 134.748 54.2656 134.599V126.259C54.2656 126.11 54.3854 125.99 54.5351 125.99C54.6848 125.99 54.8046 126.11 54.8046 126.259V134.599C54.8046 134.748 54.6848 134.868 54.5351 134.868Z" fill="#6D25B3"/>
<path d="M81.5429 134.868C81.3932 134.868 81.2734 134.748 81.2734 134.599V126.259C81.2734 126.11 81.3932 125.99 81.5429 125.99C81.6926 125.99 81.8124 126.11 81.8124 126.259V134.599C81.8124 134.748 81.6926 134.868 81.5429 134.868Z" fill="#6D25B3"/>
<path d="M54.539 178.662C54.3893 178.662 54.2695 178.542 54.2695 178.392V170.053C54.2695 169.903 54.3893 169.783 54.539 169.783C54.6887 169.783 54.8085 169.903 54.8085 170.053V178.392C54.8085 178.542 54.6887 178.662 54.539 178.662Z" fill="#6D25B3"/>
<path d="M81.5468 178.662C81.3971 178.662 81.2773 178.542 81.2773 178.392V170.053C81.2773 169.903 81.3971 169.783 81.5468 169.783C81.6965 169.783 81.8163 169.903 81.8163 170.053V178.392C81.8163 178.542 81.6965 178.662 81.5468 178.662Z" fill="#6D25B3"/>
<path d="M108.566 178.662C108.417 178.662 108.297 178.542 108.297 178.392V170.053C108.297 169.903 108.417 169.783 108.566 169.783C108.716 169.783 108.836 169.903 108.836 170.053V178.392C108.836 178.542 108.716 178.662 108.566 178.662Z" fill="#6D25B3"/>
<path d="M204.503 177.479C204.294 177.479 204.084 177.404 203.935 177.239C203.605 176.925 203.605 176.401 203.935 176.086C205.492 174.499 206.33 172.149 206.255 169.633C206.18 167.088 205.177 164.753 203.5 163.24C202.557 162.387 201.434 161.743 200.267 161.084C199.593 160.695 198.889 160.306 198.216 159.857C193.081 156.428 190.012 150.17 190.371 143.882C190.416 143.088 190.521 142.309 190.67 141.531C187.422 141.351 184.218 140.408 181.374 138.686C174.143 134.314 169.951 125.316 171.193 116.797C172.705 106.377 181.269 99.0252 188.185 94.6833C193.29 91.4793 198.815 88.8891 204.144 86.3888C207.632 84.7569 211.24 83.05 214.684 81.2085C225.223 75.564 232.304 69.2458 236.302 61.8646C239.984 55.0822 241.242 47.1171 242.47 39.4065C242.799 37.3703 243.128 35.2592 243.503 33.1931C245.883 20.1075 250.075 9.05812 255.928 0.329411C256.183 -0.0448902 256.692 -0.149695 257.066 0.10483C257.44 0.359355 257.545 0.868405 257.291 1.24271C251.557 9.77678 247.455 20.6166 245.119 33.4776C244.745 35.5138 244.416 37.6098 244.086 39.646C242.844 47.4914 241.556 55.6063 237.739 62.6282C233.577 70.2939 226.286 76.8217 215.462 82.6308C211.974 84.4874 208.351 86.1942 204.848 87.8411C199.563 90.3265 194.099 92.9017 189.069 96.0458C182.451 100.193 174.247 107.2 172.84 117.007C171.702 124.897 175.565 133.236 182.257 137.264C184.952 138.896 188.021 139.764 191.105 139.884C192.482 135.213 195.746 131.2 200.042 129.089C202.602 127.831 205.896 127.816 207.198 130.197C208.456 132.488 206.899 135.258 204.803 136.994C201.27 139.884 196.838 141.426 192.377 141.531C192.197 142.324 192.093 143.133 192.048 143.941C191.718 149.556 194.593 155.395 199.174 158.449C199.803 158.869 200.476 159.243 201.12 159.617C202.318 160.306 203.56 161.01 204.638 161.983C206.644 163.794 207.842 166.549 207.917 169.529C208.007 172.493 206.989 175.278 205.132 177.179C204.968 177.344 204.758 177.419 204.548 177.419L204.503 177.479ZM203.471 129.928C202.497 129.928 201.449 130.242 200.716 130.601C197.033 132.398 194.129 135.901 192.781 139.914C196.719 139.719 200.611 138.327 203.725 135.767C205.252 134.509 206.54 132.488 205.731 131.035C205.282 130.227 204.414 129.928 203.471 129.928Z" fill="#6D25B3"/>
<path d="M170.085 313.216C169.771 313.216 169.472 313.036 169.337 312.721C163.768 299.935 148.902 289.994 132.329 287.958C130.323 287.718 128.242 287.568 126.236 287.434C122.703 287.194 119.035 286.94 115.547 286.116C103.256 283.226 83.2696 266.383 77.8801 256.367C77.6705 255.962 77.8202 255.468 78.2094 255.259C78.6136 255.049 79.1077 255.199 79.3173 255.588C84.5121 265.2 104.319 281.789 115.921 284.514C119.289 285.308 122.882 285.547 126.356 285.802C128.392 285.936 130.488 286.086 132.539 286.341C149.351 288.407 164.486 298.408 170.52 311.344C179.053 307.691 183.904 301.837 188.574 296.177C189.742 294.77 190.955 293.303 192.182 291.91C200.791 282.223 213.082 273.584 230.777 264.751C209.728 246.74 197.063 246.44 186.853 246.186C182.436 246.081 178.275 245.976 174.083 244.464C166.418 241.694 161.717 235.061 158.273 230.225C158.019 229.851 158.094 229.342 158.468 229.088C158.842 228.833 159.351 228.908 159.606 229.282C163.888 235.316 167.99 240.511 174.637 242.922C178.574 244.344 182.421 244.434 186.883 244.554C197.512 244.808 210.731 245.138 232.768 264.317C232.978 264.496 233.083 264.766 233.038 265.035C233.008 265.305 232.828 265.544 232.589 265.664C214.489 274.588 202.033 283.271 193.395 293.003C192.182 294.381 190.985 295.818 189.817 297.225C184.877 303.199 179.772 309.383 170.385 313.171C170.28 313.216 170.175 313.23 170.085 313.23V313.216Z" fill="#6D25B3"/>
<path d="M173.932 305.191C173.677 305.191 173.423 305.071 173.273 304.846C172.045 303.154 170.653 301.507 169.126 299.95C168.812 299.621 168.812 299.112 169.126 298.797C169.455 298.483 169.964 298.483 170.279 298.797C171.866 300.414 173.303 302.121 174.575 303.873C174.845 304.232 174.755 304.756 174.396 305.011C174.246 305.116 174.081 305.161 173.917 305.161L173.932 305.191ZM164.829 295.848C164.65 295.848 164.47 295.788 164.32 295.668C162.659 294.366 160.877 293.138 159.021 292.015C158.631 291.776 158.512 291.281 158.751 290.892C158.991 290.503 159.485 290.383 159.874 290.623C161.79 291.791 163.617 293.048 165.338 294.396C165.698 294.68 165.758 295.189 165.473 295.548C165.308 295.758 165.069 295.863 164.829 295.863V295.848ZM153.676 289.051C153.556 289.051 153.437 289.021 153.332 288.976C151.401 288.077 149.394 287.254 147.343 286.55C146.924 286.401 146.685 285.936 146.834 285.517C146.984 285.083 147.448 284.858 147.882 285.008C149.978 285.727 152.044 286.565 154.02 287.494C154.425 287.688 154.604 288.167 154.41 288.586C154.275 288.886 153.976 289.066 153.661 289.066L153.676 289.051ZM141.34 284.769C141.34 284.769 141.22 284.769 141.145 284.754C139.065 284.26 136.924 283.87 134.798 283.586C134.349 283.526 134.034 283.122 134.094 282.673C134.154 282.223 134.558 281.909 135.007 281.969C137.193 282.253 139.379 282.658 141.52 283.167C141.954 283.271 142.238 283.706 142.134 284.155C142.044 284.529 141.714 284.784 141.34 284.784V284.769ZM128.39 283.032C128.39 283.032 128.36 283.032 128.345 283.032L127.702 283.002C125.741 282.912 123.719 282.822 121.758 282.568C121.309 282.508 120.995 282.104 121.055 281.654C121.115 281.205 121.519 280.891 121.968 280.951C123.869 281.19 125.86 281.28 127.777 281.37L128.42 281.4C128.869 281.415 129.214 281.804 129.199 282.253C129.184 282.688 128.81 283.032 128.375 283.032H128.39ZM115.56 280.921C115.456 280.921 115.351 280.906 115.246 280.861C113.42 280.097 111.563 279.079 109.377 277.657C109.003 277.402 108.898 276.908 109.138 276.519C109.392 276.145 109.886 276.04 110.276 276.279C112.372 277.657 114.153 278.63 115.875 279.349C116.294 279.528 116.489 280.007 116.309 280.412C116.174 280.726 115.875 280.921 115.56 280.921ZM104.482 274.019C104.317 274.019 104.138 273.959 103.988 273.854C102.236 272.536 100.5 271.144 98.8529 269.722C98.5085 269.422 98.4636 268.913 98.763 268.569C99.0625 268.225 99.5715 268.18 99.9158 268.479C101.548 269.871 103.239 271.234 104.976 272.536C105.335 272.806 105.41 273.315 105.141 273.674C104.976 273.884 104.736 274.004 104.482 274.004V274.019ZM94.5413 265.515C94.3317 265.515 94.1371 265.44 93.9724 265.29C92.4004 263.748 90.8584 262.161 89.4063 260.529C89.1069 260.199 89.1368 259.675 89.4662 259.376C89.7955 259.077 90.3195 259.107 90.6189 259.436C92.0561 261.023 93.5682 262.595 95.1102 264.107C95.4395 264.422 95.4395 264.946 95.1251 265.26C94.9605 265.425 94.7509 265.515 94.5413 265.515Z" fill="#6D25B3"/>
<path d="M221.585 265.829C221.375 265.829 221.181 265.754 221.016 265.604C219.414 264.077 217.768 262.67 216.106 261.427C215.746 261.158 215.672 260.649 215.941 260.274C216.211 259.915 216.72 259.84 217.094 260.11C218.801 261.397 220.492 262.85 222.139 264.407C222.468 264.721 222.483 265.23 222.169 265.559C222.004 265.724 221.795 265.814 221.57 265.814L221.585 265.829ZM211.165 257.984C211.031 257.984 210.896 257.954 210.761 257.879C208.89 256.816 206.944 255.888 204.967 255.124C204.548 254.959 204.339 254.48 204.503 254.061C204.668 253.642 205.132 253.432 205.566 253.597C207.602 254.39 209.623 255.349 211.57 256.456C211.959 256.681 212.094 257.175 211.869 257.579C211.719 257.849 211.435 257.999 211.15 257.999L211.165 257.984ZM199.024 253.267C199.024 253.267 198.904 253.267 198.844 253.252C196.808 252.788 194.727 252.474 192.497 252.264C192.048 252.219 191.718 251.83 191.763 251.381C191.808 250.932 192.212 250.602 192.646 250.647C194.967 250.857 197.108 251.186 199.219 251.665C199.653 251.77 199.937 252.204 199.832 252.639C199.743 253.013 199.413 253.282 199.039 253.282L199.024 253.267ZM179.876 252.04H179.487C179.038 252.04 178.664 251.665 178.679 251.216C178.679 250.767 179.053 250.408 179.502 250.408H179.891C180.76 250.408 181.643 250.408 182.571 250.393C183.574 250.393 184.607 250.363 185.685 250.363H186.044C186.493 250.363 186.868 250.737 186.853 251.186C186.853 251.635 186.478 251.995 186.029 251.995H185.67C184.607 251.995 183.574 251.995 182.571 252.025C181.643 252.025 180.73 252.055 179.861 252.055L179.876 252.04ZM172.99 251.426C172.99 251.426 172.855 251.426 172.78 251.396C171.987 251.186 171.298 250.932 170.654 250.602C169.352 249.929 168.034 249.165 166.747 248.312C166.373 248.057 166.268 247.563 166.507 247.174C166.762 246.799 167.256 246.695 167.645 246.934C168.888 247.758 170.145 248.491 171.403 249.135C171.942 249.405 172.526 249.629 173.199 249.809C173.633 249.929 173.903 250.378 173.783 250.812C173.693 251.171 173.349 251.426 172.99 251.426ZM161.986 244.494C161.792 244.494 161.612 244.434 161.447 244.299C159.86 242.922 158.288 241.425 156.657 239.733C156.342 239.403 156.357 238.894 156.687 238.58C157.016 238.265 157.525 238.28 157.839 238.61C159.426 240.272 160.953 241.739 162.51 243.071C162.854 243.371 162.884 243.88 162.6 244.224C162.435 244.419 162.211 244.509 161.986 244.509V244.494ZM152.899 235.091C152.659 235.091 152.435 234.987 152.27 234.807C151.566 233.968 150.878 233.13 150.204 232.292C149.92 231.947 149.98 231.423 150.324 231.139C150.683 230.854 151.192 230.914 151.477 231.258C152.135 232.082 152.824 232.92 153.513 233.744C153.797 234.088 153.752 234.612 153.408 234.897C153.258 235.031 153.064 235.091 152.884 235.091H152.899Z" fill="#6D25B3"/>
<path d="M58.4914 347.651C58.0422 347.651 57.668 347.292 57.668 346.828V297.704C57.668 297.255 58.0273 296.881 58.4914 296.881C58.9555 296.881 59.3148 297.24 59.3148 297.704V346.828C59.3148 347.277 58.9555 347.651 58.4914 347.651Z" fill="#6D25B3"/>
<path d="M35.5578 338.728C35.1086 338.728 34.7344 338.368 34.7344 337.904V306.643C34.7344 306.193 35.0937 305.819 35.5578 305.819C36.0219 305.819 36.3812 306.178 36.3812 306.643V337.904C36.3812 338.353 36.0219 338.728 35.5578 338.728Z" fill="#6D25B3"/>
<path d="M24.1789 325.882C23.7297 325.882 23.3555 325.522 23.3555 325.058V319.474C23.3555 319.024 23.7148 318.65 24.1789 318.65C24.643 318.65 25.0023 319.009 25.0023 319.474V325.058C25.0023 325.507 24.643 325.882 24.1789 325.882Z" fill="#6D25B3"/>
<path d="M46.9484 332.14C46.4993 332.14 46.125 331.781 46.125 331.317V313.215C46.125 312.766 46.4843 312.392 46.9484 312.392C47.4125 312.392 47.7718 312.751 47.7718 313.215V331.317C47.7718 331.766 47.4125 332.14 46.9484 332.14Z" fill="#6D25B3"/>
<path d="M69.839 338.728C69.3899 338.728 69.0156 338.368 69.0156 337.904V306.643C69.0156 306.193 69.3749 305.819 69.839 305.819C70.3031 305.819 70.6624 306.178 70.6624 306.643V337.904C70.6624 338.353 70.3031 338.728 69.839 338.728Z" fill="#6D25B3"/>
<path d="M81.8625 334.341C81.4133 334.341 81.0391 333.982 81.0391 333.518V311.03C81.0391 310.58 81.3984 310.206 81.8625 310.206C82.3266 310.206 82.6859 310.565 82.6859 311.03V333.518C82.6859 333.967 82.3266 334.341 81.8625 334.341Z" fill="#6D25B3"/>
<path d="M155.397 46.0391C148.331 46.0391 142.582 40.2899 142.582 33.2231C142.582 26.1563 148.331 20.407 155.397 20.407C162.463 20.407 168.212 26.1563 168.212 33.2231C168.212 40.2899 162.463 46.0391 155.397 46.0391ZM155.397 22.0539C149.229 22.0539 144.214 27.0696 144.214 33.238C144.214 39.4065 149.229 44.4222 155.397 44.4222C161.565 44.4222 166.58 39.4065 166.58 33.238C166.58 27.0696 161.565 22.0539 155.397 22.0539Z" fill="#6D25B3"/>
</g>
<defs>
<clipPath id="clip0_135_594">
<rect width="403" height="426" fill="white"/>
</clipPath>
</defs>
</svg>
