<svg width="314" height="484" viewBox="0 0 314 484" fill="none" xmlns="http://www.w3.org/2000/svg">
<g opacity="0.2" clip-path="url(#clip0_135_555)">
<path d="M313.036 237.223H153.089C152.555 237.223 152.109 236.796 152.109 236.246C152.109 235.695 152.537 235.269 153.089 235.269H313.036C313.571 235.269 314.016 235.695 314.016 236.246C314.016 236.796 313.589 237.223 313.036 237.223Z" fill="#6D25B3"/>
<path d="M177.633 236.725C177.633 223.494 180.856 222.677 184.846 222.677C188.835 222.677 192.059 223.707 192.059 236.725C192.059 251.111 188.835 250.774 184.846 250.774C180.856 250.774 177.633 249.033 177.633 236.725Z" fill="#6D25B3"/>
<path d="M185.363 251.75H184.846C179.931 251.75 176.672 249.193 176.672 236.725C176.672 224.258 179.539 221.7 184.846 221.7C190.154 221.7 193.021 224.151 193.021 236.725C193.021 244.185 192.166 248.358 190.243 250.276C188.818 251.679 187.073 251.75 185.363 251.75ZM184.846 223.654C181.783 223.654 178.613 223.654 178.613 236.725C178.613 249.797 182.371 249.797 184.846 249.797H185.114C186.699 249.797 187.963 249.797 188.871 248.891C190.367 247.417 191.08 243.421 191.08 236.725C191.08 223.654 187.767 223.654 184.846 223.654Z" fill="#6D25B3"/>
<path d="M185.235 232.889C185.057 232.889 184.914 232.747 184.914 232.57V222.677C184.914 222.5 185.057 222.357 185.235 222.357C185.413 222.357 185.555 222.5 185.555 222.677V232.57C185.555 232.747 185.413 232.889 185.235 232.889Z" fill="#6D25B3"/>
<path d="M217.383 232.889C217.205 232.889 217.062 232.747 217.062 232.57V222.677C217.062 222.5 217.205 222.357 217.383 222.357C217.561 222.357 217.704 222.5 217.704 222.677V232.57C217.704 232.747 217.561 232.889 217.383 232.889Z" fill="#6D25B3"/>
<path d="M249.508 232.889C249.33 232.889 249.188 232.747 249.188 232.57V222.677C249.188 222.5 249.33 222.357 249.508 222.357C249.686 222.357 249.829 222.5 249.829 222.677V232.57C249.829 232.747 249.686 232.889 249.508 232.889Z" fill="#6D25B3"/>
<path d="M281.656 232.889C281.478 232.889 281.336 232.747 281.336 232.57V222.677C281.336 222.5 281.478 222.357 281.656 222.357C281.835 222.357 281.977 222.5 281.977 222.677V232.57C281.977 232.747 281.835 232.889 281.656 232.889Z" fill="#6D25B3"/>
<path d="M281.052 295.778H154.444C153.91 295.778 153.465 295.352 153.465 294.801C153.465 294.25 153.892 293.824 154.444 293.824H281.052C281.587 293.824 282.032 294.25 282.032 294.801C282.032 295.352 281.604 295.778 281.052 295.778Z" fill="#6D25B3"/>
<path d="M242.105 294.801C242.105 281.57 245.329 280.753 249.318 280.753C253.308 280.753 256.531 281.783 256.531 294.801C256.531 309.187 253.308 308.849 249.318 308.849C245.329 308.849 242.105 307.109 242.105 294.801Z" fill="#8218EA"/>
<path d="M249.816 309.826H249.3C244.384 309.826 241.125 307.269 241.125 294.801C241.125 282.333 243.992 279.776 249.3 279.776C254.607 279.776 257.474 282.227 257.474 294.801C257.474 302.26 256.619 306.434 254.696 308.352C253.271 309.755 251.526 309.826 249.816 309.826ZM249.3 281.73C246.236 281.73 243.066 281.73 243.066 294.801C243.066 307.872 246.824 307.872 249.3 307.872H249.567C251.152 307.872 252.416 307.872 253.325 306.967C254.821 305.493 255.533 301.497 255.533 294.801C255.533 281.73 252.22 281.73 249.3 281.73Z" fill="#6D25B3"/>
<path d="M185.024 290.965C184.846 290.965 184.703 290.823 184.703 290.645V280.753C184.703 280.575 184.846 280.433 185.024 280.433C185.202 280.433 185.344 280.575 185.344 280.753V290.645C185.344 290.823 185.202 290.965 185.024 290.965Z" fill="#6D25B3"/>
<path d="M217.172 290.965C216.994 290.965 216.852 290.823 216.852 290.645V280.753C216.852 280.575 216.994 280.433 217.172 280.433C217.35 280.433 217.493 280.575 217.493 280.753V290.645C217.493 290.823 217.35 290.965 217.172 290.965Z" fill="#6D25B3"/>
<path d="M33.7803 175.186C33.246 175.186 32.8008 174.76 32.8008 174.209V115.938C32.8008 115.405 33.2282 114.961 33.7803 114.961C34.3324 114.961 34.7598 115.388 34.7598 115.938V174.209C34.7598 174.742 34.3324 175.186 33.7803 175.186Z" fill="#6D25B3"/>
<path d="M19.8389 164.583C19.3046 164.583 18.8594 164.157 18.8594 163.606V126.523C18.8594 125.99 19.2868 125.546 19.8389 125.546C20.391 125.546 20.8184 125.973 20.8184 126.523V163.606C20.8184 164.139 20.391 164.583 19.8389 164.583Z" fill="#6D25B3"/>
<path d="M6.28421 154.176C5.74993 154.176 5.30469 153.75 5.30469 153.199V136.931C5.30469 136.398 5.73212 135.954 6.28421 135.954C6.83631 135.954 7.26374 136.38 7.26374 136.931V153.199C7.26374 153.732 6.83631 154.176 6.28421 154.176Z" fill="#6D25B3"/>
<path d="M47.2647 164.583C46.7304 164.583 46.2852 164.157 46.2852 163.606V126.523C46.2852 125.99 46.7126 125.546 47.2647 125.546C47.8168 125.546 48.2442 125.973 48.2442 126.523V163.606C48.2442 164.139 47.8168 164.583 47.2647 164.583Z" fill="#6D25B3"/>
<path d="M60.8155 154.176C60.2812 154.176 59.8359 153.75 59.8359 153.199V136.931C59.8359 136.398 60.2634 135.954 60.8155 135.954C61.3676 135.954 61.795 136.38 61.795 136.931V153.199C61.795 153.732 61.3676 154.176 60.8155 154.176Z" fill="#6D25B3"/>
<path d="M184.558 175.186C184.023 175.186 183.578 174.76 183.578 174.209V115.938C183.578 115.405 184.006 114.961 184.558 114.961C185.11 114.961 185.537 115.388 185.537 115.938V174.209C185.537 174.742 185.11 175.186 184.558 175.186Z" fill="#6D25B3"/>
<path d="M170.612 164.583C170.078 164.583 169.633 164.157 169.633 163.606V126.523C169.633 125.99 170.06 125.546 170.612 125.546C171.164 125.546 171.592 125.973 171.592 126.523V163.606C171.592 164.139 171.164 164.583 170.612 164.583Z" fill="#6D25B3"/>
<path d="M157.077 154.176C156.543 154.176 156.098 153.75 156.098 153.199V136.931C156.098 136.398 156.525 135.954 157.077 135.954C157.629 135.954 158.057 136.38 158.057 136.931V153.199C158.057 153.732 157.629 154.176 157.077 154.176Z" fill="#6D25B3"/>
<path d="M198.058 164.583C197.523 164.583 197.078 164.157 197.078 163.606V126.523C197.078 125.99 197.506 125.546 198.058 125.546C198.61 125.546 199.037 125.973 199.037 126.523V163.606C199.037 164.139 198.61 164.583 198.058 164.583Z" fill="#6D25B3"/>
<path d="M211.612 154.176C211.078 154.176 210.633 153.75 210.633 153.199V136.931C210.633 136.398 211.06 135.954 211.612 135.954C212.164 135.954 212.592 136.38 212.592 136.931V153.199C212.592 153.732 212.164 154.176 211.612 154.176Z" fill="#6D25B3"/>
<path d="M114.976 175.186C114.441 175.186 113.996 174.76 113.996 174.209V115.938C113.996 115.405 114.424 114.961 114.976 114.961C115.528 114.961 115.955 115.388 115.955 115.938V174.209C115.955 174.742 115.528 175.186 114.976 175.186Z" fill="#6D25B3"/>
<path d="M87.6905 164.583C87.1562 164.583 86.7109 164.157 86.7109 163.606V126.523C86.7109 125.99 87.1384 125.546 87.6905 125.546C88.2426 125.546 88.67 125.973 88.67 126.523V163.606C88.67 164.139 88.2426 164.583 87.6905 164.583Z" fill="#6D25B3"/>
<path d="M74.1592 149.363C73.6249 149.363 73.1797 148.937 73.1797 148.386V141.761C73.1797 141.229 73.6071 140.785 74.1592 140.785C74.7113 140.785 75.1387 141.211 75.1387 141.761V148.386C75.1387 148.919 74.7113 149.363 74.1592 149.363Z" fill="#6D25B3"/>
<path d="M224.417 149.363C223.883 149.363 223.438 148.937 223.438 148.386V141.761C223.438 141.229 223.865 140.785 224.417 140.785C224.969 140.785 225.397 141.211 225.397 141.761V148.386C225.397 148.919 224.969 149.363 224.417 149.363Z" fill="#6D25B3"/>
<path d="M101.245 154.176C100.711 154.176 100.266 153.75 100.266 153.199V136.931C100.266 136.398 100.693 135.954 101.245 135.954C101.797 135.954 102.225 136.38 102.225 136.931V153.199C102.225 153.732 101.797 154.176 101.245 154.176Z" fill="#6D25B3"/>
<path d="M128.476 164.583C127.941 164.583 127.496 164.157 127.496 163.606V126.523C127.496 125.99 127.924 125.546 128.476 125.546C129.028 125.546 129.455 125.973 129.455 126.523V163.606C129.455 164.139 129.028 164.583 128.476 164.583Z" fill="#6D25B3"/>
<path d="M142.776 159.38C142.242 159.38 141.797 158.953 141.797 158.403V131.727C141.797 131.194 142.224 130.75 142.776 130.75C143.328 130.75 143.756 131.176 143.756 131.727V158.403C143.756 158.936 143.328 159.38 142.776 159.38Z" fill="#6D25B3"/>
<path d="M131.081 74.859C122.675 74.859 115.836 68.0391 115.836 59.6563C115.836 51.2735 122.675 44.4536 131.081 44.4536C139.487 44.4536 146.326 51.2735 146.326 59.6563C146.326 68.0391 139.487 74.859 131.081 74.859ZM131.081 46.4072C123.743 46.4072 117.777 52.3569 117.777 59.6741C117.777 66.9913 123.743 72.9409 131.081 72.9409C138.418 72.9409 144.385 66.9913 144.385 59.6741C144.385 52.3569 138.418 46.4072 131.081 46.4072Z" fill="#6D25B3"/>
<path d="M20.625 6.53574C20.625 3.46323 23.1183 0.976807 26.1994 0.976807C29.2804 0.976807 31.7738 3.46323 31.7738 6.53574C31.7738 9.60825 29.2804 12.0947 26.1994 12.0947C23.1183 12.0947 20.625 9.60825 20.625 6.53574Z" fill="#6D25B3"/>
<path d="M26.1984 13.0715C22.5831 13.0715 19.6445 10.1411 19.6445 6.53574C19.6445 2.93043 22.5831 0 26.1984 0C29.8138 0 32.7524 2.93043 32.7524 6.53574C32.7524 10.1411 29.8138 13.0715 26.1984 13.0715ZM26.1984 1.95362C23.6517 1.95362 21.5858 4.0138 21.5858 6.5535C21.5858 9.0932 23.6517 11.1534 26.1984 11.1534C28.7452 11.1534 30.7933 9.0932 30.7933 6.5535C30.7933 4.0138 28.7274 1.95362 26.1984 1.95362Z" fill="#6D25B3"/>
</g>
<defs>
<clipPath id="clip0_135_555">
<rect width="314" height="484" fill="white"/>
</clipPath>
</defs>
</svg>
