<svg width="34" height="42" viewBox="0 0 34 42" fill="none" xmlns="http://www.w3.org/2000/svg">
<path d="M10.1768 32.979H23.8226C24.2653 32.979 24.6364 32.8284 24.9359 32.5272C25.2354 32.2259 25.3851 31.8527 25.3851 31.4074C25.3851 30.9621 25.2354 30.5918 24.9359 30.2967C24.6364 30.0016 24.2653 29.854 23.8226 29.854H10.1768C9.73405 29.854 9.36296 30.0046 9.06348 30.3058C8.764 30.6071 8.61426 30.9803 8.61426 31.4256C8.61426 31.8709 8.764 32.2412 9.06348 32.5363C9.36296 32.8314 9.73405 32.979 10.1768 32.979ZM10.1768 24.1248H23.8226C24.2653 24.1248 24.6364 23.9742 24.9359 23.673C25.2354 23.3718 25.3851 22.9985 25.3851 22.5532C25.3851 22.1079 25.2354 21.7377 24.9359 21.4425C24.6364 21.1474 24.2653 20.9998 23.8226 20.9998H10.1768C9.73405 20.9998 9.36296 21.1504 9.06348 21.4517C8.764 21.7529 8.61426 22.1262 8.61426 22.5714C8.61426 23.0168 8.764 23.387 9.06348 23.6821C9.36296 23.9773 9.73405 24.1248 10.1768 24.1248ZM3.45801 41.8332C2.62467 41.8332 1.89551 41.5207 1.27051 40.8957C0.645508 40.2707 0.333008 39.5415 0.333008 38.7082V3.2915C0.333008 2.45817 0.645508 1.729 1.27051 1.104C1.89551 0.479004 2.62467 0.166504 3.45801 0.166504H20.958C21.3901 0.166504 21.8019 0.253309 22.1935 0.426921C22.5851 0.600532 22.9198 0.826226 23.1976 1.104L32.7288 10.6353C33.0066 10.913 33.2323 11.2477 33.4059 11.6393C33.5795 12.0309 33.6663 12.4428 33.6663 12.8748V38.7082C33.6663 39.5415 33.3538 40.2707 32.7288 40.8957C32.1038 41.5207 31.3747 41.8332 30.5413 41.8332H3.45801ZM20.6976 11.4165V3.2915H3.45801V38.7082H30.5413V12.979H22.2601C21.8174 12.979 21.4463 12.8293 21.1468 12.5298C20.8473 12.2303 20.6976 11.8592 20.6976 11.4165Z" fill="white"/>
</svg>
