<svg width="42" height="40" viewBox="0 0 42 40" fill="none" xmlns="http://www.w3.org/2000/svg">
<path d="M3.29199 31.5728V36.6248H38.7087V31.5728H3.29199ZM3.29199 8.49984H9.80241C9.6288 8.18734 9.48991 7.79671 9.38574 7.32796C9.28158 6.85921 9.22949 6.43387 9.22949 6.05192C9.22949 4.41709 9.80241 3.02748 10.9482 1.88307C12.0941 0.738692 13.4656 0.166504 15.0628 0.166504C16.1302 0.166504 17.1175 0.435601 18.0248 0.973796C18.9321 1.51199 19.6462 2.19775 20.167 3.03109L21.0264 4.38525L21.8857 3.03109C22.4413 2.16303 23.1534 1.46859 24.0219 0.947754C24.8905 0.426921 25.8259 0.166504 26.8281 0.166504C28.4985 0.166504 29.9066 0.73074 31.0524 1.85921C32.1982 2.98768 32.7712 4.39152 32.7712 6.07072C32.7712 6.44013 32.7278 6.81581 32.641 7.19775C32.5541 7.5797 32.4239 8.01373 32.2503 8.49984H38.7087C39.542 8.49984 40.2712 8.81234 40.8962 9.43734C41.5212 10.0623 41.8337 10.7915 41.8337 11.6248V36.6248C41.8337 37.4582 41.5212 38.1873 40.8962 38.8123C40.2712 39.4373 39.542 39.7498 38.7087 39.7498H3.29199C2.45866 39.7498 1.72949 39.4373 1.10449 38.8123C0.479492 38.1873 0.166992 37.4582 0.166992 36.6248V11.6248C0.166992 10.7915 0.479492 10.0623 1.10449 9.43734C1.72949 8.81234 2.45866 8.49984 3.29199 8.49984ZM3.29199 25.9998H38.7087V11.6248H25.7399L30.0628 17.6144C30.3406 17.9616 30.4361 18.3436 30.3493 18.7603C30.2625 19.1769 30.0455 19.5241 29.6982 19.8019C29.351 20.0797 28.9674 20.1824 28.5473 20.1101C28.1273 20.0377 27.7817 19.8135 27.5107 19.4373L21.0003 10.4269L14.4899 19.4373C14.2274 19.8135 13.8927 20.0377 13.4857 20.1101C13.0788 20.1824 12.693 20.0797 12.3285 19.8019C11.9639 19.5241 11.7382 19.1769 11.6514 18.7603C11.5646 18.3436 11.66 17.9616 11.9378 17.6144L16.2607 11.6248H3.29199V25.9998ZM15.1149 8.81234C15.8788 8.81234 16.5298 8.54324 17.068 8.00505C17.6062 7.46685 17.8753 6.81581 17.8753 6.05192C17.8753 5.28803 17.6062 4.63699 17.068 4.0988C16.5298 3.5606 15.8788 3.2915 15.1149 3.2915C14.351 3.2915 13.7 3.5606 13.1618 4.0988C12.6236 4.63699 12.3545 5.28803 12.3545 6.05192C12.3545 6.81581 12.6236 7.46685 13.1618 8.00505C13.7 8.54324 14.351 8.81234 15.1149 8.81234ZM26.8337 8.81234C27.6305 8.81234 28.2985 8.54324 28.8376 8.00505C29.3766 7.46685 29.6462 6.81581 29.6462 6.05192C29.6462 5.28803 29.3766 4.63699 28.8376 4.0988C28.2985 3.5606 27.6305 3.2915 26.8337 3.2915C26.1045 3.2915 25.4708 3.5606 24.9326 4.0988C24.3944 4.63699 24.1253 5.28803 24.1253 6.05192C24.1253 6.81581 24.3944 7.46685 24.9326 8.00505C25.4708 8.54324 26.1045 8.81234 26.8337 8.81234Z" fill="white"/>
</svg>
