<svg width="40" height="40" viewBox="0 0 40 40" fill="none" xmlns="http://www.w3.org/2000/svg">
<path d="M5 40C4.2 40 3.5 39.675 2.9 39.025C2.3 38.375 2 37.6667 2 36.9V12.3C1.53333 12.2333 1.08333 11.9 0.65 11.3C0.216667 10.7 0 10.05 0 9.35V3C0 2.23333 0.3 1.54167 0.9 0.925C1.5 0.308333 2.2 0 3 0H37C37.7667 0 38.4583 0.308333 39.075 0.925C39.6917 1.54167 40 2.23333 40 3V9.35C40 10.05 39.7833 10.7 39.35 11.3C38.9167 11.9 38.4667 12.2333 38 12.3V36.9C38 37.6667 37.6917 38.375 37.075 39.025C36.4583 39.675 35.7667 40 35 40H5ZM5 12.35V37H35V12.35H5ZM37 9.35V3H3V9.35H37ZM15.5 22.85H24.5C24.925 22.85 25.2812 22.7054 25.5688 22.4163C25.8563 22.1271 26 21.7687 26 21.3413C26 20.9138 25.8563 20.5583 25.5688 20.275C25.2812 19.9917 24.925 19.85 24.5 19.85H15.5C15.075 19.85 14.7188 19.9946 14.4313 20.2838C14.1438 20.573 14 20.9313 14 21.3587C14 21.7862 14.1438 22.1417 14.4313 22.425C14.7188 22.7083 15.075 22.85 15.5 22.85Z" fill="white"/>
</svg>
