<svg width="43" height="42" viewBox="0 0 43 42" fill="none" xmlns="http://www.w3.org/2000/svg">
<path d="M12.2083 19.6458C12.8333 18.3958 13.5017 17.1632 14.2135 15.9479C14.9253 14.7326 15.6806 13.5694 16.4792 12.4583L12.3646 11.625L6.6875 17.3021L12.2083 19.6458ZM39.0312 3.39582C35.4896 3.56943 32.2951 4.32464 29.4479 5.66145C26.6007 6.99825 23.8229 9.02082 21.1146 11.7292C20.0382 12.8055 18.9271 14.2118 17.7812 15.9479C16.6354 17.684 15.6111 19.5417 14.7083 21.5208L21.6354 28.4479C23.6146 27.5451 25.4722 26.5208 27.2083 25.375C28.9444 24.2292 30.3507 23.118 31.4271 22.0417C34.1354 19.3333 36.158 16.5642 37.4948 13.7344C38.8316 10.9045 39.5868 7.71874 39.7604 4.17707C39.7604 4.07291 39.7431 3.96874 39.7083 3.86457C39.6736 3.76041 39.6215 3.6736 39.5521 3.60416C39.4826 3.53471 39.4045 3.48263 39.3177 3.44791C39.2309 3.41318 39.1354 3.39582 39.0312 3.39582ZM26.6875 16.5208C25.9931 15.8264 25.6458 14.967 25.6458 13.9427C25.6458 12.9184 25.9931 12.059 26.6875 11.3646C27.3819 10.6701 28.2413 10.3229 29.2656 10.3229C30.2899 10.3229 31.1493 10.6701 31.8438 11.3646C32.5382 12.059 32.8854 12.9184 32.8854 13.9427C32.8854 14.967 32.5382 15.8264 31.8438 16.5208C31.1493 17.2153 30.2899 17.5625 29.2656 17.5625C28.2413 17.5625 27.3819 17.2153 26.6875 16.5208ZM23.5104 31L25.8542 36.4687L31.5312 30.7917L30.75 26.6771C29.6389 27.4757 28.467 28.2396 27.2344 28.9687C26.0017 29.6979 24.7604 30.375 23.5104 31ZM42.9375 1.88541C43.0417 6.22568 42.3385 10.2274 40.8281 13.8906C39.3177 17.5538 36.9306 21.0173 33.6667 24.2812C33.6319 24.316 33.5972 24.342 33.5625 24.3594C33.5278 24.3767 33.4931 24.4028 33.4583 24.4375L34.6042 30.1667C34.7083 30.6875 34.691 31.191 34.5521 31.6771C34.4132 32.1632 34.1528 32.5972 33.7708 32.9792L26.4271 40.3229C26.0451 40.7048 25.5851 40.8437 25.0469 40.7396C24.5087 40.6354 24.1354 40.3229 23.9271 39.8021L20.3854 31.625L11.5833 22.7708L3.35417 19.2812C2.83333 19.0729 2.52951 18.691 2.44271 18.1354C2.3559 17.5798 2.50347 17.1111 2.88542 16.7292L10.1771 9.43749C10.559 9.05554 10.9931 8.78645 11.4792 8.6302C11.9653 8.47395 12.4688 8.44791 12.9896 8.55207L18.7188 9.69791C18.7535 9.66318 18.7882 9.63714 18.8229 9.61978C18.8576 9.60242 18.8924 9.57638 18.9271 9.54166C22.191 6.27777 25.6458 3.89061 29.2917 2.3802C32.9375 0.869781 36.9306 0.166656 41.2708 0.270823C41.4792 0.270823 41.6788 0.314226 41.8698 0.401031C42.0608 0.487837 42.2431 0.618045 42.4167 0.791656C42.5903 0.965267 42.7205 1.13888 42.8073 1.31249C42.8941 1.4861 42.9375 1.67707 42.9375 1.88541ZM4.76042 29.0729C5.97569 27.8576 7.46007 27.2413 9.21354 27.2239C10.967 27.2066 12.4514 27.8055 13.6667 29.0208C14.8819 30.2361 15.4809 31.7205 15.4635 33.4739C15.4462 35.2274 14.8299 36.7118 13.6146 37.9271C12.7118 38.8298 11.3142 39.5764 9.42188 40.1667C7.52951 40.7569 4.69097 41.3125 0.90625 41.8333C1.42708 38.0486 1.97396 35.2014 2.54688 33.2917C3.11979 31.3819 3.85764 29.9757 4.76042 29.0729ZM6.94792 31.3125C6.46181 31.8333 6.02778 32.6493 5.64583 33.7604C5.26389 34.8715 4.93403 36.2951 4.65625 38.0312C6.39236 37.7535 7.81597 37.4236 8.92708 37.0417C10.0382 36.6597 10.8542 36.2257 11.375 35.7396C12.0347 35.1493 12.3733 34.4114 12.3906 33.526C12.408 32.6406 12.1042 31.868 11.4792 31.2083C10.8194 30.5833 10.0469 30.2795 9.16146 30.2969C8.27604 30.3142 7.53819 30.6528 6.94792 31.3125Z" fill="white"/>
</svg>
