<svg width="42" height="42" viewBox="0 0 42 42" fill="none" xmlns="http://www.w3.org/2000/svg">
<path d="M19.8545 41.7811C17.1114 41.6422 14.542 40.9998 12.1462 39.854C9.75033 38.7082 7.66699 37.2064 5.89616 35.3488C4.12533 33.4912 2.72776 31.3297 1.70345 28.8644C0.679145 26.3991 0.166992 23.7776 0.166992 20.9998C0.166992 18.1179 0.713867 15.4096 1.80762 12.8748C2.90137 10.3401 4.38574 8.13525 6.26074 6.26025C8.13574 4.38525 10.3406 2.90088 12.8753 1.80713C15.41 0.713379 18.1184 0.166504 21.0003 0.166504C26.1739 0.166504 30.6705 1.79845 34.4899 5.06234C38.3094 8.32623 40.6531 12.4234 41.5212 17.354H38.3441C37.7538 14.4373 36.5212 11.8332 34.6462 9.5415C32.7712 7.24984 30.4274 5.53109 27.6149 4.38525V5.32275C27.6149 6.53803 27.1982 7.59706 26.3649 8.49984C25.5316 9.40261 24.5073 9.854 23.292 9.854H18.7607V14.3853C18.7607 14.9755 18.5264 15.4616 18.0576 15.8436C17.5889 16.2255 17.0594 16.4165 16.4691 16.4165H12.1462V20.9998H17.8753V27.5103H14.3857L3.76074 16.8853C3.58713 17.5797 3.4656 18.2655 3.39616 18.9425C3.32671 19.6196 3.29199 20.3054 3.29199 20.9998C3.29199 25.6873 4.87185 29.7325 8.03158 33.1353C11.1913 36.538 15.1323 38.3783 19.8545 38.6561V41.7811ZM39.1774 39.2811L33.292 33.4478C32.5628 33.9686 31.7729 34.3679 30.9222 34.6457C30.0715 34.9234 29.1948 35.0623 28.292 35.0623C25.8267 35.0623 23.7347 34.203 22.016 32.4842C20.2972 30.7655 19.4378 28.6734 19.4378 26.2082C19.4378 23.7429 20.2972 21.6509 22.016 19.9321C23.7347 18.2134 25.8267 17.354 28.292 17.354C30.7573 17.354 32.8493 18.2134 34.568 19.9321C36.2868 21.6509 37.1462 23.7429 37.1462 26.2082C37.1462 27.1109 36.9986 27.9877 36.7035 28.8384C36.4083 29.6891 36.0177 30.4964 35.5316 31.2603L41.3649 37.0936C41.6774 37.4061 41.8423 37.7707 41.8597 38.1873C41.8771 38.604 41.7295 38.9859 41.417 39.3332C41.1045 39.6457 40.7312 39.7932 40.2972 39.7759C39.8632 39.7585 39.4899 39.5936 39.1774 39.2811ZM28.292 31.9373C29.8892 31.9373 31.2434 31.3818 32.3545 30.2707C33.4656 29.1596 34.0212 27.8054 34.0212 26.2082C34.0212 24.6109 33.4656 23.2568 32.3545 22.1457C31.2434 21.0346 29.8892 20.479 28.292 20.479C26.6948 20.479 25.3406 21.0346 24.2295 22.1457C23.1184 23.2568 22.5628 24.6109 22.5628 26.2082C22.5628 27.8054 23.1184 29.1596 24.2295 30.2707C25.3406 31.3818 26.6948 31.9373 28.292 31.9373Z" fill="white"/>
</svg>
